{
  "asset": {
    "generator": "Khronos glTF Blender I/O v3.2.43",
    "version": "2.0"
  },
  "scene": 0,
  "scenes": [
    {
      "name": "Main",
      "nodes": [
        0
      ]
    }
  ],
  "nodes": [
    {
      "mesh": 0,
      "name": "Curve.016",
      "rotation": [
        -0.452026903629303,
        -0.5437572598457336,
        -0.5437570810317993,
        0.4520265758037567
      ],
      "scale": [
        1.1772147417068481,
        1.1772147417068481,
        1.1772148609161377
      ],
      "translation": [
        0.08745764195919037,
        -0.6426750421524048,
        -0.2043706327676773
      ]
    }
  ],
  "meshes": [
    {
      "name": "Curve.002",
      "primitives": [
        {
          "attributes": {
            "POSITION": 0,
            "NORMAL": 1
          },
          "indices": 2
        }
      ]
    }
  ],
  "accessors": [
    {
      "bufferView": 0,
      "componentType": 5126,
      "count": 96721,
      "max": [
        1.3934307098388672,
        0.18016605079174042,
        1.5386364459991455
      ],
      "min": [
        -0.6223070621490479,
        -0.1801663339138031,
        -0.48068442940711975
      ],
      "type": "VEC3"
    },
    {
      "bufferView": 1,
      "componentType": 5126,
      "count": 96721,
      "type": "VEC3"
    },
    {
      "bufferView": 2,
      "componentType": 5125,
      "count": 340992,
      "type": "SCALAR"
    }
  ],
  "bufferViews": [
    {
      "buffer": 0,
      "byteLength": 1160652,
      "byteOffset": 0
    },
    {
      "buffer": 0,
      "byteLength": 1160652,
      "byteOffset": 1160652
    },
    {
      "buffer": 0,
      "byteLength": 1363968,
      "byteOffset": 2321304
    }
  ],
  "buffers": [
    {
      "uri": "Safe_Logo_Symbol_2_data.bin",
      "byteLength": 3685272
    }
  ]
}