{
  "asset": {
    "generator": "Khronos glTF Blender I/O v1.6.16",
    "version": "2.0"
  },
  "scene": 0,
  "scenes": [
    {
      "name": "Scene",
      "nodes": [
        0
      ]
    }
  ],
  "nodes": [
    {
      "mesh": 0,
      "name": "Cylinder",
      "scale": [
        4.84341287612915,
        4.84341287612915,
        4.84341287612915
      ]
    }
  ],
  "materials": [
    {
      "doubleSided": true,
      "name": "Material.003",
      "pbrMetallicRoughness": {}
    }
  ],
  "meshes": [
    {
      "name": "Cylinder.003",
      "primitives": [
        {
          "attributes": {
            "POSITION": 0,
            "NORMAL": 1,
            "TEXCOORD_0": 2
          },
          "indices": 3,
          "material": 0
        }
      ]
    }
  ],
  "accessors": [
    {
      "bufferView": 0,
      "componentType": 5126,
      "count": 34402,
      "max": [
        1.0523585081100464,
        0.9548717141151428,
        1.0523585081100464
      ],
      "min": [
        -1.0523585081100464,
        -2.9977872371673584,
        -1.0523585081100464
      ],
      "type": "VEC3"
    },
    {
      "bufferView": 1,
      "componentType": 5126,
      "count": 34402,
      "type": "VEC3"
    },
    {
      "bufferView": 2,
      "componentType": 5126,
      "count": 34402,
      "type": "VEC2"
    },
    {
      "bufferView": 3,
      "componentType": 5123,
      "count": 190464,
      "type": "SCALAR"
    }
  ],
  "bufferViews": [
    {
      "buffer": 0,
      "byteLength": 412824,
      "byteOffset": 0
    },
    {
      "buffer": 0,
      "byteLength": 412824,
      "byteOffset": 412824
    },
    {
      "buffer": 0,
      "byteLength": 275216,
      "byteOffset": 825648
    },
    {
      "buffer": 0,
      "byteLength": 380928,
      "byteOffset": 1100864
    }
  ],
  "buffers": [
    {
      "uri": "wine_glass_data.bin",
      "byteLength": 1481792
    }
  ]
}