<svg width="354" height="355" viewBox="0 0 354 355" fill="none" xmlns="http://www.w3.org/2000/svg">
<rect x="176.643" y="0.857422" width="11.0402" height="11.0402" fill="white"/>
<rect x="154.562" y="11.8984" width="11.0402" height="11.0402" fill="white"/>
<rect x="165.604" y="11.8984" width="11.0402" height="11.0402" fill="white"/>
<rect x="176.643" y="11.8984" width="11.0402" height="11.0402" fill="white"/>
<rect x="187.684" y="11.8984" width="11.0402" height="11.0402" fill="white"/>
<rect x="198.724" y="11.8984" width="11.0402" height="11.0402" fill="white"/>
<rect x="132.482" y="22.9395" width="11.0402" height="11.0402" fill="white"/>
<rect x="143.523" y="22.9395" width="11.0402" height="11.0402" fill="white"/>
<rect x="154.562" y="22.9395" width="11.0402" height="11.0402" fill="white"/>
<rect x="165.604" y="22.9395" width="11.0402" height="11.0402" fill="white"/>
<rect x="176.643" y="22.9395" width="11.0402" height="11.0402" fill="white"/>
<rect x="187.684" y="22.9395" width="11.0402" height="11.0402" fill="white"/>
<rect x="198.724" y="22.9395" width="11.0402" height="11.0402" fill="white"/>
<rect x="209.764" y="22.9395" width="11.0402" height="11.0402" fill="white"/>
<rect x="220.804" y="22.9395" width="11.0402" height="11.0402" fill="white"/>
<rect x="110.402" y="33.9766" width="11.0402" height="11.0402" fill="white"/>
<rect x="121.443" y="33.9766" width="11.0402" height="11.0402" fill="white"/>
<rect x="132.482" y="33.9766" width="11.0402" height="11.0402" fill="white"/>
<rect x="143.523" y="33.9766" width="11.0402" height="11.0402" fill="white"/>
<rect x="154.562" y="33.9766" width="11.0402" height="11.0402" fill="white"/>
<rect x="165.604" y="33.9766" width="11.0402" height="11.0402" fill="white"/>
<rect x="176.643" y="33.9766" width="11.0402" height="11.0402" fill="white"/>
<rect x="187.684" y="33.9766" width="11.0402" height="11.0402" fill="white"/>
<rect x="198.724" y="33.9766" width="11.0402" height="11.0402" fill="white"/>
<rect x="209.764" y="33.9766" width="11.0402" height="11.0402" fill="white"/>
<rect x="220.804" y="33.9766" width="11.0402" height="11.0402" fill="white"/>
<rect x="231.845" y="33.9766" width="11.0402" height="11.0402" fill="white"/>
<rect x="242.884" y="33.9766" width="11.0402" height="11.0402" fill="white"/>
<rect x="121.443" y="45.0195" width="11.0402" height="11.0402" fill="white"/>
<rect x="132.482" y="45.0195" width="11.0402" height="11.0402" fill="white"/>
<rect x="143.523" y="45.0195" width="11.0402" height="11.0402" fill="white"/>
<rect x="154.562" y="45.0195" width="11.0402" height="11.0402" fill="white"/>
<rect x="165.604" y="45.0195" width="11.0402" height="11.0402" fill="white"/>
<rect x="176.643" y="45.0195" width="11.0402" height="11.0402" fill="white"/>
<rect x="187.684" y="45.0195" width="11.0402" height="11.0402" fill="white"/>
<rect x="198.724" y="45.0195" width="11.0402" height="11.0402" fill="white"/>
<rect x="209.764" y="45.0195" width="11.0402" height="11.0402" fill="white"/>
<rect x="220.804" y="45.0195" width="11.0402" height="11.0402" fill="white"/>
<rect x="231.845" y="45.0195" width="11.0402" height="11.0402" fill="white"/>
<rect x="143.523" y="56.0586" width="11.0402" height="11.0402" fill="white"/>
<rect x="154.562" y="56.0586" width="11.0402" height="11.0402" fill="white"/>
<rect x="165.604" y="56.0586" width="11.0402" height="11.0402" fill="white"/>
<rect x="176.643" y="56.0586" width="11.0402" height="11.0402" fill="white"/>
<rect x="187.684" y="56.0586" width="11.0402" height="11.0402" fill="white"/>
<rect x="198.724" y="56.0586" width="11.0402" height="11.0402" fill="white"/>
<rect x="209.764" y="56.0586" width="11.0402" height="11.0402" fill="white"/>
<rect x="110.402" y="67.0996" width="11.0402" height="11.0402" fill="white"/>
<rect x="165.604" y="67.0996" width="11.0402" height="11.0402" fill="white"/>
<rect x="176.643" y="67.0996" width="11.0402" height="11.0402" fill="white"/>
<rect x="187.684" y="67.0996" width="11.0402" height="11.0402" fill="white"/>
<rect x="242.884" y="67.0996" width="11.0402" height="11.0402" fill="white"/>
<rect x="110.402" y="78.1387" width="11.0402" height="11.0402" fill="white"/>
<rect x="121.443" y="78.1387" width="11.0402" height="11.0402" fill="white"/>
<rect x="132.482" y="78.1387" width="11.0402" height="11.0402" fill="white"/>
<rect x="220.804" y="78.1387" width="11.0402" height="11.0402" fill="white"/>
<rect x="231.845" y="78.1387" width="11.0402" height="11.0402" fill="white"/>
<rect x="242.884" y="78.1387" width="11.0402" height="11.0402" fill="white"/>
<rect x="110.402" y="89.1797" width="11.0402" height="11.0402" fill="white"/>
<rect x="121.443" y="89.1797" width="11.0402" height="11.0402" fill="white"/>
<rect x="132.482" y="89.1797" width="11.0402" height="11.0402" fill="white"/>
<rect x="143.523" y="89.1797" width="11.0402" height="11.0402" fill="white"/>
<rect x="154.562" y="89.1797" width="11.0402" height="11.0402" fill="white"/>
<rect x="198.724" y="89.1797" width="11.0402" height="11.0402" fill="white"/>
<rect x="209.764" y="89.1797" width="11.0402" height="11.0402" fill="white"/>
<rect x="220.804" y="89.1797" width="11.0402" height="11.0402" fill="white"/>
<rect x="231.845" y="89.1797" width="11.0402" height="11.0402" fill="white"/>
<rect x="242.884" y="89.1797" width="11.0402" height="11.0402" fill="white"/>
<rect x="110.402" y="100.219" width="11.0402" height="11.0402" fill="white"/>
<rect x="121.443" y="100.219" width="11.0402" height="11.0402" fill="white"/>
<rect x="132.482" y="100.219" width="11.0402" height="11.0402" fill="white"/>
<rect x="143.523" y="100.219" width="11.0402" height="11.0402" fill="white"/>
<rect x="154.562" y="100.219" width="11.0402" height="11.0402" fill="white"/>
<rect x="165.604" y="100.219" width="11.0402" height="11.0402" fill="white"/>
<rect x="187.684" y="100.219" width="11.0402" height="11.0402" fill="white"/>
<rect x="198.724" y="100.219" width="11.0402" height="11.0402" fill="white"/>
<rect x="209.764" y="100.219" width="11.0402" height="11.0402" fill="white"/>
<rect x="220.804" y="100.219" width="11.0402" height="11.0402" fill="white"/>
<rect x="231.845" y="100.219" width="11.0402" height="11.0402" fill="white"/>
<rect x="242.884" y="100.219" width="11.0402" height="11.0402" fill="white"/>
<rect x="110.402" y="111.26" width="11.0402" height="11.0402" fill="white"/>
<rect x="121.443" y="111.26" width="11.0402" height="11.0402" fill="white"/>
<rect x="132.482" y="111.26" width="11.0402" height="11.0402" fill="white"/>
<rect x="143.523" y="111.26" width="11.0402" height="11.0402" fill="white"/>
<rect x="154.562" y="111.26" width="11.0402" height="11.0402" fill="white"/>
<rect x="165.604" y="111.26" width="11.0402" height="11.0402" fill="white"/>
<rect x="187.684" y="111.26" width="11.0402" height="11.0402" fill="white"/>
<rect x="198.724" y="111.26" width="11.0402" height="11.0402" fill="white"/>
<rect x="209.764" y="111.26" width="11.0402" height="11.0402" fill="white"/>
<rect x="220.804" y="111.26" width="11.0402" height="11.0402" fill="white"/>
<rect x="231.845" y="111.26" width="11.0402" height="11.0402" fill="white"/>
<rect x="242.884" y="111.26" width="11.0402" height="11.0402" fill="white"/>
<rect x="110.402" y="122.299" width="11.0402" height="11.0402" fill="white"/>
<rect x="121.443" y="122.299" width="11.0402" height="11.0402" fill="white"/>
<rect x="132.482" y="122.299" width="11.0402" height="11.0402" fill="white"/>
<rect x="143.523" y="122.299" width="11.0402" height="11.0402" fill="white"/>
<rect x="154.562" y="122.299" width="11.0402" height="11.0402" fill="white"/>
<rect x="165.604" y="122.299" width="11.0402" height="11.0402" fill="white"/>
<rect x="187.684" y="122.299" width="11.0402" height="11.0402" fill="white"/>
<rect x="198.724" y="122.299" width="11.0402" height="11.0402" fill="white"/>
<rect x="209.764" y="122.299" width="11.0402" height="11.0402" fill="white"/>
<rect x="220.804" y="122.299" width="11.0402" height="11.0402" fill="white"/>
<rect x="231.845" y="122.299" width="11.0402" height="11.0402" fill="white"/>
<rect x="242.884" y="122.299" width="11.0402" height="11.0402" fill="white"/>
<rect x="110.402" y="133.34" width="11.0402" height="11.0402" fill="white"/>
<rect x="121.443" y="133.34" width="11.0402" height="11.0402" fill="white"/>
<rect x="132.482" y="133.34" width="11.0402" height="11.0402" fill="white"/>
<rect x="143.523" y="133.34" width="11.0402" height="11.0402" fill="white"/>
<rect x="154.562" y="133.34" width="11.0402" height="11.0402" fill="white"/>
<rect x="165.604" y="133.34" width="11.0402" height="11.0402" fill="white"/>
<rect x="187.684" y="133.34" width="11.0402" height="11.0402" fill="white"/>
<rect x="198.724" y="133.34" width="11.0402" height="11.0402" fill="white"/>
<rect x="209.764" y="133.34" width="11.0402" height="11.0402" fill="white"/>
<rect x="220.804" y="133.34" width="11.0402" height="11.0402" fill="white"/>
<rect x="231.845" y="133.34" width="11.0402" height="11.0402" fill="white"/>
<rect x="242.884" y="133.34" width="11.0402" height="11.0402" fill="white"/>
<rect x="121.443" y="144.381" width="11.0402" height="11.0402" fill="white"/>
<rect x="132.482" y="144.381" width="11.0402" height="11.0402" fill="white"/>
<rect x="143.523" y="144.381" width="11.0402" height="11.0402" fill="white"/>
<rect x="154.562" y="144.381" width="11.0402" height="11.0402" fill="white"/>
<rect x="165.604" y="144.381" width="11.0402" height="11.0402" fill="white"/>
<rect x="187.684" y="144.381" width="11.0402" height="11.0402" fill="white"/>
<rect x="198.724" y="144.381" width="11.0402" height="11.0402" fill="white"/>
<rect x="209.764" y="144.381" width="11.0402" height="11.0402" fill="white"/>
<rect x="220.804" y="144.381" width="11.0402" height="11.0402" fill="white"/>
<rect x="231.845" y="144.381" width="11.0402" height="11.0402" fill="white"/>
<rect x="121.443" y="155.42" width="11.0402" height="11.0402" fill="white"/>
<rect x="132.482" y="155.42" width="11.0402" height="11.0402" fill="white"/>
<rect x="143.523" y="155.42" width="11.0402" height="11.0402" fill="white"/>
<rect x="154.562" y="155.42" width="11.0402" height="11.0402" fill="white"/>
<rect x="165.604" y="155.42" width="11.0402" height="11.0402" fill="white"/>
<rect x="187.684" y="155.42" width="11.0402" height="11.0402" fill="white"/>
<rect x="198.724" y="155.42" width="11.0402" height="11.0402" fill="white"/>
<rect x="209.764" y="155.42" width="11.0402" height="11.0402" fill="white"/>
<rect x="220.804" y="155.42" width="11.0402" height="11.0402" fill="white"/>
<rect x="231.845" y="155.42" width="11.0402" height="11.0402" fill="white"/>
<rect x="121.443" y="166.461" width="11.0402" height="11.0402" fill="white"/>
<rect x="132.482" y="166.461" width="11.0402" height="11.0402" fill="white"/>
<rect x="165.604" y="166.461" width="11.0402" height="11.0402" fill="white"/>
<rect x="187.684" y="166.461" width="11.0402" height="11.0402" fill="white"/>
<rect x="220.804" y="166.461" width="11.0402" height="11.0402" fill="white"/>
<rect x="231.845" y="166.461" width="11.0402" height="11.0402" fill="white"/>
<rect x="110.402" y="177.502" width="11.0402" height="11.0402" fill="white"/>
<rect x="121.443" y="177.502" width="11.0402" height="11.0402" fill="white"/>
<rect x="231.845" y="177.502" width="11.0402" height="11.0402" fill="white"/>
<rect x="242.884" y="177.502" width="11.0402" height="11.0402" fill="white"/>
<rect x="110.402" y="188.541" width="11.0402" height="11.0402" fill="white"/>
<rect x="121.443" y="188.541" width="11.0402" height="11.0402" fill="white"/>
<rect x="231.845" y="188.541" width="11.0402" height="11.0402" fill="white"/>
<rect x="242.884" y="188.541" width="11.0402" height="11.0402" fill="white"/>
<rect x="55.2017" y="199.582" width="11.0402" height="11.0402" fill="white"/>
<rect x="66.2412" y="199.582" width="11.0402" height="11.0402" fill="white"/>
<rect x="77.2817" y="199.582" width="11.0402" height="11.0402" fill="white"/>
<rect x="88.3222" y="199.582" width="11.0402" height="11.0402" fill="white"/>
<rect x="99.3618" y="199.582" width="11.0402" height="11.0402" fill="white"/>
<rect x="110.402" y="199.582" width="11.0402" height="11.0402" fill="white"/>
<rect x="242.884" y="199.582" width="11.0402" height="11.0402" fill="white"/>
<rect x="253.926" y="199.582" width="11.0402" height="11.0402" fill="white"/>
<rect x="264.965" y="199.582" width="11.0402" height="11.0402" fill="white"/>
<rect x="276.005" y="199.582" width="11.0402" height="11.0402" fill="white"/>
<rect x="287.045" y="199.582" width="11.0402" height="11.0402" fill="white"/>
<rect x="298.086" y="199.582" width="11.0402" height="11.0402" fill="white"/>
<rect x="33.1207" y="210.621" width="11.0402" height="11.0402" fill="white"/>
<rect x="44.1601" y="210.621" width="11.0402" height="11.0402" fill="white"/>
<rect x="55.2017" y="210.621" width="11.0402" height="11.0402" fill="white"/>
<rect x="66.2412" y="210.621" width="11.0402" height="11.0402" fill="white"/>
<rect x="77.2817" y="210.621" width="11.0402" height="11.0402" fill="white"/>
<rect x="88.3222" y="210.621" width="11.0402" height="11.0402" fill="white"/>
<rect x="99.3618" y="210.621" width="11.0402" height="11.0402" fill="white"/>
<rect x="110.402" y="210.621" width="11.0402" height="11.0402" fill="white"/>
<rect x="242.884" y="210.621" width="11.0402" height="11.0402" fill="white"/>
<rect x="253.926" y="210.621" width="11.0402" height="11.0402" fill="white"/>
<rect x="264.965" y="210.621" width="11.0402" height="11.0402" fill="white"/>
<rect x="276.005" y="210.621" width="11.0402" height="11.0402" fill="white"/>
<rect x="287.045" y="210.621" width="11.0402" height="11.0402" fill="white"/>
<rect x="298.086" y="210.621" width="11.0402" height="11.0402" fill="white"/>
<rect x="309.125" y="210.621" width="11.0402" height="11.0402" fill="white"/>
<rect x="320.166" y="210.621" width="11.0402" height="11.0402" fill="white"/>
<rect x="11.0396" y="221.66" width="11.0402" height="11.0402" fill="white"/>
<rect x="22.0812" y="221.66" width="11.0402" height="11.0402" fill="white"/>
<rect x="33.1207" y="221.66" width="11.0402" height="11.0402" fill="white"/>
<rect x="44.1601" y="221.66" width="11.0402" height="11.0402" fill="white"/>
<rect x="55.2017" y="221.66" width="11.0402" height="11.0402" fill="white"/>
<rect x="66.2412" y="221.66" width="11.0402" height="11.0402" fill="white"/>
<rect x="77.2817" y="221.66" width="11.0402" height="11.0402" fill="white"/>
<rect x="88.3222" y="221.66" width="11.0402" height="11.0402" fill="white"/>
<rect x="99.3618" y="221.66" width="11.0402" height="11.0402" fill="white"/>
<rect x="110.402" y="221.66" width="11.0402" height="11.0402" fill="white"/>
<rect x="121.443" y="221.66" width="11.0402" height="11.0402" fill="white"/>
<rect x="132.482" y="221.66" width="11.0402" height="11.0402" fill="white"/>
<rect x="220.804" y="221.66" width="11.0402" height="11.0402" fill="white"/>
<rect x="231.845" y="221.66" width="11.0402" height="11.0402" fill="white"/>
<rect x="242.884" y="221.66" width="11.0402" height="11.0402" fill="white"/>
<rect x="253.926" y="221.66" width="11.0402" height="11.0402" fill="white"/>
<rect x="264.965" y="221.66" width="11.0402" height="11.0402" fill="white"/>
<rect x="276.005" y="221.66" width="11.0402" height="11.0402" fill="white"/>
<rect x="287.045" y="221.66" width="11.0402" height="11.0402" fill="white"/>
<rect x="298.086" y="221.66" width="11.0402" height="11.0402" fill="white"/>
<rect x="309.125" y="221.66" width="11.0402" height="11.0402" fill="white"/>
<rect x="320.166" y="221.66" width="11.0402" height="11.0402" fill="white"/>
<rect x="331.206" y="221.66" width="11.0402" height="11.0402" fill="white"/>
<rect x="342.247" y="221.66" width="11.0402" height="11.0402" fill="white"/>
<rect x="22.0812" y="232.703" width="11.0402" height="11.0402" fill="white"/>
<rect x="33.1207" y="232.703" width="11.0402" height="11.0402" fill="white"/>
<rect x="44.1601" y="232.703" width="11.0402" height="11.0402" fill="white"/>
<rect x="55.2017" y="232.703" width="11.0402" height="11.0402" fill="white"/>
<rect x="66.2412" y="232.703" width="11.0402" height="11.0402" fill="white"/>
<rect x="77.2817" y="232.703" width="11.0402" height="11.0402" fill="white"/>
<rect x="88.3222" y="232.703" width="11.0402" height="11.0402" fill="white"/>
<rect x="99.3618" y="232.703" width="11.0402" height="11.0402" fill="white"/>
<rect x="110.402" y="232.703" width="11.0402" height="11.0402" fill="white"/>
<rect x="121.443" y="232.703" width="11.0402" height="11.0402" fill="white"/>
<rect x="231.845" y="232.703" width="11.0402" height="11.0402" fill="white"/>
<rect x="242.884" y="232.703" width="11.0402" height="11.0402" fill="white"/>
<rect x="253.926" y="232.703" width="11.0402" height="11.0402" fill="white"/>
<rect x="264.965" y="232.703" width="11.0402" height="11.0402" fill="white"/>
<rect x="276.005" y="232.703" width="11.0402" height="11.0402" fill="white"/>
<rect x="287.045" y="232.703" width="11.0402" height="11.0402" fill="white"/>
<rect x="298.086" y="232.703" width="11.0402" height="11.0402" fill="white"/>
<rect x="309.125" y="232.703" width="11.0402" height="11.0402" fill="white"/>
<rect x="320.166" y="232.703" width="11.0402" height="11.0402" fill="white"/>
<rect x="331.206" y="232.703" width="11.0402" height="11.0402" fill="white"/>
<rect x="44.1601" y="243.742" width="11.0402" height="11.0402" fill="white"/>
<rect x="55.2017" y="243.742" width="11.0402" height="11.0402" fill="white"/>
<rect x="66.2412" y="243.742" width="11.0402" height="11.0402" fill="white"/>
<rect x="77.2817" y="243.742" width="11.0402" height="11.0402" fill="white"/>
<rect x="88.3222" y="243.742" width="11.0402" height="11.0402" fill="white"/>
<rect x="99.3618" y="243.742" width="11.0402" height="11.0402" fill="white"/>
<rect x="253.926" y="243.742" width="11.0402" height="11.0402" fill="white"/>
<rect x="264.965" y="243.742" width="11.0402" height="11.0402" fill="white"/>
<rect x="276.005" y="243.742" width="11.0402" height="11.0402" fill="white"/>
<rect x="287.045" y="243.742" width="11.0402" height="11.0402" fill="white"/>
<rect x="298.086" y="243.742" width="11.0402" height="11.0402" fill="white"/>
<rect x="309.125" y="243.742" width="11.0402" height="11.0402" fill="white"/>
<rect x="0.000183105" y="254.783" width="11.0402" height="11.0402" fill="white"/>
<rect x="11.0396" y="254.783" width="11.0402" height="11.0402" fill="white"/>
<rect x="66.2412" y="254.783" width="11.0402" height="11.0402" fill="white"/>
<rect x="77.2817" y="254.783" width="11.0402" height="11.0402" fill="white"/>
<rect x="132.482" y="254.783" width="11.0402" height="11.0402" fill="white"/>
<rect x="143.523" y="254.783" width="11.0402" height="11.0402" fill="white"/>
<rect x="209.764" y="254.783" width="11.0402" height="11.0402" fill="white"/>
<rect x="220.804" y="254.783" width="11.0402" height="11.0402" fill="white"/>
<rect x="276.005" y="254.783" width="11.0402" height="11.0402" fill="white"/>
<rect x="287.045" y="254.783" width="11.0402" height="11.0402" fill="white"/>
<rect x="342.247" y="254.783" width="11.0402" height="11.0402" fill="white"/>
<rect x="0.000183105" y="265.822" width="11.0402" height="11.0402" fill="white"/>
<rect x="11.0396" y="265.822" width="11.0402" height="11.0402" fill="white"/>
<rect x="22.0812" y="265.822" width="11.0402" height="11.0402" fill="white"/>
<rect x="33.1207" y="265.822" width="11.0402" height="11.0402" fill="white"/>
<rect x="110.402" y="265.822" width="11.0402" height="11.0402" fill="white"/>
<rect x="121.443" y="265.822" width="11.0402" height="11.0402" fill="white"/>
<rect x="132.482" y="265.822" width="11.0402" height="11.0402" fill="white"/>
<rect x="143.523" y="265.822" width="11.0402" height="11.0402" fill="white"/>
<rect x="209.764" y="265.822" width="11.0402" height="11.0402" fill="white"/>
<rect x="220.804" y="265.822" width="11.0402" height="11.0402" fill="white"/>
<rect x="231.845" y="265.822" width="11.0402" height="11.0402" fill="white"/>
<rect x="242.884" y="265.822" width="11.0402" height="11.0402" fill="white"/>
<rect x="320.166" y="265.822" width="11.0402" height="11.0402" fill="white"/>
<rect x="331.206" y="265.822" width="11.0402" height="11.0402" fill="white"/>
<rect x="342.247" y="265.822" width="11.0402" height="11.0402" fill="white"/>
<rect x="0.000183105" y="276.863" width="11.0402" height="11.0402" fill="white"/>
<rect x="11.0396" y="276.863" width="11.0402" height="11.0402" fill="white"/>
<rect x="22.0812" y="276.863" width="11.0402" height="11.0402" fill="white"/>
<rect x="33.1207" y="276.863" width="11.0402" height="11.0402" fill="white"/>
<rect x="44.1601" y="276.863" width="11.0402" height="11.0402" fill="white"/>
<rect x="55.2017" y="276.863" width="11.0402" height="11.0402" fill="white"/>
<rect x="88.3222" y="276.863" width="11.0402" height="11.0402" fill="white"/>
<rect x="99.3618" y="276.863" width="11.0402" height="11.0402" fill="white"/>
<rect x="110.402" y="276.863" width="11.0402" height="11.0402" fill="white"/>
<rect x="121.443" y="276.863" width="11.0402" height="11.0402" fill="white"/>
<rect x="132.482" y="276.863" width="11.0402" height="11.0402" fill="white"/>
<rect x="143.523" y="276.863" width="11.0402" height="11.0402" fill="white"/>
<rect x="154.562" y="276.863" width="11.0402" height="11.0402" fill="white"/>
<rect x="165.604" y="276.863" width="11.0402" height="11.0402" fill="white"/>
<rect x="176.643" y="276.863" width="11.0402" height="11.0402" fill="white"/>
<rect x="187.684" y="276.863" width="11.0402" height="11.0402" fill="white"/>
<rect x="198.724" y="276.863" width="11.0402" height="11.0402" fill="white"/>
<rect x="209.764" y="276.863" width="11.0402" height="11.0402" fill="white"/>
<rect x="220.804" y="276.863" width="11.0402" height="11.0402" fill="white"/>
<rect x="231.845" y="276.863" width="11.0402" height="11.0402" fill="white"/>
<rect x="242.884" y="276.863" width="11.0402" height="11.0402" fill="white"/>
<rect x="253.926" y="276.863" width="11.0402" height="11.0402" fill="white"/>
<rect x="264.965" y="276.863" width="11.0402" height="11.0402" fill="white"/>
<rect x="298.086" y="276.863" width="11.0402" height="11.0402" fill="white"/>
<rect x="309.125" y="276.863" width="11.0402" height="11.0402" fill="white"/>
<rect x="320.166" y="276.863" width="11.0402" height="11.0402" fill="white"/>
<rect x="331.206" y="276.863" width="11.0402" height="11.0402" fill="white"/>
<rect x="342.247" y="276.863" width="11.0402" height="11.0402" fill="white"/>
<rect x="0.000183105" y="287.902" width="11.0402" height="11.0402" fill="white"/>
<rect x="11.0396" y="287.902" width="11.0402" height="11.0402" fill="white"/>
<rect x="22.0812" y="287.902" width="11.0402" height="11.0402" fill="white"/>
<rect x="33.1207" y="287.902" width="11.0402" height="11.0402" fill="white"/>
<rect x="44.1601" y="287.902" width="11.0402" height="11.0402" fill="white"/>
<rect x="55.2017" y="287.902" width="11.0402" height="11.0402" fill="white"/>
<rect x="88.3222" y="287.902" width="11.0402" height="11.0402" fill="white"/>
<rect x="99.3618" y="287.902" width="11.0402" height="11.0402" fill="white"/>
<rect x="110.402" y="287.902" width="11.0402" height="11.0402" fill="white"/>
<rect x="121.443" y="287.902" width="11.0402" height="11.0402" fill="white"/>
<rect x="132.482" y="287.902" width="11.0402" height="11.0402" fill="white"/>
<rect x="143.523" y="287.902" width="11.0402" height="11.0402" fill="white"/>
<rect x="154.562" y="287.902" width="11.0402" height="11.0402" fill="white"/>
<rect x="165.604" y="287.902" width="11.0402" height="11.0402" fill="white"/>
<rect x="176.643" y="287.902" width="11.0402" height="11.0402" fill="white"/>
<rect x="187.684" y="287.902" width="11.0402" height="11.0402" fill="white"/>
<rect x="198.724" y="287.902" width="11.0402" height="11.0402" fill="white"/>
<rect x="209.764" y="287.902" width="11.0402" height="11.0402" fill="white"/>
<rect x="220.804" y="287.902" width="11.0402" height="11.0402" fill="white"/>
<rect x="231.845" y="287.902" width="11.0402" height="11.0402" fill="white"/>
<rect x="242.884" y="287.902" width="11.0402" height="11.0402" fill="white"/>
<rect x="253.926" y="287.902" width="11.0402" height="11.0402" fill="white"/>
<rect x="264.965" y="287.902" width="11.0402" height="11.0402" fill="white"/>
<rect x="298.086" y="287.902" width="11.0402" height="11.0402" fill="white"/>
<rect x="309.125" y="287.902" width="11.0402" height="11.0402" fill="white"/>
<rect x="320.166" y="287.902" width="11.0402" height="11.0402" fill="white"/>
<rect x="331.206" y="287.902" width="11.0402" height="11.0402" fill="white"/>
<rect x="342.247" y="287.902" width="11.0402" height="11.0402" fill="white"/>
<rect x="0.000183105" y="298.943" width="11.0402" height="11.0402" fill="white"/>
<rect x="11.0396" y="298.943" width="11.0402" height="11.0402" fill="white"/>
<rect x="22.0812" y="298.943" width="11.0402" height="11.0402" fill="white"/>
<rect x="33.1207" y="298.943" width="11.0402" height="11.0402" fill="white"/>
<rect x="44.1601" y="298.943" width="11.0402" height="11.0402" fill="white"/>
<rect x="55.2017" y="298.943" width="11.0402" height="11.0402" fill="white"/>
<rect x="88.3222" y="298.943" width="11.0402" height="11.0402" fill="white"/>
<rect x="99.3618" y="298.943" width="11.0402" height="11.0402" fill="white"/>
<rect x="110.402" y="298.943" width="11.0402" height="11.0402" fill="white"/>
<rect x="121.443" y="298.943" width="11.0402" height="11.0402" fill="white"/>
<rect x="132.482" y="298.943" width="11.0402" height="11.0402" fill="white"/>
<rect x="143.523" y="298.943" width="11.0402" height="11.0402" fill="white"/>
<rect x="209.764" y="298.943" width="11.0402" height="11.0402" fill="white"/>
<rect x="220.804" y="298.943" width="11.0402" height="11.0402" fill="white"/>
<rect x="231.845" y="298.943" width="11.0402" height="11.0402" fill="white"/>
<rect x="242.884" y="298.943" width="11.0402" height="11.0402" fill="white"/>
<rect x="253.926" y="298.943" width="11.0402" height="11.0402" fill="white"/>
<rect x="264.965" y="298.943" width="11.0402" height="11.0402" fill="white"/>
<rect x="298.086" y="298.943" width="11.0402" height="11.0402" fill="white"/>
<rect x="309.125" y="298.943" width="11.0402" height="11.0402" fill="white"/>
<rect x="320.166" y="298.943" width="11.0402" height="11.0402" fill="white"/>
<rect x="331.206" y="298.943" width="11.0402" height="11.0402" fill="white"/>
<rect x="342.247" y="298.943" width="11.0402" height="11.0402" fill="white"/>
<rect x="0.000183105" y="309.982" width="11.0402" height="11.0402" fill="white"/>
<rect x="11.0396" y="309.982" width="11.0402" height="11.0402" fill="white"/>
<rect x="22.0812" y="309.982" width="11.0402" height="11.0402" fill="white"/>
<rect x="33.1207" y="309.982" width="11.0402" height="11.0402" fill="white"/>
<rect x="44.1601" y="309.982" width="11.0402" height="11.0402" fill="white"/>
<rect x="55.2017" y="309.982" width="11.0402" height="11.0402" fill="white"/>
<rect x="88.3222" y="309.982" width="11.0402" height="11.0402" fill="white"/>
<rect x="99.3618" y="309.982" width="11.0402" height="11.0402" fill="white"/>
<rect x="110.402" y="309.982" width="11.0402" height="11.0402" fill="white"/>
<rect x="121.443" y="309.982" width="11.0402" height="11.0402" fill="white"/>
<rect x="132.482" y="309.982" width="11.0402" height="11.0402" fill="white"/>
<rect x="143.523" y="309.982" width="11.0402" height="11.0402" fill="white"/>
<rect x="209.764" y="309.982" width="11.0402" height="11.0402" fill="white"/>
<rect x="220.804" y="309.982" width="11.0402" height="11.0402" fill="white"/>
<rect x="231.845" y="309.982" width="11.0402" height="11.0402" fill="white"/>
<rect x="242.884" y="309.982" width="11.0402" height="11.0402" fill="white"/>
<rect x="253.926" y="309.982" width="11.0402" height="11.0402" fill="white"/>
<rect x="264.965" y="309.982" width="11.0402" height="11.0402" fill="white"/>
<rect x="298.086" y="309.982" width="11.0402" height="11.0402" fill="white"/>
<rect x="309.125" y="309.982" width="11.0402" height="11.0402" fill="white"/>
<rect x="320.166" y="309.982" width="11.0402" height="11.0402" fill="white"/>
<rect x="331.206" y="309.982" width="11.0402" height="11.0402" fill="white"/>
<rect x="342.247" y="309.982" width="11.0402" height="11.0402" fill="white"/>
<rect x="11.0396" y="321.023" width="11.0402" height="11.0402" fill="white"/>
<rect x="22.0812" y="321.023" width="11.0402" height="11.0402" fill="white"/>
<rect x="33.1207" y="321.023" width="11.0402" height="11.0402" fill="white"/>
<rect x="44.1601" y="321.023" width="11.0402" height="11.0402" fill="white"/>
<rect x="55.2017" y="321.023" width="11.0402" height="11.0402" fill="white"/>
<rect x="88.3222" y="321.023" width="11.0402" height="11.0402" fill="white"/>
<rect x="99.3618" y="321.023" width="11.0402" height="11.0402" fill="white"/>
<rect x="110.402" y="321.023" width="11.0402" height="11.0402" fill="white"/>
<rect x="121.443" y="321.023" width="11.0402" height="11.0402" fill="white"/>
<rect x="132.482" y="321.023" width="11.0402" height="11.0402" fill="white"/>
<rect x="143.523" y="321.023" width="11.0402" height="11.0402" fill="white"/>
<rect x="209.764" y="321.023" width="11.0402" height="11.0402" fill="white"/>
<rect x="220.804" y="321.023" width="11.0402" height="11.0402" fill="white"/>
<rect x="231.845" y="321.023" width="11.0402" height="11.0402" fill="white"/>
<rect x="242.884" y="321.023" width="11.0402" height="11.0402" fill="white"/>
<rect x="253.926" y="321.023" width="11.0402" height="11.0402" fill="white"/>
<rect x="264.965" y="321.023" width="11.0402" height="11.0402" fill="white"/>
<rect x="298.086" y="321.023" width="11.0402" height="11.0402" fill="white"/>
<rect x="309.125" y="321.023" width="11.0402" height="11.0402" fill="white"/>
<rect x="320.166" y="321.023" width="11.0402" height="11.0402" fill="white"/>
<rect x="331.206" y="321.023" width="11.0402" height="11.0402" fill="white"/>
<rect x="342.247" y="321.023" width="11.0402" height="11.0402" fill="white"/>
<rect x="22.0812" y="332.064" width="11.0402" height="11.0402" fill="white"/>
<rect x="33.1207" y="332.064" width="11.0402" height="11.0402" fill="white"/>
<rect x="44.1601" y="332.064" width="11.0402" height="11.0402" fill="white"/>
<rect x="55.2017" y="332.064" width="11.0402" height="11.0402" fill="white"/>
<rect x="88.3222" y="332.064" width="11.0402" height="11.0402" fill="white"/>
<rect x="99.3618" y="332.064" width="11.0402" height="11.0402" fill="white"/>
<rect x="110.402" y="332.064" width="11.0402" height="11.0402" fill="white"/>
<rect x="121.443" y="332.064" width="11.0402" height="11.0402" fill="white"/>
<rect x="231.845" y="332.064" width="11.0402" height="11.0402" fill="white"/>
<rect x="242.884" y="332.064" width="11.0402" height="11.0402" fill="white"/>
<rect x="253.926" y="332.064" width="11.0402" height="11.0402" fill="white"/>
<rect x="264.965" y="332.064" width="11.0402" height="11.0402" fill="white"/>
<rect x="298.086" y="332.064" width="11.0402" height="11.0402" fill="white"/>
<rect x="309.125" y="332.064" width="11.0402" height="11.0402" fill="white"/>
<rect x="320.166" y="332.064" width="11.0402" height="11.0402" fill="white"/>
<rect x="331.206" y="332.064" width="11.0402" height="11.0402" fill="white"/>
<rect x="44.1601" y="343.104" width="11.0402" height="11.0402" fill="white"/>
<rect x="55.2017" y="343.104" width="11.0402" height="11.0402" fill="white"/>
<rect x="88.3222" y="343.104" width="11.0402" height="11.0402" fill="white"/>
<rect x="99.3618" y="343.104" width="11.0402" height="11.0402" fill="white"/>
<rect x="253.926" y="343.104" width="11.0402" height="11.0402" fill="white"/>
<rect x="264.965" y="343.104" width="11.0402" height="11.0402" fill="white"/>
<rect x="298.086" y="343.104" width="11.0402" height="11.0402" fill="white"/>
<rect x="309.125" y="343.104" width="11.0402" height="11.0402" fill="white"/>
</svg>
