<svg width="321" height="316" viewBox="0 0 321 316" fill="none" xmlns="http://www.w3.org/2000/svg">
<path d="M158.007 3.26555V6.08458H152.369H146.731V8.90361V11.7226H141.093H135.455V14.5417V17.3607H132.636H129.817V20.1797V22.9988H124.179H118.541V25.8178V28.6368H112.903H107.265V31.4559V34.2749H104.446H101.627V37.0939V39.913H98.8076H95.9885V70.9223V101.932H101.627H107.265V70.9223V39.913H112.903H118.541V37.0939V34.2749H124.179H129.817V39.913V45.551H135.455H141.093V39.913V34.2749H143.912H146.731V37.0939V39.913H149.55H152.369V34.2749V28.6368H146.731H141.093V25.8178V22.9988H143.912H146.731V20.1797V17.3607H152.369H158.007V22.9988V28.6368H160.826H163.645V31.4559V34.2749H169.283H174.921V37.0939V39.913H180.559H186.198V42.732V45.551H189.017H191.836V39.913V34.2749H189.017H186.198V31.4559V28.6368H191.836H197.474V31.4559V34.2749H203.112H208.75V37.0939V39.913H211.569H214.388V42.732V45.551H217.207H220.026V73.7413V101.932H222.845H225.664V68.1033V34.2749H222.845H220.026V31.4559V28.6368H214.388H208.75V25.8178V22.9988H203.112H197.474V20.1797V17.3607H191.836H186.198V14.5417V11.7226H183.378H180.559V8.90361V6.08458H174.921H169.283V3.26555V0.446518H163.645H158.007V3.26555ZM169.283 14.5417V17.3607H172.102H174.921V20.1797V22.9988H180.559H186.198V25.8178V28.6368H180.559H174.921V25.8178V22.9988H172.102H169.283V20.1797V17.3607H163.645H158.007V14.5417V11.7226H163.645H169.283V14.5417ZM141.093 31.4559V34.2749H135.455H129.817V31.4559V28.6368H135.455H141.093V31.4559Z" fill="white"/>
<path d="M112.903 48.3711V51.1902H115.722H118.541V54.0092V56.8282H121.36H124.179V59.6473V62.4663H129.817H135.455V65.2853V68.1044H141.093H146.731V70.9234V73.7424H152.369H158.007V101.933V130.123H163.645H169.283V101.933V73.7424H174.921H180.559V70.9234V68.1044H186.197H191.835V65.2853V62.4663H194.654H197.474V59.6473V56.8282H203.112H208.75V51.1902V45.5521H203.112H197.474V48.3711V51.1902H194.654H191.835V54.0092V56.8282H186.197H180.559V59.6473V62.4663H174.921H169.283V65.2853V68.1044H163.645H158.007V65.2853V62.4663H152.369H146.731V59.6473V56.8282H141.093H135.455V54.0092V51.1902H129.817H124.179V48.3711V45.5521H118.541H112.903V48.3711Z" fill="white"/>
<path d="M124.179 96.2934V101.932H121.36H118.541V104.751V107.57H110.084H101.626V113.208V118.846H98.8074H95.9884V121.665V124.484H93.1694H90.3503V132.941V141.398H93.1694H95.9884V144.217V147.036H90.3503H84.7123V149.855V152.674H81.8933H79.0742V155.493V158.312H76.2552H73.4362V161.131V163.95H70.6171H67.7981V172.407V180.864H70.6171H73.4362V186.502V192.141H70.6171H67.7981V200.598V209.055H70.6171H73.4362V206.236V203.417H76.2552H79.0742V197.779V192.141H87.5313H95.9884V189.321V186.502H98.8074H101.626V183.683V180.864H104.445H107.265V166.769V152.674H110.084H112.903V149.855V147.036H118.541H124.179V144.217V141.398H126.998H129.817V132.941V124.484H132.636H135.455V121.665V118.846H132.636H129.817V110.389V101.932H132.636H135.455V96.2934V90.6554H129.817H124.179V96.2934ZM112.903 121.665V124.484H118.541H124.179V127.303V130.122H121.36H118.541V132.941V135.76H112.903H107.265V132.941V130.122H104.445H101.626V127.303V124.484H104.445H107.265V121.665V118.846H110.084H112.903V121.665ZM90.3503 161.131V163.95H95.9884H101.626V166.769V169.588H98.8074H95.9884V172.407V175.226H87.5313H79.0742V169.588V163.95H81.8933H84.7123V161.131V158.312H87.5313H90.3503V161.131Z" fill="#17FF3D"/>
<path d="M191.836 99.1125V107.57H194.655H197.474V113.208V118.846H194.655H191.836V124.484V130.122H194.655H197.474V135.76V141.398H200.293H203.112V144.217V147.036H205.931H208.75V149.855V152.674H214.388H220.026V158.312V163.95H217.207H214.388V166.769V169.588H217.207H220.026V175.226V180.864H222.845H225.664V183.683V186.502H228.483H231.302V189.321V192.141H239.759H248.216V197.779V203.417H251.035H253.854V206.236V209.055H256.673H259.492V200.598V192.141H256.673H253.854V186.502V180.864H256.673H259.492V175.226V169.588H256.673H253.854V163.95V158.312H251.035H248.216V155.493V152.674H245.397H242.578V149.855V147.036H236.94H231.302V132.941V118.846H228.483H225.664V116.027V113.208H222.845H220.026V110.389V107.57H214.388H208.75V104.751V101.932H205.931H203.112V99.1125V96.2935H200.293H197.474V93.4744V90.6554H194.655H191.836V99.1125ZM220.026 124.484V130.122H222.845H225.664V132.941V135.76H220.026H214.388V138.579V141.398H211.569H208.75V135.76V130.122H205.931H203.112V127.303V124.484H208.75H214.388V121.665V118.846H217.207H220.026V124.484ZM242.578 163.95V169.588H245.397H248.216V172.407V175.226H242.578H236.94V178.045V180.864H234.121H231.302V175.226V169.588H228.483H225.664V166.769V163.95H231.302H236.94V161.131V158.312H239.759H242.578V163.95Z" fill="#17FF3D"/>
<path d="M180.559 127.304V130.123H177.74H174.921V132.942V135.761H163.645H152.369V132.942V130.123H143.912H135.455V132.942V135.761H138.274H141.093V138.58V141.399H146.731H152.369V144.218V147.037H163.645H174.921V144.218V141.399H180.559H186.197V132.942V124.485H183.378H180.559V127.304Z" fill="white"/>
<path d="M56.522 172.409V175.228H50.8839H45.2458V178.047V180.866H39.6078H33.9697V183.685V186.504H28.3317H22.6936V189.323V192.142H19.8746H17.0555V194.961V197.78H11.4175H5.77942V200.599V203.418H2.96039H0.141357V240.065V276.713H2.96039H5.77942V279.532V282.351H11.4175H17.0555V285.17V287.989H19.8746H22.6936V290.808V293.627H28.3317H33.9697V296.446V299.265H39.6078H45.2458V302.084V304.903H50.8839H56.522V307.722V310.541H59.341H62.16V313.047V315.553H64.9791H67.7981V313.047V310.541H73.4362H79.0742V307.722V304.903H84.7123H90.3503V302.084V299.265H95.9884H101.626V296.446V293.627H104.445H107.265V290.808V287.989H112.903H118.541V285.17V282.351H124.179H129.817V279.532V276.713H126.998H124.179V273.894V271.075H141.093H158.007V268.256V265.437H160.826H163.645V262.618V259.799H166.464H169.283V262.618V265.437H172.102H174.921V268.256V271.075H189.016H203.112V273.894V276.713H200.293H197.474V279.532V282.351H203.112H208.75V285.17V287.989H211.569H214.388V290.808V293.627H220.026H225.664V296.446V299.265H231.302H236.94V302.084V304.903H242.578H248.216V307.722V310.541H251.035H253.854V313.047V315.553H256.673H259.492V313.047V310.541H265.13H270.768V307.722V304.903H276.406H282.044V302.084V299.265H287.682H293.321V296.446V293.627H296.14H298.959V290.808V287.989H304.597H310.235V285.17V282.351H315.56H320.884V240.065V197.78H315.56H310.235V194.961V192.142H304.597H298.959V189.323V186.504H296.14H293.321V183.685V180.866H287.682H282.044V178.047V175.228H276.406H270.768V172.409V169.59H267.949H265.13V175.228V180.866H267.949H270.768V183.685V186.504H276.406H282.044V189.323V192.142H284.863H287.682V194.961V197.78H293.321H298.959V200.599V203.418H304.597H310.235V206.237V209.056H313.054H315.873V240.065V271.075H313.054H310.235V265.437V259.799H304.597H298.959V262.618V265.437H293.321H287.682V268.256V271.075H282.044H276.406V273.894V276.713H273.587H270.768V279.532V282.351H273.587H276.406V285.17V287.989H279.225H282.044V290.808V293.627H276.406H270.768V296.446V299.265H265.13H259.492V302.084V304.903H256.673H253.854V302.084V299.265H251.035H248.216V296.446V293.627H242.578H236.94V290.808V287.989H231.302H225.664V285.17V282.351H220.026H214.388V279.532V276.713H211.569H208.75V273.894V271.075H205.931H203.112V268.256V265.437H205.931H208.75V262.618V259.799H220.026H231.302V254.161V248.522H220.026H208.75V245.703V242.884H205.931H203.112V240.065V237.246H186.197H169.283V242.884V248.522H166.464H163.645V245.703V242.884H160.826H158.007V240.065V237.246H141.093H124.179V240.065V242.884H121.36H118.541V245.703V248.522H110.084H101.626V254.161V259.799H110.084H118.541V262.618V265.437H121.36H124.179V268.256V271.075H121.36H118.541V273.894V276.713H112.903H107.265V279.532V282.351H101.626H95.9884V285.17V287.989H93.1694H90.3503V290.808V293.627H84.7123H79.0742V296.446V299.265H67.7981H56.522V296.446V293.627H50.8839H45.2458V290.808V287.989H50.8839H56.522V282.351V276.713H50.8839H45.2458V273.894V271.075H42.4268H39.6078V268.256V265.437H33.9697H28.3317V262.618V259.799H22.6936H17.0555V265.437V271.075H14.2365H11.4175V240.065V209.056H14.2365H17.0555V214.694V220.332H22.6936H28.3317V223.151V225.97H22.6936H17.0555V231.608V237.246H22.6936H28.3317V231.608V225.97H33.9697H39.6078V228.789V231.608H42.4268H45.2458V234.427V237.246H50.8839H56.522V240.065V242.884H59.341H62.16V268.256V293.627H67.7981H73.4362V268.256V242.884H76.2552H79.0742V240.065V237.246H81.8932H84.7123V234.427V231.608H90.3503H95.9884V228.789V225.97H101.626H107.265V223.151V220.332H112.903H118.541V217.513V214.694H115.722H112.903V211.875V209.056H110.084H107.265V211.875V214.694H101.626H95.9884V217.513V220.332H90.3503H84.7123V223.151V225.97H81.8932H79.0742V228.789V231.608H67.7981H56.522V228.789V225.97H53.7029H50.8839V223.151V220.332H45.2458H39.6078V217.513V214.694H33.9697H28.3317V211.875V209.056H22.6936H17.0555V206.237V203.418H19.8746H22.6936V200.599V197.78H28.3317H33.9697V194.961V192.142H39.6078H45.2458V189.323V186.504H50.8839H56.522V183.685V180.866H59.341H62.16V175.228V169.59H59.341H56.522V172.409ZM146.731 251.341V259.799H141.093H135.455V251.341V242.884H141.093H146.731V251.341ZM197.474 245.703V248.522H194.654H191.835V254.161V259.799H186.197H180.559V251.341V242.884H189.016H197.474V245.703ZM28.3317 273.894V276.713H33.9697H39.6078V279.532V282.351H42.4268H45.2458V285.17V287.989H39.6078H33.9697V285.17V282.351H31.1507H28.3317V279.532V276.713H22.6936H17.0555V273.894V271.075H22.6936H28.3317V273.894ZM310.235 273.894V276.713H304.597H298.959V279.532V282.351H296.14H293.321V285.17V287.989H287.682H282.044V285.17V282.351H284.863H287.682V279.532V276.713H293.321H298.959V273.894V271.075H304.597H310.235V273.894Z" fill="white"/>
<path d="M107.265 189.322V192.141H104.445H101.626V194.96V197.779H104.445H107.265V200.598V203.417H112.903H118.541V206.236V209.055H121.36H124.179V220.331V231.607H126.998H129.817V214.693V197.779H124.179H118.541V194.96V192.141H115.722H112.903V189.322V186.503H110.084H107.265V189.322Z" fill="white"/>
<path d="M214.388 189.323V192.142H211.569H208.75V194.961V197.78H203.112H197.474V200.599V203.418H194.655H191.836V214.694V225.97H197.474H203.112V217.513V209.056H205.931H208.75V214.694V220.332H214.388H220.026V223.151V225.97H225.664H231.302V228.789V231.608H234.121H236.94V234.427V237.246H242.578H248.216V240.065V242.884H251.035H253.854V268.256V293.627H259.492H265.13V268.256V242.884H267.95H270.769V240.065V237.246H273.588H276.407V234.427V231.608H282.045H287.683V228.789V225.97H293.321H298.959V231.608V237.246H304.597H310.235V231.608V225.97H304.597H298.959V223.151V220.332H304.597H310.235V217.513V214.694H307.416H304.597V211.875V209.056H301.778H298.959V211.875V214.694H293.321H287.683V217.513V220.332H282.045H276.407V223.151V225.97H273.588H270.769V228.789V231.608H259.492H248.216V228.789V225.97H242.578H236.94V223.151V220.332H234.121H231.302V217.513V214.694H225.664H220.026V211.875V209.056H214.388H208.75V206.237V203.418H214.388H220.026V200.599V197.78H222.845H225.664V194.961V192.142H222.845H220.026V189.323V186.504H217.207H214.388V189.323Z" fill="white"/>
<path d="M17.0557 248.522V254.16H22.6937H28.3318V248.522V242.884H22.6937H17.0557V248.522Z" fill="white"/>
<path d="M298.958 248.522V254.16H304.597H310.235V248.522V242.884H304.597H298.958V248.522Z" fill="white"/>
</svg>
