<svg width="1205" height="288" viewBox="0 0 1205 288" fill="none" xmlns="http://www.w3.org/2000/svg">
<path d="M16.3814 125.184H8.3657V117.734H0.546509V62.1484H8.25729V109.735H16.2798C16.3136 114.889 16.3475 120.037 16.3814 125.191V125.184Z" fill="#A1A3A7"/>
<path d="M40.1236 30.3285V22.4922H87.574V30.315C71.7527 30.315 55.9246 30.315 40.1033 30.315L40.1168 30.3353L40.1236 30.3285Z" fill="#A1A3A7"/>
<path d="M119.413 62.162H127.246V109.566H119.386L119.426 109.607C119.426 93.7849 119.426 77.9633 119.426 62.1484L119.406 62.1688L119.413 62.162Z" fill="#A1A3A7"/>
<path d="M87.54 141.405V148.977H40.1574V141.398L40.1167 141.439C55.938 141.439 71.7661 141.439 87.5875 141.439L87.5468 141.405H87.54Z" fill="#A1A3A7"/>
<path d="M119.393 109.565V125.299H111.621V133.223H103.781L103.815 133.278C103.808 130.636 103.795 127.995 103.788 125.353H111.458V109.728C114.114 109.687 116.77 109.647 119.426 109.599L119.386 109.559L119.393 109.565Z" fill="#A1A3A7"/>
<path d="M8.26434 62.1486V45.9138H16.4223L16.3952 45.8867C16.3478 51.2441 16.3004 56.6083 16.2529 61.9657C13.5901 62.0267 10.9204 62.0876 8.25757 62.1486H8.26434Z" fill="#A1A3A7"/>
<path d="M103.782 133.231V141.406C98.0628 141.406 92.8048 141.406 87.5469 141.406L87.5875 141.44L87.6485 133.38C92.8997 133.312 98.1509 133.238 103.402 133.17L103.571 133.366L103.815 133.278L103.782 133.224V133.231Z" fill="#A1A3A7"/>
<path d="M111.276 45.8992H119.414C119.414 51.5072 119.414 56.8308 119.414 62.1543L119.434 62.134C116.792 62.0866 114.149 62.0324 111.507 61.985C111.432 56.6141 111.364 51.2431 111.29 45.8789L111.27 45.8992H111.276Z" fill="#A1A3A7"/>
<path d="M87.5736 30.3154H103.808V38.4768L103.829 38.4565C103.652 38.3549 103.524 38.3955 103.429 38.5716C98.1912 38.47 92.9535 38.3616 87.7227 38.26C87.6752 35.6118 87.6278 32.9636 87.5872 30.3086L87.5736 30.3154Z" fill="#A1A3A7"/>
<path d="M23.8623 38.4554C24.0046 35.814 24.1469 33.1793 24.3027 30.3211C29.6759 30.3211 34.9 30.3211 40.1241 30.3211L40.1105 30.3008C40.0631 32.9761 40.0224 35.6446 39.975 38.32C34.6018 38.3606 29.2219 38.4012 23.8488 38.4419L23.8623 38.4554Z" fill="#A1A3A7"/>
<path d="M40.1579 141.399H24.3365C24.1875 138.568 24.0452 135.913 23.9029 133.258L23.8555 133.305C29.2625 133.319 34.6628 133.339 40.0698 133.353C40.0833 136.048 40.1037 138.744 40.1172 141.44L40.1579 141.399Z" fill="#A1A3A7"/>
<path d="M23.9032 133.25H16.3889V125.184C18.8417 125.184 21.2945 125.184 23.8558 125.184V133.291L23.9032 133.243V133.25Z" fill="#A1A3A7"/>
<path d="M16.4227 45.9072V38.4569C18.9907 38.4569 21.43 38.4569 23.8625 38.4569L23.8489 38.4434V45.8801H16.3956L16.4227 45.9072Z" fill="#A1A3A7"/>
<path d="M16.3942 45.8848H23.8476V38.4481C29.2207 38.4074 34.6006 38.3668 39.9738 38.3262L40.1567 38.482C40.15 40.9541 40.1432 43.4262 40.1296 45.8983C34.9733 45.8983 29.8237 45.8983 24.4912 45.8983V61.8283H32.1207V53.8498H40.0754V45.8442L87.5801 45.9322L87.5259 45.878V53.9649H95.5551V62.1805H103.828L103.794 62.1467V109.598L103.828 109.564H95.8533C95.6974 112.571 95.5755 114.962 95.4399 117.489C92.6958 117.624 90.2972 117.746 87.5259 117.881V125.176L87.5598 125.142C71.7384 125.156 55.9171 125.169 40.089 125.183C40.089 122.785 40.089 120.387 40.089 117.549H31.8903V109.815H24.1254C24.2541 112.565 24.3693 115.098 24.4845 117.631V125.149H40.1229C40.1229 127.858 40.1229 130.574 40.1229 133.283L40.0416 133.358C34.6345 133.344 29.2343 133.324 23.8272 133.31C23.8272 130.764 23.8272 128.217 23.8272 125.203C21.266 125.203 18.8132 125.203 16.3604 125.203C16.3265 120.049 16.2926 114.901 16.2587 109.747L16.4214 109.557H23.7391V62.1805H16.3942L16.2249 61.9638C16.2723 56.6064 16.3197 51.2422 16.3671 45.8848H16.3942ZM71.7926 54.1614H48.3689V117.549H79.1646V54.1546C76.495 54.1546 74.1438 54.1546 71.7926 54.1546V54.1614Z" fill="black"/>
<path d="M8.25757 62.1419C10.9204 62.0809 13.5901 62.0199 16.2529 61.959L16.4223 62.1757C16.4291 77.9635 16.4359 93.7513 16.4427 109.539L16.28 109.729C13.7256 109.729 11.1644 109.729 8.25757 109.729V62.1419Z" fill="black"/>
<path d="M39.9743 38.3278C40.0217 35.6525 40.0624 32.9839 40.1098 30.3086C55.9312 30.3086 71.7593 30.3086 87.5806 30.3086C87.628 32.9568 87.6755 35.605 87.7161 38.26L87.5332 38.4768C71.7389 38.4768 55.9447 38.4768 40.1505 38.4836L39.9675 38.3278H39.9743Z" fill="black"/>
<path d="M111.506 61.9911C114.149 62.0386 116.792 62.0927 119.434 62.1402C119.434 77.9618 119.434 93.7834 119.434 109.598C116.778 109.639 114.122 109.68 111.466 109.727L111.276 109.571V62.1672L111.513 61.9844L111.506 61.9911Z" fill="black"/>
<path d="M40.1104 141.439C40.0969 138.743 40.0765 136.047 40.063 133.352L40.1443 133.277C55.9453 133.277 71.7463 133.277 87.5473 133.277L87.6422 133.386C87.6219 136.075 87.6015 138.757 87.5812 141.446C71.7599 141.446 55.9318 141.446 40.1104 141.446V141.439Z" fill="black"/>
<path d="M87.5469 125.176V117.882C90.3181 117.746 92.71 117.624 95.4609 117.489C95.5897 114.963 95.7184 112.572 95.8743 109.564C98.5981 109.564 101.22 109.564 103.849 109.564C103.829 114.827 103.815 120.09 103.795 125.359C103.802 128 103.815 130.642 103.822 133.283L103.578 133.371L103.409 133.175C103.267 130.642 103.124 128.116 102.968 125.176H87.5604H87.5469Z" fill="#17FF3D"/>
<path d="M103.781 125.353C103.802 120.091 103.815 114.828 103.835 109.559L103.802 109.592C106.288 109.586 108.775 109.572 111.268 109.565L111.458 109.721C111.458 114.76 111.458 119.799 111.458 125.346H103.788L103.781 125.353Z" fill="black"/>
<path d="M87.5469 125.176H102.955C103.118 128.116 103.26 130.642 103.395 133.175C98.1441 133.243 92.8929 133.318 87.6485 133.385L87.5537 133.277C87.5672 130.568 87.574 127.852 87.5875 125.143L87.5537 125.176H87.5469Z" fill="black"/>
<path d="M104.228 46.1431C106.586 46.055 108.937 45.967 111.295 45.8789C111.37 51.2499 111.437 56.6208 111.512 61.985L111.275 62.1679C108.788 62.1611 106.295 62.1543 103.808 62.1476L103.842 62.1814C103.971 56.8376 104.099 51.4869 104.228 46.1431Z" fill="black"/>
<path d="M104.229 46.1444C104.1 51.4883 103.971 56.8389 103.842 62.1828C101.308 62.1828 98.781 62.1828 95.5693 62.1828C95.5693 59.1891 95.5693 56.5748 95.5693 53.9604C95.5693 51.346 95.5829 48.7384 95.5897 46.1308C97.995 46.0022 100.394 45.8802 102.962 45.7448C103.131 43.1643 103.287 40.8683 103.436 38.5722C103.531 38.3961 103.66 38.3555 103.836 38.4571C103.971 41.024 104.1 43.5842 104.235 46.1512L104.229 46.1444Z" fill="#17FF3D"/>
<path d="M103.808 38.4695H111.268V45.8995L111.288 45.8792C108.931 45.9672 106.579 46.0553 104.221 46.1433L103.822 38.4492L103.801 38.4695H103.808Z" fill="#A1A3A7"/>
<path d="M71.7935 54.1562H79.1655V117.544C71.3802 117.544 63.5407 117.544 55.7012 117.544C55.796 114.896 55.8841 112.248 55.979 109.6H71.7597V61.9519C71.7664 59.3579 71.78 56.7571 71.7868 54.163L71.7935 54.1562Z" fill="#17FF3D"/>
<path d="M55.9861 109.606C55.8912 112.255 55.8032 114.903 55.7083 117.551C53.3571 117.551 51.0059 117.551 48.377 117.551V54.1562C56.1148 54.1562 63.9611 54.1562 71.8007 54.1562C71.7939 56.7503 71.7803 59.3511 71.7736 61.9452C66.5291 61.9452 61.2847 61.9452 55.9929 61.9452V109.606H55.9861Z" fill="#FEFEFE"/>
<path d="M87.5808 125.137C87.5673 127.846 87.5605 130.562 87.5469 133.271C71.7459 133.271 55.9449 133.271 40.1439 133.271C40.1439 130.562 40.1439 127.846 40.1439 125.137L40.1033 125.177C55.9246 125.164 71.7459 125.15 87.574 125.137H87.5808Z" fill="#17FF3D"/>
<path d="M87.5404 38.4766C87.5539 40.9622 87.5742 43.4479 87.5878 45.9336C71.7529 45.9065 55.918 45.8726 40.0831 45.8455L40.1373 45.8997C40.1441 43.4276 40.1509 40.9555 40.1644 38.4833C55.9587 38.4833 71.7529 38.4833 87.5471 38.4766H87.5404Z" fill="#FEFEFE"/>
<path d="M16.4495 109.537C16.4427 93.7494 16.436 77.9616 16.4292 62.1738C18.7804 62.1738 21.1316 62.1738 23.7741 62.1738V109.537H16.4563H16.4495Z" fill="#FEFEFE"/>
<path d="M103.801 62.1484C106.288 62.1552 108.781 62.162 111.268 62.1688C111.268 77.9701 111.268 93.7714 111.268 109.573C108.781 109.579 106.295 109.593 103.801 109.6C103.801 93.7849 103.801 77.9633 103.801 62.1484Z" fill="#17FF3D"/>
<path d="M40.0827 45.8457V53.8513H32.128V61.8299H24.4985V45.8999C29.831 45.8999 34.9874 45.8999 40.1369 45.8999L40.0827 45.8457Z" fill="#FEFEFE"/>
<path d="M40.1504 125.136H24.512C24.512 122.441 24.512 120.03 24.512 117.618C26.9783 117.591 29.4447 117.564 31.9111 117.537H40.1097C40.1097 120.375 40.1097 122.773 40.1097 125.17L40.1504 125.13V125.136Z" fill="#17FF3D"/>
<path d="M87.5334 45.8789C90.2166 45.9602 92.8998 46.0482 95.583 46.1295C95.583 48.7439 95.5695 51.3515 95.5627 53.9658C93.0895 53.9658 90.6164 53.9658 87.5334 53.9658V45.8789Z" fill="#FEFEFE"/>
<path d="M31.9185 117.543C29.4521 117.57 26.9858 117.598 24.5194 117.625C24.4042 115.092 24.2822 112.558 24.1603 109.809H31.9253V117.543H31.9185Z" fill="#FEFEFE"/>
<path d="M55.9858 109.607V61.9453C61.2777 61.9453 66.5221 61.9453 71.7665 61.9453C71.7665 77.5976 71.7665 93.2499 71.7665 109.6H55.9858V109.607Z" fill="black"/>
<path d="M103.748 38.5586H87.6626V46.0359H103.748V38.5586Z" fill="black"/>
<path d="M215.185 255.876H207.17V248.426H199.351V192.84H207.061V240.427H215.084C215.118 245.581 215.152 250.728 215.185 255.883V255.876Z" fill="#A1A3A7"/>
<path d="M238.928 161.02V153.184H286.378V161.006C270.557 161.006 254.729 161.006 238.907 161.006L238.921 161.027L238.928 161.02Z" fill="#A1A3A7"/>
<path d="M318.217 192.853H326.05V240.257H318.19L318.23 240.298C318.23 224.476 318.23 208.655 318.23 192.84L318.21 192.86L318.217 192.853Z" fill="#A1A3A7"/>
<path d="M286.344 272.097V279.669H238.961V272.09L238.921 272.13C254.742 272.13 270.57 272.13 286.391 272.13L286.351 272.097H286.344Z" fill="#A1A3A7"/>
<path d="M318.196 240.257V255.99H310.425V263.915H302.585L302.619 263.969C302.612 261.327 302.599 258.686 302.592 256.045H310.262V240.419C312.918 240.379 315.574 240.338 318.23 240.291L318.19 240.25L318.196 240.257Z" fill="#A1A3A7"/>
<path d="M207.068 192.84V176.605H215.226L215.199 176.578C215.152 181.936 215.104 187.3 215.057 192.657C212.394 192.718 209.724 192.779 207.062 192.84H207.068Z" fill="#A1A3A7"/>
<path d="M302.585 263.922V272.097C296.867 272.097 291.609 272.097 286.351 272.097L286.391 272.131L286.452 264.071C291.704 264.004 296.955 263.929 302.206 263.861L302.375 264.058L302.619 263.97L302.585 263.916V263.922Z" fill="#A1A3A7"/>
<path d="M310.08 176.591H318.218C318.218 182.199 318.218 187.522 318.218 192.846L318.238 192.825C315.596 192.778 312.953 192.724 310.311 192.676C310.236 187.305 310.168 181.934 310.094 176.57L310.073 176.591H310.08Z" fill="#A1A3A7"/>
<path d="M286.378 161.007H302.612V169.168L302.633 169.148C302.456 169.046 302.328 169.087 302.233 169.263C296.995 169.161 291.758 169.053 286.527 168.951C286.479 166.303 286.432 163.655 286.391 161L286.378 161.007Z" fill="#A1A3A7"/>
<path d="M222.666 169.147C222.809 166.505 222.951 163.871 223.107 161.013C228.48 161.013 233.704 161.013 238.928 161.013L238.915 160.992C238.867 163.668 238.826 166.336 238.779 169.011C233.406 169.052 228.026 169.093 222.653 169.133L222.666 169.147Z" fill="#A1A3A7"/>
<path d="M238.962 272.09H223.141C222.991 269.259 222.849 266.604 222.707 263.949L222.659 263.997C228.067 264.01 233.467 264.03 238.874 264.044C238.887 266.74 238.908 269.435 238.921 272.131L238.962 272.09Z" fill="#A1A3A7"/>
<path d="M222.707 263.942H215.193V255.875C217.646 255.875 220.099 255.875 222.66 255.875V263.982L222.707 263.935V263.942Z" fill="#A1A3A7"/>
<path d="M215.227 176.599V169.148C217.795 169.148 220.234 169.148 222.667 169.148L222.653 169.135V176.571H215.2L215.227 176.599Z" fill="#A1A3A7"/>
<path d="M215.198 176.576H222.652V169.139C228.025 169.099 233.405 169.058 238.778 169.018L238.961 169.173C238.954 171.645 238.947 174.118 238.934 176.59C233.777 176.59 228.628 176.59 223.295 176.59V192.52H230.925V184.541H238.879V176.536L286.384 176.624L286.33 176.569V184.656H294.359V192.872H302.632L302.598 192.838V240.289L302.632 240.256H294.657C294.501 243.263 294.379 245.654 294.244 248.18C291.5 248.315 289.101 248.437 286.33 248.573V255.867L286.364 255.833C270.542 255.847 254.721 255.86 238.893 255.874C238.893 253.476 238.893 251.079 238.893 248.241H230.694V240.506H222.929C223.058 243.256 223.173 245.789 223.288 248.322V255.84H238.927C238.927 258.549 238.927 261.265 238.927 263.974L238.846 264.049C233.438 264.035 228.038 264.015 222.631 264.002C222.631 261.455 222.631 258.908 222.631 255.894C220.07 255.894 217.617 255.894 215.164 255.894C215.13 250.74 215.097 245.593 215.063 240.438L215.225 240.249H222.543V192.872H215.198L215.029 192.655C215.076 187.298 215.124 181.934 215.171 176.576H215.198ZM270.597 184.853H247.173V248.241H277.969V184.846C275.299 184.846 272.948 184.846 270.597 184.846V184.853Z" fill="black"/>
<path d="M207.062 192.833C209.724 192.772 212.394 192.711 215.057 192.65L215.226 192.867C215.233 208.655 215.24 224.443 215.247 240.23L215.084 240.42C212.53 240.42 209.968 240.42 207.062 240.42V192.833Z" fill="black"/>
<path d="M238.778 169.019C238.826 166.344 238.866 163.675 238.914 161C254.735 161 270.563 161 286.385 161C286.432 163.648 286.48 166.296 286.52 168.951L286.337 169.168C270.543 169.168 254.749 169.168 238.955 169.175L238.772 169.019H238.778Z" fill="black"/>
<path d="M310.311 192.683C312.953 192.73 315.596 192.784 318.238 192.832C318.238 208.653 318.238 224.475 318.238 240.29C315.582 240.33 312.926 240.371 310.27 240.418L310.08 240.263V192.859L310.317 192.676L310.311 192.683Z" fill="black"/>
<path d="M238.914 272.13C238.901 269.435 238.881 266.739 238.867 264.043L238.948 263.969C254.749 263.969 270.55 263.969 286.351 263.969L286.446 264.077C286.426 266.766 286.406 269.448 286.385 272.137C270.564 272.137 254.736 272.137 238.914 272.137V272.13Z" fill="black"/>
<path d="M286.351 255.868V248.573C289.122 248.438 291.514 248.316 294.265 248.18C294.394 245.654 294.522 243.263 294.678 240.256C297.402 240.256 300.024 240.256 302.653 240.256C302.633 245.518 302.619 250.781 302.599 256.05C302.606 258.692 302.619 261.333 302.626 263.975L302.382 264.063L302.213 263.866C302.071 261.333 301.928 258.807 301.772 255.868H286.364H286.351Z" fill="#17FF3D"/>
<path d="M302.585 256.045C302.606 250.782 302.619 245.519 302.639 240.25L302.606 240.284C305.092 240.277 307.579 240.264 310.072 240.257L310.262 240.413C310.262 245.452 310.262 250.491 310.262 256.038H302.592L302.585 256.045Z" fill="black"/>
<path d="M286.351 255.868H301.759C301.921 258.807 302.064 261.334 302.199 263.867C296.948 263.934 291.697 264.009 286.452 264.077L286.358 263.968C286.371 261.259 286.378 258.543 286.391 255.834L286.358 255.868H286.351Z" fill="black"/>
<path d="M303.032 176.834C305.39 176.746 307.741 176.658 310.099 176.57C310.174 181.941 310.241 187.312 310.316 192.676L310.079 192.859C307.592 192.853 305.099 192.846 302.612 192.839L302.646 192.873C302.775 187.529 302.903 182.178 303.032 176.834Z" fill="black"/>
<path d="M303.033 176.836C302.904 182.18 302.775 187.53 302.647 192.874C300.112 192.874 297.585 192.874 294.373 192.874C294.373 189.881 294.373 187.266 294.373 184.652C294.373 182.037 294.387 179.43 294.394 176.822C296.799 176.694 299.198 176.572 301.766 176.436C301.935 173.856 302.091 171.56 302.24 169.264C302.335 169.088 302.464 169.047 302.64 169.148C302.775 171.715 302.904 174.276 303.04 176.843L303.033 176.836Z" fill="#17FF3D"/>
<path d="M302.612 169.161H310.072V176.591L310.093 176.571C307.735 176.659 305.383 176.747 303.025 176.835L302.626 169.141L302.605 169.161H302.612Z" fill="#A1A3A7"/>
<path d="M270.597 184.848H277.969V248.236C270.184 248.236 262.345 248.236 254.505 248.236C254.6 245.588 254.688 242.939 254.783 240.291H270.564V192.643C270.57 190.049 270.584 187.448 270.591 184.854L270.597 184.848Z" fill="#17FF3D"/>
<path d="M254.79 240.298C254.695 242.946 254.607 245.594 254.512 248.243C252.161 248.243 249.81 248.243 247.181 248.243V184.848C254.919 184.848 262.765 184.848 270.605 184.848C270.598 187.442 270.584 190.043 270.578 192.637C265.333 192.637 260.089 192.637 254.797 192.637V240.298H254.79Z" fill="#FEFEFE"/>
<path d="M286.385 255.828C286.371 258.537 286.364 261.253 286.351 263.962C270.55 263.962 254.749 263.962 238.948 263.962C238.948 261.253 238.948 258.537 238.948 255.828L238.907 255.869C254.729 255.855 270.55 255.842 286.378 255.828H286.385Z" fill="#17FF3D"/>
<path d="M286.344 169.168C286.358 171.654 286.378 174.139 286.392 176.625C270.557 176.598 254.722 176.564 238.887 176.537L238.941 176.591C238.948 174.119 238.955 171.647 238.968 169.175C254.763 169.175 270.557 169.175 286.351 169.168H286.344Z" fill="#FEFEFE"/>
<path d="M215.253 240.229C215.247 224.441 215.24 208.653 215.233 192.865C217.584 192.865 219.936 192.865 222.578 192.865V240.229H215.26H215.253Z" fill="#FEFEFE"/>
<path d="M302.605 192.84C305.092 192.847 307.586 192.853 310.072 192.86C310.072 208.661 310.072 224.463 310.072 240.264C307.586 240.271 305.099 240.284 302.605 240.291C302.605 224.476 302.605 208.655 302.605 192.84Z" fill="#17FF3D"/>
<path d="M238.887 176.537V184.543H230.932V192.521H223.303V176.591C228.635 176.591 233.791 176.591 238.941 176.591L238.887 176.537Z" fill="#FEFEFE"/>
<path d="M238.954 255.828H223.316C223.316 253.132 223.316 250.721 223.316 248.31C225.782 248.283 228.249 248.256 230.715 248.229H238.914C238.914 251.066 238.914 253.464 238.914 255.862L238.954 255.821V255.828Z" fill="#17FF3D"/>
<path d="M286.337 176.57C289.021 176.652 291.704 176.74 294.387 176.821C294.387 179.435 294.373 182.043 294.367 184.657C291.894 184.657 289.42 184.657 286.337 184.657V176.57Z" fill="#FEFEFE"/>
<path d="M230.723 248.235C228.256 248.262 225.79 248.289 223.323 248.316C223.208 245.783 223.086 243.25 222.964 240.5H230.729V248.235H230.723Z" fill="#FEFEFE"/>
<path d="M254.79 240.298V192.637C260.082 192.637 265.326 192.637 270.571 192.637C270.571 208.289 270.571 223.941 270.571 240.291H254.79V240.298Z" fill="black"/>
<path d="M302.552 169.25H286.466V176.727H302.552V169.25Z" fill="black"/>
<path d="M452.983 175.386H444.967V167.935H437.148V112.35H444.859V159.936H452.881C452.915 165.091 452.949 170.238 452.983 175.392V175.386Z" fill="#A1A3A7"/>
<path d="M476.725 80.5297V72.6934H524.175V80.5161C508.354 80.5161 492.526 80.5161 476.705 80.5161L476.718 80.5364L476.725 80.5297Z" fill="#A1A3A7"/>
<path d="M556.014 112.363H563.847V159.767H555.987L556.028 159.808C556.028 143.986 556.028 128.164 556.028 112.35L556.008 112.37L556.014 112.363Z" fill="#A1A3A7"/>
<path d="M524.141 191.606V199.179H476.759V191.6L476.718 191.64C492.539 191.64 508.367 191.64 524.189 191.64L524.148 191.606H524.141Z" fill="#A1A3A7"/>
<path d="M555.994 159.767V175.5H548.222V183.424H540.383L540.416 183.479C540.41 180.837 540.396 178.196 540.389 175.554H548.059V159.929C550.716 159.888 553.372 159.848 556.028 159.8L555.987 159.76L555.994 159.767Z" fill="#A1A3A7"/>
<path d="M444.866 112.348V96.113H453.024L452.997 96.0859C452.949 101.443 452.902 106.808 452.854 112.165C450.191 112.226 447.522 112.287 444.859 112.348H444.866Z" fill="#A1A3A7"/>
<path d="M540.383 183.432V191.607C534.664 191.607 529.406 191.607 524.148 191.607L524.189 191.641L524.25 183.581C529.501 183.513 534.752 183.439 540.003 183.371L540.173 183.568L540.417 183.479L540.383 183.425V183.432Z" fill="#A1A3A7"/>
<path d="M547.878 96.1004H556.015C556.015 101.708 556.015 107.032 556.015 112.356L556.036 112.335C553.393 112.288 550.751 112.234 548.108 112.186C548.033 106.815 547.966 101.444 547.891 96.0801L547.871 96.1004H547.878Z" fill="#A1A3A7"/>
<path d="M524.175 80.5165H540.41V88.678L540.43 88.6576C540.254 88.556 540.125 88.5967 540.03 88.7728C534.793 88.6712 529.555 88.5628 524.324 88.4612C524.277 85.813 524.229 83.1648 524.189 80.5098L524.175 80.5165Z" fill="#A1A3A7"/>
<path d="M460.464 88.6566C460.606 86.0151 460.748 83.3805 460.904 80.5223C466.277 80.5223 471.501 80.5223 476.725 80.5223L476.712 80.502C476.664 83.1773 476.624 85.8458 476.576 88.5211C471.203 88.5618 465.823 88.6024 460.45 88.6431L460.464 88.6566Z" fill="#A1A3A7"/>
<path d="M476.759 191.6H460.938C460.789 188.769 460.647 186.114 460.504 183.459L460.457 183.506C465.864 183.52 471.264 183.54 476.671 183.554C476.685 186.249 476.705 188.945 476.719 191.641L476.759 191.6Z" fill="#A1A3A7"/>
<path d="M460.505 183.451H452.99V175.385C455.443 175.385 457.896 175.385 460.457 175.385V183.492L460.505 183.445V183.451Z" fill="#A1A3A7"/>
<path d="M453.024 96.1083V88.6581C455.592 88.6581 458.031 88.6581 460.464 88.6581L460.45 88.6445V96.0812H452.997L453.024 96.1083Z" fill="#A1A3A7"/>
<path d="M452.996 96.086H460.449V88.6493C465.822 88.6086 471.202 88.568 476.575 88.5273L476.758 88.6831C476.751 91.1553 476.745 93.6274 476.731 96.0995C471.575 96.0995 466.425 96.0995 461.093 96.0995V112.03H468.722V104.051H476.677V96.0453L524.181 96.1334L524.127 96.0792V104.166H532.157V112.382H540.43L540.396 112.348V159.799L540.43 159.765H532.455C532.299 162.773 532.177 165.163 532.041 167.69C529.297 167.825 526.899 167.947 524.127 168.083V175.377L524.161 175.343C508.34 175.357 492.518 175.37 476.69 175.384C476.69 172.986 476.69 170.589 476.69 167.751H468.492V160.016H460.727C460.855 162.766 460.971 165.299 461.086 167.832V175.35H476.724C476.724 178.059 476.724 180.775 476.724 183.484L476.643 183.559C471.236 183.545 465.836 183.525 460.429 183.511C460.429 180.965 460.429 178.418 460.429 175.404C457.867 175.404 455.415 175.404 452.962 175.404C452.928 170.25 452.894 165.102 452.86 159.948L453.023 159.759H460.341V112.382H452.996L452.826 112.165C452.874 106.808 452.921 101.443 452.969 96.086H452.996ZM508.394 104.363H484.97V167.751H515.766V104.356C513.096 104.356 510.745 104.356 508.394 104.356V104.363Z" fill="black"/>
<path d="M444.859 112.343C447.522 112.282 450.191 112.221 452.854 112.16L453.024 112.377C453.03 128.165 453.037 143.952 453.044 159.74L452.881 159.93C450.327 159.93 447.766 159.93 444.859 159.93V112.343Z" fill="black"/>
<path d="M476.576 88.529C476.623 85.8536 476.664 83.1851 476.711 80.5098C492.533 80.5098 508.361 80.5098 524.182 80.5098C524.229 83.158 524.277 85.8062 524.318 88.4612L524.135 88.678C508.34 88.678 492.546 88.678 476.752 88.6847L476.569 88.529H476.576Z" fill="black"/>
<path d="M548.108 112.192C550.75 112.24 553.393 112.294 556.036 112.341C556.036 128.163 556.036 143.985 556.036 159.799C553.379 159.84 550.723 159.881 548.067 159.928L547.878 159.772V112.368L548.115 112.186L548.108 112.192Z" fill="black"/>
<path d="M476.712 191.64C476.698 188.944 476.678 186.249 476.664 183.553L476.746 183.479C492.547 183.479 508.348 183.479 524.149 183.479L524.244 183.587C524.223 186.276 524.203 188.958 524.183 191.647C508.361 191.647 492.533 191.647 476.712 191.647V191.64Z" fill="black"/>
<path d="M524.148 175.377V168.083C526.919 167.947 529.311 167.825 532.062 167.69C532.191 165.164 532.32 162.773 532.476 159.766C535.199 159.766 537.822 159.766 540.451 159.766C540.43 165.028 540.417 170.291 540.396 175.56C540.403 178.202 540.417 180.843 540.424 183.485L540.18 183.573L540.01 183.376C539.868 180.843 539.726 178.317 539.57 175.377H524.162H524.148Z" fill="#17FF3D"/>
<path d="M540.383 175.554C540.403 170.292 540.416 165.029 540.437 159.76L540.403 159.794C542.89 159.787 545.376 159.773 547.87 159.767L548.059 159.922C548.059 164.961 548.059 170 548.059 175.548H540.389L540.383 175.554Z" fill="black"/>
<path d="M524.148 175.378H539.556C539.719 178.317 539.861 180.843 539.997 183.376C534.745 183.444 529.494 183.519 524.25 183.586L524.155 183.478C524.169 180.769 524.175 178.053 524.189 175.344L524.155 175.378H524.148Z" fill="black"/>
<path d="M540.83 96.3442C543.187 96.2562 545.539 96.1681 547.897 96.0801C547.971 101.451 548.039 106.822 548.113 112.186L547.876 112.369C545.39 112.362 542.896 112.356 540.409 112.349L540.443 112.383C540.572 107.039 540.701 101.688 540.83 96.3442Z" fill="black"/>
<path d="M540.83 96.3456C540.701 101.689 540.573 107.04 540.444 112.384C537.91 112.384 535.382 112.384 532.171 112.384C532.171 109.39 532.171 106.776 532.171 104.162C532.171 101.547 532.184 98.9396 532.191 96.332C534.596 96.2033 536.995 96.0814 539.563 95.946C539.732 93.3655 539.888 91.0694 540.037 88.7734C540.132 88.5973 540.261 88.5567 540.437 88.6583C540.573 91.2252 540.701 93.7854 540.837 96.3523L540.83 96.3456Z" fill="#17FF3D"/>
<path d="M540.409 88.6707H547.87V96.1006L547.89 96.0803C545.532 96.1684 543.181 96.2564 540.823 96.3445L540.423 88.6504L540.403 88.6707H540.409Z" fill="#A1A3A7"/>
<path d="M508.395 104.357H515.767V167.746C507.982 167.746 500.142 167.746 492.303 167.746C492.397 165.097 492.485 162.449 492.58 159.801H508.361V112.153C508.368 109.559 508.381 106.958 508.388 104.364L508.395 104.357Z" fill="#17FF3D"/>
<path d="M492.588 159.808C492.493 162.456 492.405 165.104 492.31 167.752C489.959 167.752 487.607 167.752 484.978 167.752V104.357C492.716 104.357 500.563 104.357 508.402 104.357C508.395 106.951 508.382 109.552 508.375 112.146C503.131 112.146 497.886 112.146 492.594 112.146V159.808H492.588Z" fill="#FEFEFE"/>
<path d="M524.182 175.338C524.169 178.047 524.162 180.763 524.148 183.472C508.347 183.472 492.546 183.472 476.745 183.472C476.745 180.763 476.745 178.047 476.745 175.338L476.705 175.379C492.526 175.365 508.347 175.351 524.175 175.338H524.182Z" fill="#17FF3D"/>
<path d="M524.142 88.6777C524.155 91.1634 524.176 93.6491 524.189 96.1348C508.354 96.1077 492.519 96.0738 476.685 96.0467L476.739 96.1009C476.745 93.6288 476.752 91.1566 476.766 88.6845C492.56 88.6845 508.354 88.6845 524.149 88.6777H524.142Z" fill="#FEFEFE"/>
<path d="M453.051 159.738C453.044 143.951 453.037 128.163 453.031 112.375C455.382 112.375 457.733 112.375 460.375 112.375V159.738H453.058H453.051Z" fill="#FEFEFE"/>
<path d="M540.403 112.35C542.889 112.356 545.383 112.363 547.87 112.37C547.87 128.171 547.87 143.973 547.87 159.774C545.383 159.781 542.896 159.794 540.403 159.801C540.403 143.986 540.403 128.164 540.403 112.35Z" fill="#17FF3D"/>
<path d="M476.684 96.0469V104.053H468.729V112.031H461.1V96.1011C466.432 96.1011 471.589 96.1011 476.738 96.1011L476.684 96.0469Z" fill="#FEFEFE"/>
<path d="M476.752 175.338H461.113C461.113 172.642 461.113 170.231 461.113 167.82C463.58 167.792 466.046 167.765 468.513 167.738H476.711C476.711 170.576 476.711 172.974 476.711 175.371L476.752 175.331V175.338Z" fill="#17FF3D"/>
<path d="M524.135 96.0801C526.818 96.1614 529.501 96.2494 532.184 96.3307C532.184 98.945 532.171 101.553 532.164 104.167C529.691 104.167 527.218 104.167 524.135 104.167V96.0801Z" fill="#FEFEFE"/>
<path d="M468.52 167.744C466.054 167.772 463.587 167.799 461.121 167.826C461.006 165.293 460.884 162.76 460.762 160.01H468.527V167.744H468.52Z" fill="#FEFEFE"/>
<path d="M492.587 159.808V112.146C497.879 112.146 503.124 112.146 508.368 112.146C508.368 127.799 508.368 143.451 508.368 159.801H492.587V159.808Z" fill="black"/>
<path d="M540.349 88.7578H524.264V96.2352H540.349V88.7578Z" fill="black"/>
<path d="M834.491 263.684H826.476V256.234H818.656V200.648H826.367V248.235H834.39C834.424 253.389 834.457 258.537 834.491 263.691V263.684Z" fill="#A1A3A7"/>
<path d="M858.233 168.829V160.992H905.684V168.815C889.863 168.815 874.034 168.815 858.213 168.815L858.227 168.835L858.233 168.829Z" fill="#A1A3A7"/>
<path d="M937.523 200.662H945.356V248.066H937.496L937.536 248.107C937.536 232.285 937.536 216.463 937.536 200.648L937.516 200.669L937.523 200.662Z" fill="#A1A3A7"/>
<path d="M905.65 279.905V287.477H858.267V279.898L858.227 279.939C874.048 279.939 889.876 279.939 905.697 279.939L905.657 279.905H905.65Z" fill="#A1A3A7"/>
<path d="M937.502 248.065V263.799H929.731V271.723H921.891L921.925 271.778C921.918 269.136 921.905 266.495 921.898 263.853H929.568V248.228C932.224 248.187 934.88 248.147 937.536 248.099L937.496 248.059L937.502 248.065Z" fill="#A1A3A7"/>
<path d="M826.374 200.647V184.412H834.532L834.505 184.385C834.458 189.742 834.41 195.106 834.363 200.464C831.7 200.525 829.03 200.586 826.367 200.647H826.374Z" fill="#A1A3A7"/>
<path d="M921.891 271.731V279.906C916.173 279.906 910.915 279.906 905.657 279.906L905.697 279.94L905.758 271.88C911.01 271.812 916.261 271.738 921.512 271.67L921.681 271.866L921.925 271.778L921.891 271.724V271.731Z" fill="#A1A3A7"/>
<path d="M929.386 184.399H937.524C937.524 190.007 937.524 195.331 937.524 200.654L937.544 200.634C934.902 200.587 932.259 200.532 929.616 200.485C929.542 195.114 929.474 189.743 929.4 184.379L929.379 184.399H929.386Z" fill="#A1A3A7"/>
<path d="M905.684 168.815H921.918V176.977L921.938 176.956C921.762 176.855 921.634 176.896 921.539 177.072C916.301 176.97 911.063 176.862 905.833 176.76C905.785 174.112 905.738 171.464 905.697 168.809L905.684 168.815Z" fill="#A1A3A7"/>
<path d="M841.972 176.955C842.114 174.314 842.257 171.679 842.413 168.821C847.786 168.821 853.01 168.821 858.234 168.821L858.22 168.801C858.173 171.476 858.132 174.145 858.085 176.82C852.712 176.861 847.332 176.901 841.959 176.942L841.972 176.955Z" fill="#A1A3A7"/>
<path d="M858.268 279.899H842.446C842.297 277.068 842.155 274.413 842.013 271.758L841.965 271.805C847.372 271.819 852.773 271.839 858.18 271.853C858.193 274.548 858.214 277.244 858.227 279.94L858.268 279.899Z" fill="#A1A3A7"/>
<path d="M842.013 271.75H834.499V263.684C836.952 263.684 839.404 263.684 841.966 263.684V271.791L842.013 271.743V271.75Z" fill="#A1A3A7"/>
<path d="M834.533 184.407V176.957C837.101 176.957 839.54 176.957 841.972 176.957L841.959 176.943V184.38H834.506L834.533 184.407Z" fill="#A1A3A7"/>
<path d="M834.504 184.385H841.957V176.948C847.331 176.907 852.71 176.867 858.084 176.826L858.267 176.982C858.26 179.454 858.253 181.926 858.239 184.398C853.083 184.398 847.934 184.398 842.601 184.398V200.328H850.231V192.35H858.185V184.344L905.69 184.432L905.636 184.378V192.465H913.665V200.681H921.938L921.904 200.647V248.098L921.938 248.064H913.963C913.807 251.071 913.685 253.462 913.55 255.989C910.806 256.124 908.407 256.246 905.636 256.381V263.676L905.67 263.642C889.848 263.656 874.027 263.669 858.199 263.683C858.199 261.285 858.199 258.887 858.199 256.049H850V248.315H842.235C842.364 251.065 842.479 253.598 842.594 256.131V263.649H858.233C858.233 266.358 858.233 269.074 858.233 271.783L858.151 271.858C852.744 271.844 847.344 271.824 841.937 271.81C841.937 269.264 841.937 266.717 841.937 263.703C839.376 263.703 836.923 263.703 834.47 263.703C834.436 258.549 834.402 253.401 834.369 248.247L834.531 248.057H841.849V200.681H834.504L834.335 200.464C834.382 195.106 834.43 189.742 834.477 184.385H834.504ZM889.902 192.661H866.479V256.049H897.274V192.655C894.605 192.655 892.254 192.655 889.902 192.655V192.661Z" fill="black"/>
<path d="M826.367 200.642C829.03 200.581 831.7 200.52 834.363 200.459L834.532 200.676C834.539 216.463 834.546 232.251 834.552 248.039L834.39 248.229C831.835 248.229 829.274 248.229 826.367 248.229V200.642Z" fill="black"/>
<path d="M858.084 176.828C858.132 174.152 858.172 171.484 858.22 168.809C874.041 168.809 889.869 168.809 905.69 168.809C905.738 171.457 905.785 174.105 905.826 176.76L905.643 176.977C889.849 176.977 874.055 176.977 858.26 176.984L858.077 176.828H858.084Z" fill="black"/>
<path d="M929.616 200.491C932.259 200.539 934.901 200.593 937.544 200.64C937.544 216.462 937.544 232.283 937.544 248.098C934.888 248.139 932.232 248.18 929.576 248.227L929.386 248.071V200.667L929.623 200.484L929.616 200.491Z" fill="black"/>
<path d="M858.22 279.939C858.207 277.243 858.186 274.547 858.173 271.852L858.254 271.777C874.055 271.777 889.856 271.777 905.657 271.777L905.752 271.886C905.732 274.575 905.711 277.257 905.691 279.946C889.87 279.946 874.042 279.946 858.22 279.946V279.939Z" fill="black"/>
<path d="M905.657 263.676V256.382C908.428 256.246 910.82 256.124 913.571 255.989C913.7 253.463 913.828 251.072 913.984 248.064C916.708 248.064 919.33 248.064 921.959 248.064C921.939 253.327 921.925 258.59 921.905 263.859C921.912 266.5 921.925 269.142 921.932 271.783L921.688 271.871L921.519 271.675C921.376 269.142 921.234 266.616 921.078 263.676H905.67H905.657Z" fill="#17FF3D"/>
<path d="M921.891 263.853C921.911 258.591 921.925 253.328 921.945 248.059L921.911 248.092C924.398 248.086 926.885 248.072 929.378 248.065L929.568 248.221C929.568 253.26 929.568 258.299 929.568 263.846H921.898L921.891 263.853Z" fill="black"/>
<path d="M905.657 263.676H921.065C921.227 266.616 921.37 269.142 921.505 271.675C916.254 271.743 911.003 271.818 905.758 271.885L905.663 271.777C905.677 269.068 905.684 266.352 905.697 263.643L905.663 263.676H905.657Z" fill="black"/>
<path d="M922.338 184.643C924.696 184.555 927.047 184.467 929.405 184.379C929.48 189.75 929.547 195.121 929.622 200.485L929.385 200.668C926.898 200.661 924.405 200.654 921.918 200.648L921.952 200.681C922.08 195.338 922.209 189.987 922.338 184.643Z" fill="black"/>
<path d="M922.339 184.644C922.21 189.988 922.081 195.339 921.952 200.683C919.418 200.683 916.891 200.683 913.679 200.683C913.679 197.689 913.679 195.075 913.679 192.46C913.679 189.846 913.693 187.238 913.7 184.631C916.105 184.502 918.504 184.38 921.072 184.245C921.241 181.664 921.397 179.368 921.546 177.072C921.641 176.896 921.769 176.855 921.946 176.957C922.081 179.524 922.21 182.084 922.345 184.651L922.339 184.644Z" fill="#17FF3D"/>
<path d="M921.918 176.97H929.378V184.399L929.398 184.379C927.04 184.467 924.689 184.555 922.331 184.643L921.931 176.949L921.911 176.97H921.918Z" fill="#A1A3A7"/>
<path d="M889.903 192.656H897.275V256.044C889.49 256.044 881.651 256.044 873.811 256.044C873.906 253.396 873.994 250.748 874.089 248.1H889.87V200.452C889.876 197.858 889.89 195.257 889.897 192.663L889.903 192.656Z" fill="#17FF3D"/>
<path d="M874.096 248.106C874.001 250.755 873.913 253.403 873.818 256.051C871.467 256.051 869.116 256.051 866.487 256.051V192.656C874.225 192.656 882.071 192.656 889.911 192.656C889.904 195.25 889.89 197.851 889.883 200.445C884.639 200.445 879.395 200.445 874.103 200.445V248.106H874.096Z" fill="#FEFEFE"/>
<path d="M905.691 263.637C905.677 266.346 905.67 269.062 905.657 271.771C889.856 271.771 874.055 271.771 858.254 271.771C858.254 269.062 858.254 266.346 858.254 263.637L858.213 263.677C874.034 263.664 889.856 263.65 905.684 263.637H905.691Z" fill="#17FF3D"/>
<path d="M905.65 176.977C905.664 179.462 905.684 181.948 905.698 184.434C889.863 184.407 874.028 184.373 858.193 184.346L858.247 184.4C858.254 181.928 858.261 179.455 858.274 176.983C874.069 176.983 889.863 176.983 905.657 176.977H905.65Z" fill="#FEFEFE"/>
<path d="M834.559 248.037C834.553 232.249 834.546 216.462 834.539 200.674C836.89 200.674 839.241 200.674 841.884 200.674V248.037H834.566H834.559Z" fill="#FEFEFE"/>
<path d="M921.911 200.648C924.398 200.655 926.891 200.662 929.378 200.669C929.378 216.47 929.378 232.271 929.378 248.073C926.891 248.079 924.405 248.093 921.911 248.1C921.911 232.285 921.911 216.463 921.911 200.648Z" fill="#17FF3D"/>
<path d="M858.193 184.346V192.351H850.238V200.33H842.608V184.4C847.941 184.4 853.097 184.4 858.247 184.4L858.193 184.346Z" fill="#FEFEFE"/>
<path d="M858.26 263.636H842.622C842.622 260.941 842.622 258.53 842.622 256.118C845.088 256.091 847.555 256.064 850.021 256.037H858.22C858.22 258.875 858.22 261.273 858.22 263.67L858.26 263.63V263.636Z" fill="#17FF3D"/>
<path d="M905.643 184.379C908.327 184.46 911.01 184.548 913.693 184.63C913.693 187.244 913.679 189.851 913.673 192.466C911.199 192.466 908.726 192.466 905.643 192.466V184.379Z" fill="#FEFEFE"/>
<path d="M850.028 256.043C847.562 256.07 845.096 256.098 842.629 256.125C842.514 253.592 842.392 251.058 842.27 248.309H850.035V256.043H850.028Z" fill="#FEFEFE"/>
<path d="M874.096 248.107V200.445C879.388 200.445 884.632 200.445 889.876 200.445C889.876 216.098 889.876 231.75 889.876 248.1H874.096V248.107Z" fill="black"/>
<path d="M921.858 177.057H905.772V184.534H921.858V177.057Z" fill="black"/>
<path d="M1093.3 131.917H1085.28V124.467H1077.46V68.8809H1085.17V116.468H1093.2C1093.23 121.622 1093.26 126.769 1093.3 131.924V131.917Z" fill="#A1A3A7"/>
<path d="M1117.04 37.0609V29.2246H1164.49V37.0474C1148.67 37.0474 1132.84 37.0474 1117.02 37.0474L1117.03 37.0677L1117.04 37.0609Z" fill="#A1A3A7"/>
<path d="M1196.33 68.8944H1204.16V116.298H1196.3L1196.34 116.339C1196.34 100.517 1196.34 84.6957 1196.34 68.8809L1196.32 68.9012L1196.33 68.8944Z" fill="#A1A3A7"/>
<path d="M1164.46 148.138V155.71H1117.07V148.131L1117.03 148.171C1132.85 148.171 1148.68 148.171 1164.5 148.171L1164.46 148.138H1164.46Z" fill="#A1A3A7"/>
<path d="M1196.31 116.298V132.031H1188.54V139.956H1180.7L1180.73 140.01C1180.73 137.368 1180.71 134.727 1180.71 132.086H1188.38V116.46C1191.03 116.42 1193.69 116.379 1196.34 116.332L1196.3 116.291L1196.31 116.298Z" fill="#A1A3A7"/>
<path d="M1085.18 68.8791V52.6443H1093.34L1093.31 52.6172C1093.26 57.9746 1093.22 63.3388 1093.17 68.6962C1090.51 68.7572 1087.84 68.8181 1085.17 68.8791H1085.18Z" fill="#A1A3A7"/>
<path d="M1180.7 139.963V148.138C1174.98 148.138 1169.72 148.138 1164.46 148.138L1164.5 148.172L1164.57 140.112C1169.82 140.045 1175.07 139.97 1180.32 139.902L1180.49 140.099L1180.73 140.011L1180.7 139.957V139.963Z" fill="#A1A3A7"/>
<path d="M1188.19 52.6316H1196.33C1196.33 58.2397 1196.33 63.5632 1196.33 68.8868L1196.35 68.8664C1193.71 68.819 1191.07 68.7648 1188.42 68.7174C1188.35 63.3465 1188.28 57.9755 1188.21 52.6113L1188.19 52.6316H1188.19Z" fill="#A1A3A7"/>
<path d="M1164.49 37.0478H1180.73V45.2092L1180.75 45.1889C1180.57 45.0873 1180.44 45.1279 1180.35 45.304C1175.11 45.2024 1169.87 45.0941 1164.64 44.9925C1164.59 42.3442 1164.54 39.696 1164.5 37.041L1164.49 37.0478Z" fill="#A1A3A7"/>
<path d="M1100.78 45.1878C1100.92 42.5464 1101.06 39.9117 1101.22 37.0535C1106.59 37.0535 1111.82 37.0535 1117.04 37.0535L1117.03 37.0332C1116.98 39.7085 1116.94 42.3771 1116.89 45.0524C1111.52 45.093 1106.14 45.1337 1100.77 45.1743L1100.78 45.1878Z" fill="#A1A3A7"/>
<path d="M1117.07 148.131H1101.25C1101.1 145.3 1100.96 142.645 1100.82 139.99L1100.77 140.038C1106.18 140.051 1111.58 140.072 1116.99 140.085C1117 142.781 1117.02 145.476 1117.03 148.172L1117.07 148.131Z" fill="#A1A3A7"/>
<path d="M1100.82 139.983H1093.31V131.916C1095.76 131.916 1098.21 131.916 1100.77 131.916V140.023L1100.82 139.976V139.983Z" fill="#A1A3A7"/>
<path d="M1093.34 52.6396V45.1893C1095.91 45.1893 1098.35 45.1893 1100.78 45.1893L1100.77 45.1758V52.6125H1093.31L1093.34 52.6396Z" fill="#A1A3A7"/>
<path d="M1093.31 52.6172H1100.76V45.1805C1106.14 45.1399 1111.52 45.0992 1116.89 45.0586L1117.07 45.2144C1117.07 47.6865 1117.06 50.1586 1117.05 52.6308C1111.89 52.6308 1106.74 52.6308 1101.41 52.6308V68.5608H1109.04V60.5822H1116.99V52.5766L1164.5 52.6646L1164.44 52.6104V60.6974H1172.47V68.913H1180.75L1180.71 68.8791V116.33L1180.75 116.297H1172.77C1172.61 119.304 1172.49 121.695 1172.36 124.221C1169.61 124.356 1167.21 124.478 1164.44 124.614V131.908L1164.48 131.874C1148.66 131.888 1132.83 131.901 1117.01 131.915C1117.01 129.517 1117.01 127.12 1117.01 124.282H1108.81V116.547H1101.04C1101.17 119.297 1101.29 121.83 1101.4 124.363V131.881H1117.04C1117.04 134.59 1117.04 137.306 1117.04 140.015L1116.96 140.09C1111.55 140.076 1106.15 140.056 1100.74 140.043C1100.74 137.496 1100.74 134.949 1100.74 131.935C1098.18 131.935 1095.73 131.935 1093.28 131.935C1093.24 126.781 1093.21 121.634 1093.18 116.479L1093.34 116.29H1100.66V68.913H1093.31L1093.14 68.6962C1093.19 63.3388 1093.24 57.9746 1093.28 52.6172H1093.31ZM1148.71 60.8938H1125.29V124.282H1156.08V60.887C1153.41 60.887 1151.06 60.887 1148.71 60.887V60.8938Z" fill="black"/>
<path d="M1085.17 68.8743C1087.84 68.8133 1090.51 68.7524 1093.17 68.6914L1093.34 68.9081C1093.35 84.6959 1093.35 100.484 1093.36 116.271L1093.2 116.461C1090.64 116.461 1088.08 116.461 1085.17 116.461V68.8743Z" fill="black"/>
<path d="M1116.89 45.0602C1116.94 42.3849 1116.98 39.7163 1117.03 37.041C1132.85 37.041 1148.68 37.041 1164.5 37.041C1164.55 39.6892 1164.59 42.3375 1164.63 44.9925L1164.45 45.2092C1148.66 45.2092 1132.86 45.2092 1117.07 45.216L1116.88 45.0602H1116.89Z" fill="black"/>
<path d="M1188.42 68.7236C1191.07 68.771 1193.71 68.8252 1196.35 68.8726C1196.35 84.6942 1196.35 100.516 1196.35 116.331C1193.7 116.371 1191.04 116.412 1188.38 116.459L1188.19 116.304V68.8997L1188.43 68.7168L1188.42 68.7236Z" fill="black"/>
<path d="M1117.03 148.171C1117.01 145.476 1116.99 142.78 1116.98 140.084L1117.06 140.01C1132.86 140.01 1148.66 140.01 1164.46 140.01L1164.56 140.118C1164.54 142.807 1164.52 145.489 1164.5 148.178C1148.68 148.178 1132.85 148.178 1117.03 148.178V148.171Z" fill="black"/>
<path d="M1164.46 131.909V124.614C1167.24 124.479 1169.63 124.357 1172.38 124.221C1172.51 121.695 1172.64 119.304 1172.79 116.297C1175.52 116.297 1178.14 116.297 1180.77 116.297C1180.75 121.559 1180.73 126.822 1180.71 132.091C1180.72 134.733 1180.73 137.374 1180.74 140.016L1180.5 140.104L1180.33 139.907C1180.18 137.374 1180.04 134.848 1179.89 131.909H1164.48H1164.46Z" fill="#17FF3D"/>
<path d="M1180.7 132.086C1180.72 126.823 1180.73 121.56 1180.75 116.291L1180.72 116.325C1183.21 116.318 1185.69 116.305 1188.19 116.298L1188.38 116.454C1188.38 121.493 1188.38 126.532 1188.38 132.079H1180.71L1180.7 132.086Z" fill="black"/>
<path d="M1164.46 131.909H1179.87C1180.03 134.848 1180.18 137.375 1180.31 139.908C1175.06 139.975 1169.81 140.05 1164.57 140.118L1164.47 140.009C1164.48 137.3 1164.49 134.584 1164.5 131.875L1164.47 131.909H1164.46Z" fill="black"/>
<path d="M1181.15 52.8755C1183.5 52.7874 1185.85 52.6994 1188.21 52.6113C1188.29 57.9823 1188.35 63.3532 1188.43 68.7174L1188.19 68.9003C1185.71 68.8935 1183.21 68.8868 1180.73 68.88L1180.76 68.9138C1180.89 63.57 1181.02 58.2193 1181.15 52.8755Z" fill="black"/>
<path d="M1181.15 52.8768C1181.02 58.2207 1180.89 63.5713 1180.76 68.9152C1178.23 68.9152 1175.7 68.9152 1172.49 68.9152C1172.49 65.9215 1172.49 63.3072 1172.49 60.6928C1172.49 58.0784 1172.5 55.4709 1172.51 52.8633C1174.91 52.7346 1177.31 52.6127 1179.88 52.4772C1180.05 49.8967 1180.2 47.6007 1180.35 45.3046C1180.45 45.1285 1180.58 45.0879 1180.75 45.1895C1180.89 47.7565 1181.02 50.3166 1181.15 52.8836L1181.15 52.8768Z" fill="#17FF3D"/>
<path d="M1180.73 45.202H1188.19V52.6319L1188.21 52.6116C1185.85 52.6996 1183.5 52.7877 1181.14 52.8757L1180.74 45.1816L1180.72 45.202H1180.73Z" fill="#A1A3A7"/>
<path d="M1148.71 60.8887H1156.08V124.277C1148.3 124.277 1140.46 124.277 1132.62 124.277C1132.71 121.629 1132.8 118.98 1132.9 116.332H1148.68V68.6843C1148.68 66.0903 1148.7 63.4895 1148.7 60.8954L1148.71 60.8887Z" fill="#17FF3D"/>
<path d="M1132.9 116.339C1132.81 118.987 1132.72 121.635 1132.63 124.284C1130.27 124.284 1127.92 124.284 1125.29 124.284V60.8887C1133.03 60.8887 1140.88 60.8887 1148.72 60.8887C1148.71 63.4827 1148.7 66.0835 1148.69 68.6776C1143.45 68.6776 1138.2 68.6776 1132.91 68.6776V116.339H1132.9Z" fill="#FEFEFE"/>
<path d="M1164.5 131.869C1164.48 134.578 1164.48 137.294 1164.46 140.003C1148.66 140.003 1132.86 140.003 1117.06 140.003C1117.06 137.294 1117.06 134.578 1117.06 131.869L1117.02 131.91C1132.84 131.896 1148.66 131.883 1164.49 131.869H1164.5Z" fill="#17FF3D"/>
<path d="M1164.46 45.209C1164.47 47.6947 1164.49 50.1803 1164.5 52.666C1148.67 52.6389 1132.84 52.6051 1117 52.578L1117.05 52.6321C1117.06 50.16 1117.07 47.6879 1117.08 45.2158C1132.88 45.2158 1148.67 45.2158 1164.46 45.209H1164.46Z" fill="#FEFEFE"/>
<path d="M1093.37 116.27C1093.36 100.482 1093.35 84.694 1093.35 68.9062C1095.7 68.9062 1098.05 68.9062 1100.69 68.9062V116.27H1093.37H1093.37Z" fill="#FEFEFE"/>
<path d="M1180.72 68.8809C1183.21 68.8876 1185.7 68.8944 1188.19 68.9012C1188.19 84.7025 1188.19 100.504 1188.19 116.305C1185.7 116.312 1183.21 116.325 1180.72 116.332C1180.72 100.517 1180.72 84.6957 1180.72 68.8809Z" fill="#17FF3D"/>
<path d="M1117 52.5781V60.5838H1109.05V68.5623H1101.42V52.6323C1106.75 52.6323 1111.9 52.6323 1117.05 52.6323L1117 52.5781Z" fill="#FEFEFE"/>
<path d="M1117.07 131.869H1101.43C1101.43 129.173 1101.43 126.762 1101.43 124.351C1103.9 124.324 1106.36 124.297 1108.83 124.27H1117.03C1117.03 127.107 1117.03 129.505 1117.03 131.903L1117.07 131.862V131.869Z" fill="#17FF3D"/>
<path d="M1164.45 52.6113C1167.13 52.6926 1169.82 52.7807 1172.5 52.8619C1172.5 55.4763 1172.49 58.0839 1172.48 60.6982C1170.01 60.6982 1167.53 60.6982 1164.45 60.6982V52.6113Z" fill="#FEFEFE"/>
<path d="M1108.84 124.276C1106.37 124.303 1103.9 124.33 1101.44 124.357C1101.32 121.824 1101.2 119.291 1101.08 116.541H1108.84V124.276H1108.84Z" fill="#FEFEFE"/>
<path d="M1132.9 116.339V68.6777C1138.19 68.6777 1143.44 68.6777 1148.68 68.6777C1148.68 84.33 1148.68 99.9824 1148.68 116.332H1132.9V116.339Z" fill="black"/>
<path d="M1180.66 45.2891H1164.58V52.7664H1180.66V45.2891Z" fill="black"/>
<path d="M681.018 103.192H673.002V95.7419H665.183V40.1562H672.894V87.7431H680.916C680.95 92.8973 680.984 98.0448 681.018 103.199V103.192Z" fill="#A1A3A7"/>
<path d="M704.76 8.33632V0.5H752.21V8.32277C736.389 8.32277 720.561 8.32277 704.739 8.32277L704.753 8.34309L704.76 8.33632Z" fill="#A1A3A7"/>
<path d="M784.049 40.1698H791.882V87.5737H784.022L784.063 87.6144C784.063 71.7927 784.063 55.9711 784.063 40.1562L784.042 40.1766L784.049 40.1698Z" fill="#A1A3A7"/>
<path d="M752.176 119.413V126.985H704.794V119.406L704.753 119.447C720.574 119.447 736.402 119.447 752.224 119.447L752.183 119.413H752.176Z" fill="#A1A3A7"/>
<path d="M784.029 87.5732V103.307H776.257V111.231H768.417L768.451 111.285C768.445 108.644 768.431 106.002 768.424 103.361H776.094V87.7357C778.75 87.6951 781.407 87.6545 784.063 87.607L784.022 87.5664L784.029 87.5732Z" fill="#A1A3A7"/>
<path d="M672.901 40.1564V23.9216H681.059L681.031 23.8945C680.984 29.2519 680.937 34.6161 680.889 39.9735C678.226 40.0345 675.557 40.0955 672.894 40.1564H672.901Z" fill="#A1A3A7"/>
<path d="M768.418 111.239V119.414C762.699 119.414 757.441 119.414 752.183 119.414L752.224 119.448L752.285 111.388C757.536 111.32 762.787 111.245 768.038 111.178L768.208 111.374L768.452 111.286L768.418 111.232V111.239Z" fill="#A1A3A7"/>
<path d="M775.912 23.907H784.05C784.05 29.5151 784.05 34.8386 784.05 40.1621L784.07 40.1418C781.428 40.0944 778.785 40.0402 776.143 39.9928C776.068 34.6219 776.001 29.2509 775.926 23.8867L775.906 23.907H775.912Z" fill="#A1A3A7"/>
<path d="M752.21 8.32318H768.445V16.4846L768.465 16.4643C768.289 16.3627 768.16 16.4033 768.065 16.5794C762.827 16.4778 757.59 16.3695 752.359 16.2679C752.312 13.6196 752.264 10.9714 752.223 8.31641L752.21 8.32318Z" fill="#A1A3A7"/>
<path d="M688.499 16.4632C688.641 13.8218 688.783 11.1871 688.939 8.32891C694.312 8.32891 699.536 8.32891 704.76 8.32891L704.747 8.30859C704.699 10.9839 704.659 13.6525 704.611 16.3278C699.238 16.3684 693.858 16.4091 688.485 16.4497L688.499 16.4632Z" fill="#A1A3A7"/>
<path d="M704.794 119.407H688.973C688.824 116.576 688.681 113.921 688.539 111.266L688.492 111.313C693.899 111.327 699.299 111.347 704.706 111.36C704.72 114.056 704.74 116.752 704.753 119.447L704.794 119.407Z" fill="#A1A3A7"/>
<path d="M688.539 111.258H681.025V103.191C683.478 103.191 685.931 103.191 688.492 103.191V111.299L688.539 111.251V111.258Z" fill="#A1A3A7"/>
<path d="M681.059 23.915V16.4647C683.627 16.4647 686.066 16.4647 688.499 16.4647L688.485 16.4512V23.8879H681.032L681.059 23.915Z" fill="#A1A3A7"/>
<path d="M681.03 23.8946H688.484V16.4579C693.857 16.4172 699.237 16.3766 704.61 16.3359L704.793 16.4917C704.786 18.9638 704.779 21.436 704.766 23.9081C699.61 23.9081 694.46 23.9081 689.127 23.9081V39.8381H696.757V31.8596H704.712V23.8539L752.216 23.942L752.162 23.8878V31.9747H760.191V40.1903H768.465L768.431 40.1564V87.6078L768.465 87.5739H760.489C760.334 90.5811 760.212 92.972 760.076 95.4983C757.332 95.6338 754.933 95.7557 752.162 95.8911V103.186L752.196 103.152C736.375 103.165 720.553 103.179 704.725 103.192C704.725 100.795 704.725 98.3971 704.725 95.5593H696.527V87.8245H688.762C688.89 90.5744 689.006 93.1074 689.121 95.6405V103.159H704.759C704.759 105.868 704.759 108.584 704.759 111.293L704.678 111.367C699.271 111.354 693.87 111.333 688.463 111.32C688.463 108.773 688.463 106.227 688.463 103.213C685.902 103.213 683.449 103.213 680.997 103.213C680.963 98.0585 680.929 92.911 680.895 87.7568L681.058 87.5672H688.375V40.1903H681.03L680.861 39.9736C680.909 34.6162 680.956 29.252 681.003 23.8946H681.03ZM736.429 32.1711H713.005V95.5593H743.801V32.1643C741.131 32.1643 738.78 32.1643 736.429 32.1643V32.1711Z" fill="black"/>
<path d="M672.894 40.1497C675.557 40.0887 678.226 40.0278 680.889 39.9668L681.059 40.1835C681.065 55.9713 681.072 71.7591 681.079 87.5468L680.916 87.7365C678.362 87.7365 675.801 87.7365 672.894 87.7365V40.1497Z" fill="black"/>
<path d="M704.611 16.3356C704.658 13.6603 704.699 10.9917 704.746 8.31641C720.567 8.31641 736.396 8.31641 752.217 8.31641C752.264 10.9646 752.312 13.6129 752.352 16.2679L752.169 16.4846C736.375 16.4846 720.581 16.4846 704.787 16.4914L704.604 16.3356H704.611Z" fill="black"/>
<path d="M776.143 39.999C778.785 40.0464 781.428 40.1006 784.07 40.148C784.07 55.9696 784.07 71.7912 784.07 87.6061C781.414 87.6467 778.758 87.6874 776.102 87.7348L775.912 87.579V40.1751L776.15 39.9922L776.143 39.999Z" fill="black"/>
<path d="M704.747 119.447C704.733 116.751 704.713 114.055 704.699 111.36L704.781 111.285C720.582 111.285 736.383 111.285 752.184 111.285L752.278 111.394C752.258 114.082 752.238 116.764 752.217 119.453C736.396 119.453 720.568 119.453 704.747 119.453V119.447Z" fill="black"/>
<path d="M752.183 103.184V95.8895C754.954 95.754 757.346 95.6321 760.097 95.4966C760.226 92.9703 760.355 90.5795 760.51 87.5723C763.234 87.5723 765.857 87.5723 768.485 87.5723C768.465 92.8349 768.452 98.0975 768.431 103.367C768.438 106.008 768.452 108.65 768.458 111.291L768.214 111.379L768.045 111.183C767.903 108.65 767.76 106.123 767.605 103.184H752.197H752.183Z" fill="#17FF3D"/>
<path d="M768.417 103.361C768.438 98.0984 768.451 92.8358 768.472 87.5664L768.438 87.6003C770.924 87.5935 773.411 87.5799 775.905 87.5732L776.094 87.729C776.094 92.768 776.094 97.8071 776.094 103.354H768.424L768.417 103.361Z" fill="black"/>
<path d="M752.183 103.184H767.591C767.754 106.124 767.896 108.65 768.032 111.183C762.78 111.251 757.529 111.325 752.285 111.393L752.19 111.285C752.203 108.576 752.21 105.86 752.224 103.15L752.19 103.184H752.183Z" fill="black"/>
<path d="M768.864 24.1509C771.222 24.0628 773.573 23.9748 775.931 23.8867C776.006 29.2577 776.074 34.6286 776.148 39.9928L775.911 40.1757C773.424 40.1689 770.931 40.1621 768.444 40.1554L768.478 40.1892C768.607 34.8454 768.736 29.4947 768.864 24.1509Z" fill="black"/>
<path d="M768.865 24.1502C768.736 29.4941 768.608 34.8448 768.479 40.1886C765.945 40.1886 763.417 40.1886 760.206 40.1886C760.206 37.195 760.206 34.5806 760.206 31.9662C760.206 29.3519 760.219 26.7443 760.226 24.1367C762.631 24.008 765.03 23.8861 767.598 23.7506C767.767 21.1701 767.923 18.8741 768.072 16.5781C768.167 16.402 768.296 16.3613 768.472 16.4629C768.608 19.0299 768.736 21.5901 768.872 24.157L768.865 24.1502Z" fill="#17FF3D"/>
<path d="M768.444 16.4774H775.904V23.9073L775.925 23.887C773.567 23.975 771.216 24.0631 768.858 24.1511L768.458 16.457L768.438 16.4774H768.444Z" fill="#A1A3A7"/>
<path d="M736.43 32.1641H743.802V95.5522C736.016 95.5522 728.177 95.5522 720.337 95.5522C720.432 92.904 720.52 90.2557 720.615 87.6075H736.396V39.9597C736.403 37.3657 736.416 34.7649 736.423 32.1708L736.43 32.1641Z" fill="#17FF3D"/>
<path d="M720.622 87.6143C720.528 90.2625 720.439 92.9108 720.345 95.559C717.993 95.559 715.642 95.559 713.013 95.559V32.1641C720.751 32.1641 728.597 32.1641 736.437 32.1641C736.43 34.7581 736.417 37.3589 736.41 39.953C731.165 39.953 725.921 39.953 720.629 39.953V87.6143H720.622Z" fill="#FEFEFE"/>
<path d="M752.217 103.145C752.203 105.854 752.197 108.57 752.183 111.279C736.382 111.279 720.581 111.279 704.78 111.279C704.78 108.57 704.78 105.854 704.78 103.145L704.739 103.185C720.561 103.172 736.382 103.158 752.21 103.145H752.217Z" fill="#17FF3D"/>
<path d="M752.177 16.4844C752.19 18.9701 752.21 21.4557 752.224 23.9414C736.389 23.9143 720.554 23.8804 704.719 23.8534L704.774 23.9075C704.78 21.4354 704.787 18.9633 704.801 16.4911C720.595 16.4911 736.389 16.4911 752.183 16.4844H752.177Z" fill="#FEFEFE"/>
<path d="M681.086 87.545C681.079 71.7572 681.072 55.9694 681.065 40.1816C683.417 40.1816 685.768 40.1816 688.41 40.1816V87.545H681.092H681.086Z" fill="#FEFEFE"/>
<path d="M768.438 40.1562C770.924 40.163 773.418 40.1698 775.904 40.1766C775.904 55.9779 775.904 71.7792 775.904 87.5805C773.418 87.5873 770.931 87.6008 768.438 87.6076C768.438 71.7927 768.438 55.9711 768.438 40.1562Z" fill="#17FF3D"/>
<path d="M704.719 23.8535V31.8592H696.764V39.8377H689.135V23.9077C694.467 23.9077 699.624 23.9077 704.773 23.9077L704.719 23.8535Z" fill="#FEFEFE"/>
<path d="M704.787 103.144H689.148C689.148 100.449 689.148 98.0374 689.148 95.6262C691.615 95.5991 694.081 95.572 696.547 95.5449H704.746C704.746 98.3828 704.746 100.78 704.746 103.178L704.787 103.137V103.144Z" fill="#17FF3D"/>
<path d="M752.17 23.8867C754.853 23.968 757.536 24.056 760.219 24.1373C760.219 26.7517 760.206 29.3593 760.199 31.9736C757.726 31.9736 755.253 31.9736 752.17 31.9736V23.8867Z" fill="#FEFEFE"/>
<path d="M696.555 95.5511C694.088 95.5782 691.622 95.6053 689.156 95.6324C689.04 93.0993 688.918 90.5662 688.797 87.8164H696.561V95.5511H696.555Z" fill="#FEFEFE"/>
<path d="M720.622 87.6144V39.9531C725.914 39.9531 731.158 39.9531 736.403 39.9531C736.403 55.6054 736.403 71.2577 736.403 87.6077H720.622V87.6144Z" fill="black"/>
<path d="M768.384 16.5645H752.299V24.0418H768.384V16.5645Z" fill="black"/>
</svg>
