<svg width="315" height="328" viewBox="0 0 315 328" fill="none" xmlns="http://www.w3.org/2000/svg">
<rect x="145.447" y="0.683594" width="6.03308" height="6.28623" fill="white"/>
<rect x="151.481" y="0.683594" width="6.03308" height="6.28623" fill="white"/>
<rect x="157.513" y="0.683594" width="6.03308" height="6.28623" fill="white"/>
<rect x="163.546" y="0.683594" width="6.03308" height="6.28623" fill="white"/>
<rect x="115.281" y="6.9707" width="6.03308" height="6.28623" fill="white"/>
<rect x="121.315" y="6.9707" width="6.03308" height="6.28623" fill="white"/>
<rect x="127.347" y="6.9707" width="6.03308" height="6.28623" fill="white"/>
<rect x="133.381" y="6.9707" width="6.03308" height="6.28623" fill="white"/>
<rect x="139.415" y="6.9707" width="6.03308" height="6.28623" fill="white"/>
<rect x="145.447" y="6.9707" width="6.03308" height="6.28623" fill="white"/>
<rect x="151.481" y="6.9707" width="6.03308" height="6.28623" fill="white"/>
<rect x="157.513" y="6.9707" width="6.03308" height="6.28623" fill="white"/>
<rect x="163.546" y="6.9707" width="6.03308" height="6.28623" fill="white"/>
<rect x="169.578" y="6.9707" width="6.03308" height="6.28623" fill="white"/>
<rect x="175.612" y="6.9707" width="6.03308" height="6.28623" fill="white"/>
<rect x="181.644" y="6.9707" width="6.03308" height="6.28623" fill="white"/>
<rect x="187.678" y="6.9707" width="6.03308" height="6.28623" fill="white"/>
<rect x="193.71" y="6.9707" width="6.03308" height="6.28623" fill="white"/>
<rect x="97.1826" y="13.2559" width="6.03308" height="6.28623" fill="white"/>
<rect x="103.214" y="13.2559" width="6.03308" height="6.28623" fill="white"/>
<rect x="109.248" y="13.2559" width="6.03308" height="6.28623" fill="white"/>
<rect x="115.281" y="13.2559" width="6.03308" height="6.28623" fill="white"/>
<rect x="121.315" y="13.2559" width="6.03308" height="6.28623" fill="white"/>
<rect x="127.347" y="13.2559" width="6.03308" height="6.28623" fill="white"/>
<rect x="133.381" y="13.2559" width="6.03308" height="6.28623" fill="white"/>
<rect x="139.415" y="13.2559" width="6.03308" height="6.28623" fill="white"/>
<rect x="151.481" y="13.2559" width="6.03308" height="6.28623" fill="white"/>
<rect x="157.513" y="13.2559" width="6.03308" height="6.28623" fill="white"/>
<rect x="169.578" y="13.2559" width="6.03308" height="6.28623" fill="white"/>
<rect x="175.612" y="13.2559" width="6.03308" height="6.28623" fill="white"/>
<rect x="181.644" y="13.2559" width="6.03308" height="6.28623" fill="white"/>
<rect x="187.678" y="13.2559" width="6.03308" height="6.28623" fill="white"/>
<rect x="193.71" y="13.2559" width="6.03308" height="6.28623" fill="white"/>
<rect x="199.744" y="13.2559" width="6.03308" height="6.28623" fill="white"/>
<rect x="205.779" y="13.2559" width="6.03308" height="6.28623" fill="white"/>
<rect x="211.811" y="13.2559" width="6.03308" height="6.28623" fill="white"/>
<rect x="85.1167" y="19.543" width="6.03308" height="6.28623" fill="white"/>
<rect x="91.1482" y="19.543" width="6.03308" height="6.28623" fill="white"/>
<rect x="97.1826" y="19.543" width="6.03308" height="6.28623" fill="white"/>
<rect x="103.214" y="19.543" width="6.03308" height="6.28623" fill="white"/>
<rect x="115.281" y="19.543" width="6.03308" height="6.28623" fill="white"/>
<rect x="121.315" y="19.543" width="6.03308" height="6.28623" fill="white"/>
<rect x="127.347" y="19.543" width="6.03308" height="6.28623" fill="white"/>
<rect x="151.481" y="19.543" width="6.03308" height="6.28623" fill="white"/>
<rect x="157.513" y="19.543" width="6.03308" height="6.28623" fill="white"/>
<rect x="181.644" y="19.543" width="6.03308" height="6.28623" fill="white"/>
<rect x="187.678" y="19.543" width="6.03308" height="6.28623" fill="white"/>
<rect x="193.71" y="19.543" width="6.03308" height="6.28623" fill="white"/>
<rect x="205.779" y="19.543" width="6.03308" height="6.28623" fill="white"/>
<rect x="211.811" y="19.543" width="6.03308" height="6.28623" fill="white"/>
<rect x="217.845" y="19.543" width="6.03308" height="6.28623" fill="white"/>
<rect x="223.876" y="19.543" width="6.03308" height="6.28623" fill="white"/>
<rect x="73.0508" y="25.8281" width="6.03308" height="6.28623" fill="white"/>
<rect x="79.082" y="25.8281" width="6.03308" height="6.28623" fill="white"/>
<rect x="85.1167" y="25.8281" width="6.03308" height="6.28623" fill="white"/>
<rect x="91.1482" y="25.8281" width="6.03308" height="6.28623" fill="white"/>
<rect x="115.281" y="25.8281" width="6.03308" height="6.28623" fill="white"/>
<rect x="121.315" y="25.8281" width="6.03308" height="6.28623" fill="white"/>
<rect x="151.481" y="25.8281" width="6.03308" height="6.28623" fill="white"/>
<rect x="157.513" y="25.8281" width="6.03308" height="6.28623" fill="white"/>
<rect x="187.678" y="25.8281" width="6.03308" height="6.28623" fill="white"/>
<rect x="193.71" y="25.8281" width="6.03308" height="6.28623" fill="white"/>
<rect x="199.744" y="25.8281" width="6.03308" height="6.28623" fill="white"/>
<rect x="217.845" y="25.8281" width="6.03308" height="6.28623" fill="white"/>
<rect x="223.876" y="25.8281" width="6.03308" height="6.28623" fill="white"/>
<rect x="229.911" y="25.8281" width="6.03308" height="6.28623" fill="white"/>
<rect x="235.942" y="25.8281" width="6.03308" height="6.28623" fill="white"/>
<rect x="67.0168" y="32.1152" width="6.03308" height="6.28623" fill="white"/>
<rect x="73.0508" y="32.1152" width="6.03308" height="6.28623" fill="white"/>
<rect x="79.082" y="32.1152" width="6.03308" height="6.28623" fill="white"/>
<rect x="109.248" y="32.1152" width="6.03308" height="6.28623" fill="white"/>
<rect x="115.281" y="32.1152" width="6.03308" height="6.28623" fill="white"/>
<rect x="151.481" y="32.1152" width="6.03308" height="6.28623" fill="white"/>
<rect x="157.513" y="32.1152" width="6.03308" height="6.28623" fill="white"/>
<rect x="193.71" y="32.1152" width="6.03308" height="6.28623" fill="white"/>
<rect x="199.744" y="32.1152" width="6.03308" height="6.28623" fill="white"/>
<rect x="229.911" y="32.1152" width="6.03308" height="6.28623" fill="white"/>
<rect x="235.942" y="32.1152" width="6.03308" height="6.28623" fill="white"/>
<rect x="241.977" y="32.1152" width="6.03308" height="6.28623" fill="white"/>
<rect x="54.9507" y="38.4004" width="6.03308" height="6.28623" fill="white"/>
<rect x="60.9827" y="38.4004" width="6.03308" height="6.28623" fill="white"/>
<rect x="67.0168" y="38.4004" width="6.03308" height="6.28623" fill="white"/>
<rect x="103.214" y="38.4004" width="6.03308" height="6.28623" fill="white"/>
<rect x="109.248" y="38.4004" width="6.03308" height="6.28623" fill="white"/>
<rect x="151.481" y="38.4004" width="6.03308" height="6.28623" fill="white"/>
<rect x="157.513" y="38.4004" width="6.03308" height="6.28623" fill="white"/>
<rect x="199.744" y="38.4004" width="6.03308" height="6.28623" fill="white"/>
<rect x="205.779" y="38.4004" width="6.03308" height="6.28623" fill="white"/>
<rect x="241.977" y="38.4004" width="6.03308" height="6.28623" fill="white"/>
<rect x="248.008" y="38.4004" width="6.03308" height="6.28623" fill="white"/>
<rect x="254.042" y="38.4004" width="6.03308" height="6.28623" fill="white"/>
<rect x="48.9165" y="44.6875" width="6.03308" height="6.28623" fill="white"/>
<rect x="54.9507" y="44.6875" width="6.03308" height="6.28623" fill="white"/>
<rect x="60.9827" y="44.6875" width="6.03308" height="6.28623" fill="white"/>
<rect x="97.1826" y="44.6875" width="6.03308" height="6.28623" fill="white"/>
<rect x="103.214" y="44.6875" width="6.03308" height="6.28623" fill="white"/>
<rect x="109.248" y="44.6875" width="6.03308" height="6.28623" fill="white"/>
<rect x="151.481" y="44.6875" width="6.03308" height="6.28623" fill="white"/>
<rect x="157.513" y="44.6875" width="6.03308" height="6.28623" fill="white"/>
<rect x="199.744" y="44.6875" width="6.03308" height="6.28623" fill="white"/>
<rect x="205.779" y="44.6875" width="6.03308" height="6.28623" fill="white"/>
<rect x="211.811" y="44.6875" width="6.03308" height="6.28623" fill="white"/>
<rect x="248.008" y="44.6875" width="6.03308" height="6.28623" fill="white"/>
<rect x="254.042" y="44.6875" width="6.03308" height="6.28623" fill="white"/>
<rect x="260.074" y="44.6875" width="6.03308" height="6.28623" fill="white"/>
<rect x="42.8853" y="50.9707" width="6.03308" height="6.28623" fill="white"/>
<rect x="48.9165" y="50.9707" width="6.03308" height="6.28623" fill="white"/>
<rect x="54.9507" y="50.9707" width="6.03308" height="6.28623" fill="white"/>
<rect x="97.1826" y="50.9707" width="6.03308" height="6.28623" fill="white"/>
<rect x="103.214" y="50.9707" width="6.03308" height="6.28623" fill="white"/>
<rect x="151.481" y="50.9707" width="6.03308" height="6.28623" fill="white"/>
<rect x="157.513" y="50.9707" width="6.03308" height="6.28623" fill="white"/>
<rect x="205.779" y="50.9707" width="6.03308" height="6.28623" fill="white"/>
<rect x="211.811" y="50.9707" width="6.03308" height="6.28623" fill="white"/>
<rect x="254.042" y="50.9707" width="6.03308" height="6.28623" fill="white"/>
<rect x="260.074" y="50.9707" width="6.03308" height="6.28623" fill="white"/>
<rect x="266.108" y="50.9707" width="6.03308" height="6.28623" fill="white"/>
<rect x="36.8506" y="57.2617" width="6.03308" height="6.28623" fill="white"/>
<rect x="42.8853" y="57.2617" width="6.03308" height="6.28623" fill="white"/>
<rect x="48.9165" y="57.2617" width="6.03308" height="6.28623" fill="white"/>
<rect x="91.1482" y="57.2617" width="6.03308" height="6.28623" fill="white"/>
<rect x="97.1826" y="57.2617" width="6.03308" height="6.28623" fill="white"/>
<rect x="103.214" y="57.2617" width="6.03308" height="6.28623" fill="white"/>
<rect x="151.481" y="57.2617" width="6.03308" height="6.28623" fill="white"/>
<rect x="157.513" y="57.2617" width="6.03308" height="6.28623" fill="white"/>
<rect x="211.811" y="57.2617" width="6.03308" height="6.28623" fill="white"/>
<rect x="217.845" y="57.2617" width="6.03308" height="6.28623" fill="white"/>
<rect x="260.074" y="57.2617" width="6.03308" height="6.28623" fill="white"/>
<rect x="266.108" y="57.2617" width="6.03308" height="6.28623" fill="white"/>
<rect x="272.142" y="57.2617" width="6.03308" height="6.28623" fill="white"/>
<rect x="36.8506" y="63.5449" width="6.03308" height="6.28623" fill="white"/>
<rect x="42.8853" y="63.5449" width="6.03308" height="6.28623" fill="white"/>
<rect x="48.9165" y="63.5449" width="6.03308" height="6.28623" fill="white"/>
<rect x="54.9507" y="63.5449" width="6.03308" height="6.28623" fill="white"/>
<rect x="60.9827" y="63.5449" width="6.03308" height="6.28623" fill="white"/>
<rect x="91.1482" y="63.5449" width="6.03308" height="6.28623" fill="white"/>
<rect x="97.1826" y="63.5449" width="6.03308" height="6.28623" fill="white"/>
<rect x="151.481" y="63.5449" width="6.03308" height="6.28623" fill="white"/>
<rect x="157.513" y="63.5449" width="6.03308" height="6.28623" fill="white"/>
<rect x="211.811" y="63.5449" width="6.03308" height="6.28623" fill="white"/>
<rect x="217.845" y="63.5449" width="6.03308" height="6.28623" fill="white"/>
<rect x="248.008" y="63.5449" width="6.03308" height="6.28623" fill="white"/>
<rect x="254.042" y="63.5449" width="6.03308" height="6.28623" fill="white"/>
<rect x="260.074" y="63.5449" width="6.03308" height="6.28623" fill="white"/>
<rect x="266.108" y="63.5449" width="6.03308" height="6.28623" fill="white"/>
<rect x="272.142" y="63.5449" width="6.03308" height="6.28623" fill="white"/>
<rect x="30.8191" y="69.834" width="6.03308" height="6.28623" fill="white"/>
<rect x="36.8506" y="69.834" width="6.03308" height="6.28623" fill="white"/>
<rect x="54.9507" y="69.834" width="6.03308" height="6.28623" fill="white"/>
<rect x="60.9827" y="69.834" width="6.03308" height="6.28623" fill="white"/>
<rect x="67.0168" y="69.834" width="6.03308" height="6.28623" fill="white"/>
<rect x="73.0508" y="69.834" width="6.03308" height="6.28623" fill="white"/>
<rect x="79.082" y="69.834" width="6.03308" height="6.28623" fill="white"/>
<rect x="91.1482" y="69.834" width="6.03308" height="6.28623" fill="white"/>
<rect x="97.1826" y="69.834" width="6.03308" height="6.28623" fill="white"/>
<rect x="151.481" y="69.834" width="6.03308" height="6.28623" fill="white"/>
<rect x="157.513" y="69.834" width="6.03308" height="6.28623" fill="white"/>
<rect x="211.811" y="69.834" width="6.03308" height="6.28623" fill="white"/>
<rect x="217.845" y="69.834" width="6.03308" height="6.28623" fill="white"/>
<rect x="229.911" y="69.834" width="6.03308" height="6.28623" fill="white"/>
<rect x="235.942" y="69.834" width="6.03308" height="6.28623" fill="white"/>
<rect x="241.977" y="69.834" width="6.03308" height="6.28623" fill="white"/>
<rect x="248.008" y="69.834" width="6.03308" height="6.28623" fill="white"/>
<rect x="254.042" y="69.834" width="6.03308" height="6.28623" fill="white"/>
<rect x="272.142" y="69.834" width="6.03308" height="6.28623" fill="white"/>
<rect x="278.175" y="69.834" width="6.03308" height="6.28623" fill="white"/>
<rect x="24.7852" y="76.1191" width="6.03308" height="6.28623" fill="white"/>
<rect x="30.8191" y="76.1191" width="6.03308" height="6.28623" fill="white"/>
<rect x="67.0168" y="76.1191" width="6.03308" height="6.28623" fill="white"/>
<rect x="73.0508" y="76.1191" width="6.03308" height="6.28623" fill="white"/>
<rect x="79.082" y="76.1191" width="6.03308" height="6.28623" fill="white"/>
<rect x="85.1167" y="76.1191" width="6.03308" height="6.28623" fill="white"/>
<rect x="91.1482" y="76.1191" width="6.03308" height="6.28623" fill="white"/>
<rect x="97.1826" y="76.1191" width="6.03308" height="6.28623" fill="white"/>
<rect x="103.214" y="76.1191" width="6.03308" height="6.28623" fill="white"/>
<rect x="151.481" y="76.1191" width="6.03308" height="6.28623" fill="white"/>
<rect x="157.513" y="76.1191" width="6.03308" height="6.28623" fill="white"/>
<rect x="205.779" y="76.1191" width="6.03308" height="6.28623" fill="white"/>
<rect x="211.811" y="76.1191" width="6.03308" height="6.28623" fill="white"/>
<rect x="217.845" y="76.1191" width="6.03308" height="6.28623" fill="white"/>
<rect x="223.876" y="76.1191" width="6.03308" height="6.28623" fill="white"/>
<rect x="229.911" y="76.1191" width="6.03308" height="6.28623" fill="white"/>
<rect x="235.942" y="76.1191" width="6.03308" height="6.28623" fill="white"/>
<rect x="241.977" y="76.1191" width="6.03308" height="6.28623" fill="white"/>
<rect x="278.175" y="76.1191" width="6.03308" height="6.28623" fill="white"/>
<rect x="284.208" y="76.1191" width="6.03308" height="6.28623" fill="white"/>
<rect x="24.7852" y="82.4062" width="6.03308" height="6.28623" fill="white"/>
<rect x="30.8191" y="82.4062" width="6.03308" height="6.28623" fill="white"/>
<rect x="85.1167" y="82.4062" width="6.03308" height="6.28623" fill="white"/>
<rect x="91.1482" y="82.4062" width="6.03308" height="6.28623" fill="white"/>
<rect x="97.1826" y="82.4062" width="6.03308" height="6.28623" fill="white"/>
<rect x="103.214" y="82.4062" width="6.03308" height="6.28623" fill="white"/>
<rect x="109.248" y="82.4062" width="6.03308" height="6.28623" fill="white"/>
<rect x="115.281" y="82.4062" width="6.03308" height="6.28623" fill="white"/>
<rect x="121.315" y="82.4062" width="6.03308" height="6.28623" fill="white"/>
<rect x="127.347" y="82.4062" width="6.03308" height="6.28623" fill="white"/>
<rect x="133.381" y="82.4062" width="6.03308" height="6.28623" fill="white"/>
<rect x="139.415" y="82.4062" width="6.03308" height="6.28623" fill="white"/>
<rect x="145.447" y="82.4062" width="6.03308" height="6.28623" fill="white"/>
<rect x="151.481" y="82.4062" width="6.03308" height="6.28623" fill="white"/>
<rect x="157.513" y="82.4062" width="6.03308" height="6.28623" fill="white"/>
<rect x="163.546" y="82.4062" width="6.03308" height="6.28623" fill="white"/>
<rect x="169.578" y="82.4062" width="6.03308" height="6.28623" fill="white"/>
<rect x="175.612" y="82.4062" width="6.03308" height="6.28623" fill="white"/>
<rect x="181.644" y="82.4062" width="6.03308" height="6.28623" fill="white"/>
<rect x="187.678" y="82.4062" width="6.03308" height="6.28623" fill="white"/>
<rect x="193.71" y="82.4062" width="6.03308" height="6.28623" fill="white"/>
<rect x="199.744" y="82.4062" width="6.03308" height="6.28623" fill="white"/>
<rect x="205.779" y="82.4062" width="6.03308" height="6.28623" fill="white"/>
<rect x="211.811" y="82.4062" width="6.03308" height="6.28623" fill="white"/>
<rect x="217.845" y="82.4062" width="6.03308" height="6.28623" fill="white"/>
<rect x="223.876" y="82.4062" width="6.03308" height="6.28623" fill="white"/>
<rect x="278.175" y="82.4062" width="6.03308" height="6.28623" fill="white"/>
<rect x="284.208" y="82.4062" width="6.03308" height="6.28623" fill="white"/>
<rect x="18.7532" y="88.6934" width="6.03308" height="6.28623" fill="white"/>
<rect x="24.7852" y="88.6934" width="6.03308" height="6.28623" fill="white"/>
<rect x="85.1167" y="88.6934" width="6.03308" height="6.28623" fill="white"/>
<rect x="91.1482" y="88.6934" width="6.03308" height="6.28623" fill="white"/>
<rect x="115.281" y="88.6934" width="6.03308" height="6.28623" fill="white"/>
<rect x="121.315" y="88.6934" width="6.03308" height="6.28623" fill="white"/>
<rect x="127.347" y="88.6934" width="6.03308" height="6.28623" fill="white"/>
<rect x="133.381" y="88.6934" width="6.03308" height="6.28623" fill="white"/>
<rect x="139.415" y="88.6934" width="6.03308" height="6.28623" fill="white"/>
<rect x="145.447" y="88.6934" width="6.03308" height="6.28623" fill="white"/>
<rect x="151.481" y="88.6934" width="6.03308" height="6.28623" fill="white"/>
<rect x="157.513" y="88.6934" width="6.03308" height="6.28623" fill="white"/>
<rect x="163.546" y="88.6934" width="6.03308" height="6.28623" fill="white"/>
<rect x="169.578" y="88.6934" width="6.03308" height="6.28623" fill="white"/>
<rect x="175.612" y="88.6934" width="6.03308" height="6.28623" fill="white"/>
<rect x="181.644" y="88.6934" width="6.03308" height="6.28623" fill="white"/>
<rect x="187.678" y="88.6934" width="6.03308" height="6.28623" fill="white"/>
<rect x="193.71" y="88.6934" width="6.03308" height="6.28623" fill="white"/>
<rect x="217.845" y="88.6934" width="6.03308" height="6.28623" fill="white"/>
<rect x="223.876" y="88.6934" width="6.03308" height="6.28623" fill="white"/>
<rect x="284.208" y="88.6934" width="6.03308" height="6.28623" fill="white"/>
<rect x="290.241" y="88.6934" width="6.03308" height="6.28623" fill="white"/>
<rect x="18.7532" y="94.9766" width="6.03308" height="6.28623" fill="white"/>
<rect x="24.7852" y="94.9766" width="6.03308" height="6.28623" fill="white"/>
<rect x="79.082" y="94.9766" width="6.03308" height="6.28623" fill="white"/>
<rect x="85.1167" y="94.9766" width="6.03308" height="6.28623" fill="white"/>
<rect x="151.481" y="94.9766" width="6.03308" height="6.28623" fill="white"/>
<rect x="157.513" y="94.9766" width="6.03308" height="6.28623" fill="white"/>
<rect x="223.876" y="94.9766" width="6.03308" height="6.28623" fill="white"/>
<rect x="229.911" y="94.9766" width="6.03308" height="6.28623" fill="white"/>
<rect x="284.208" y="94.9766" width="6.03308" height="6.28623" fill="white"/>
<rect x="290.241" y="94.9766" width="6.03308" height="6.28623" fill="white"/>
<rect x="12.719" y="101.264" width="6.03308" height="6.28623" fill="white"/>
<rect x="18.7532" y="101.264" width="6.03308" height="6.28623" fill="white"/>
<rect x="79.082" y="101.264" width="6.03308" height="6.28623" fill="white"/>
<rect x="85.1167" y="101.264" width="6.03308" height="6.28623" fill="white"/>
<rect x="151.481" y="101.264" width="6.03308" height="6.28623" fill="white"/>
<rect x="157.513" y="101.264" width="6.03308" height="6.28623" fill="white"/>
<rect x="223.876" y="101.264" width="6.03308" height="6.28623" fill="white"/>
<rect x="229.911" y="101.264" width="6.03308" height="6.28623" fill="white"/>
<rect x="290.241" y="101.264" width="6.03308" height="6.28623" fill="white"/>
<rect x="296.274" y="101.264" width="6.03308" height="6.28623" fill="white"/>
<rect x="12.719" y="107.549" width="6.03308" height="6.28623" fill="white"/>
<rect x="18.7532" y="107.549" width="6.03308" height="6.28623" fill="white"/>
<rect x="79.082" y="107.549" width="6.03308" height="6.28623" fill="white"/>
<rect x="85.1167" y="107.549" width="6.03308" height="6.28623" fill="white"/>
<rect x="151.481" y="107.549" width="6.03308" height="6.28623" fill="white"/>
<rect x="157.513" y="107.549" width="6.03308" height="6.28623" fill="white"/>
<rect x="223.876" y="107.549" width="6.03308" height="6.28623" fill="white"/>
<rect x="229.911" y="107.549" width="6.03308" height="6.28623" fill="white"/>
<rect x="290.241" y="107.549" width="6.03308" height="6.28623" fill="white"/>
<rect x="296.274" y="107.549" width="6.03308" height="6.28623" fill="white"/>
<rect x="12.719" y="113.836" width="6.03308" height="6.28623" fill="white"/>
<rect x="79.082" y="113.836" width="6.03308" height="6.28623" fill="white"/>
<rect x="85.1167" y="113.836" width="6.03308" height="6.28623" fill="white"/>
<rect x="151.481" y="113.836" width="6.03308" height="6.28623" fill="white"/>
<rect x="157.513" y="113.836" width="6.03308" height="6.28623" fill="white"/>
<rect x="223.876" y="113.836" width="6.03308" height="6.28623" fill="white"/>
<rect x="229.911" y="113.836" width="6.03308" height="6.28623" fill="white"/>
<rect x="296.274" y="113.836" width="6.03308" height="6.28623" fill="white"/>
<rect x="302.307" y="113.836" width="6.03308" height="6.28623" fill="white"/>
<rect x="6.68677" y="120.121" width="6.03308" height="6.28623" fill="white"/>
<rect x="12.719" y="120.121" width="6.03308" height="6.28623" fill="white"/>
<rect x="79.082" y="120.121" width="6.03308" height="6.28623" fill="white"/>
<rect x="85.1167" y="120.121" width="6.03308" height="6.28623" fill="white"/>
<rect x="151.481" y="120.121" width="6.03308" height="6.28623" fill="white"/>
<rect x="157.513" y="120.121" width="6.03308" height="6.28623" fill="white"/>
<rect x="223.876" y="120.121" width="6.03308" height="6.28623" fill="white"/>
<rect x="229.911" y="120.121" width="6.03308" height="6.28623" fill="white"/>
<rect x="296.274" y="120.121" width="6.03308" height="6.28623" fill="white"/>
<rect x="302.307" y="120.121" width="6.03308" height="6.28623" fill="white"/>
<rect x="6.68677" y="126.408" width="6.03308" height="6.28623" fill="white"/>
<rect x="12.719" y="126.408" width="6.03308" height="6.28623" fill="white"/>
<rect x="79.082" y="126.408" width="6.03308" height="6.28623" fill="white"/>
<rect x="151.481" y="126.408" width="6.03308" height="6.28623" fill="white"/>
<rect x="157.513" y="126.408" width="6.03308" height="6.28623" fill="white"/>
<rect x="229.911" y="126.408" width="6.03308" height="6.28623" fill="white"/>
<rect x="296.274" y="126.408" width="6.03308" height="6.28623" fill="white"/>
<rect x="302.307" y="126.408" width="6.03308" height="6.28623" fill="white"/>
<rect x="6.68677" y="132.693" width="6.03308" height="6.28623" fill="white"/>
<rect x="12.719" y="132.693" width="6.03308" height="6.28623" fill="white"/>
<rect x="79.082" y="132.693" width="6.03308" height="6.28623" fill="white"/>
<rect x="151.481" y="132.693" width="6.03308" height="6.28623" fill="white"/>
<rect x="157.513" y="132.693" width="6.03308" height="6.28623" fill="white"/>
<rect x="229.911" y="132.693" width="6.03308" height="6.28623" fill="white"/>
<rect x="235.942" y="132.693" width="6.03308" height="6.28623" fill="white"/>
<rect x="296.274" y="132.693" width="6.03308" height="6.28623" fill="white"/>
<rect x="302.307" y="132.693" width="6.03308" height="6.28623" fill="white"/>
<rect x="6.68677" y="138.98" width="6.03308" height="6.28623" fill="white"/>
<rect x="73.0508" y="138.98" width="6.03308" height="6.28623" fill="white"/>
<rect x="79.082" y="138.98" width="6.03308" height="6.28623" fill="white"/>
<rect x="151.481" y="138.98" width="6.03308" height="6.28623" fill="white"/>
<rect x="157.513" y="138.98" width="6.03308" height="6.28623" fill="white"/>
<rect x="229.911" y="138.98" width="6.03308" height="6.28623" fill="white"/>
<rect x="235.942" y="138.98" width="6.03308" height="6.28623" fill="white"/>
<rect x="302.307" y="138.98" width="6.03308" height="6.28623" fill="white"/>
<rect x="6.68677" y="145.268" width="6.03308" height="6.28623" fill="white"/>
<rect x="73.0508" y="145.268" width="6.03308" height="6.28623" fill="white"/>
<rect x="79.082" y="145.268" width="6.03308" height="6.28623" fill="white"/>
<rect x="151.481" y="145.268" width="6.03308" height="6.28623" fill="white"/>
<rect x="157.513" y="145.268" width="6.03308" height="6.28623" fill="white"/>
<rect x="229.911" y="145.268" width="6.03308" height="6.28623" fill="white"/>
<rect x="235.942" y="145.268" width="6.03308" height="6.28623" fill="white"/>
<rect x="302.307" y="145.268" width="6.03308" height="6.28623" fill="white"/>
<rect x="308.34" y="145.268" width="6.03308" height="6.28623" fill="white"/>
<rect x="0.652832" y="151.555" width="6.03308" height="6.28623" fill="white"/>
<rect x="6.68677" y="151.555" width="6.03308" height="6.28623" fill="white"/>
<rect x="73.0508" y="151.555" width="6.03308" height="6.28623" fill="white"/>
<rect x="79.082" y="151.555" width="6.03308" height="6.28623" fill="white"/>
<rect x="151.481" y="151.555" width="6.03308" height="6.28623" fill="white"/>
<rect x="157.513" y="151.555" width="6.03308" height="6.28623" fill="white"/>
<rect x="229.911" y="151.555" width="6.03308" height="6.28623" fill="white"/>
<rect x="235.942" y="151.555" width="6.03308" height="6.28623" fill="white"/>
<rect x="302.307" y="151.555" width="6.03308" height="6.28623" fill="white"/>
<rect x="308.34" y="151.555" width="6.03308" height="6.28623" fill="white"/>
<rect x="0.652832" y="157.84" width="6.03308" height="6.28623" fill="white"/>
<rect x="6.68677" y="157.84" width="6.03308" height="6.28623" fill="white"/>
<rect x="12.719" y="157.84" width="6.03308" height="6.28623" fill="white"/>
<rect x="18.7532" y="157.84" width="6.03308" height="6.28623" fill="white"/>
<rect x="24.7852" y="157.84" width="6.03308" height="6.28623" fill="white"/>
<rect x="30.8191" y="157.84" width="6.03308" height="6.28623" fill="white"/>
<rect x="36.8506" y="157.84" width="6.03308" height="6.28623" fill="white"/>
<rect x="42.8853" y="157.84" width="6.03308" height="6.28623" fill="white"/>
<rect x="48.9165" y="157.84" width="6.03308" height="6.28623" fill="white"/>
<rect x="54.9507" y="157.84" width="6.03308" height="6.28623" fill="white"/>
<rect x="60.9827" y="157.84" width="6.03308" height="6.28623" fill="white"/>
<rect x="67.0168" y="157.84" width="6.03308" height="6.28623" fill="white"/>
<rect x="73.0508" y="157.84" width="6.03308" height="6.28623" fill="white"/>
<rect x="79.082" y="157.84" width="6.03308" height="6.28623" fill="white"/>
<rect x="85.1167" y="157.84" width="6.03308" height="6.28623" fill="white"/>
<rect x="91.1482" y="157.84" width="6.03308" height="6.28623" fill="white"/>
<rect x="97.1826" y="157.84" width="6.03308" height="6.28623" fill="white"/>
<rect x="103.214" y="157.84" width="6.03308" height="6.28623" fill="white"/>
<rect x="109.248" y="157.84" width="6.03308" height="6.28623" fill="white"/>
<rect x="115.281" y="157.84" width="6.03308" height="6.28623" fill="white"/>
<rect x="121.315" y="157.84" width="6.03308" height="6.28623" fill="white"/>
<rect x="127.347" y="157.84" width="6.03308" height="6.28623" fill="white"/>
<rect x="133.381" y="157.84" width="6.03308" height="6.28623" fill="white"/>
<rect x="139.415" y="157.84" width="6.03308" height="6.28623" fill="white"/>
<rect x="145.447" y="157.84" width="6.03308" height="6.28623" fill="white"/>
<rect x="151.481" y="157.84" width="6.03308" height="6.28623" fill="white"/>
<rect x="157.513" y="157.84" width="6.03308" height="6.28623" fill="white"/>
<rect x="163.546" y="157.84" width="6.03308" height="6.28623" fill="white"/>
<rect x="169.578" y="157.84" width="6.03308" height="6.28623" fill="white"/>
<rect x="175.612" y="157.84" width="6.03308" height="6.28623" fill="white"/>
<rect x="181.644" y="157.84" width="6.03308" height="6.28623" fill="white"/>
<rect x="187.678" y="157.84" width="6.03308" height="6.28623" fill="white"/>
<rect x="193.71" y="157.84" width="6.03308" height="6.28623" fill="white"/>
<rect x="199.744" y="157.84" width="6.03308" height="6.28623" fill="white"/>
<rect x="205.779" y="157.84" width="6.03308" height="6.28623" fill="white"/>
<rect x="211.811" y="157.84" width="6.03308" height="6.28623" fill="white"/>
<rect x="217.845" y="157.84" width="6.03308" height="6.28623" fill="white"/>
<rect x="223.876" y="157.84" width="6.03308" height="6.28623" fill="white"/>
<rect x="229.911" y="157.84" width="6.03308" height="6.28623" fill="white"/>
<rect x="235.942" y="157.84" width="6.03308" height="6.28623" fill="white"/>
<rect x="241.977" y="157.84" width="6.03308" height="6.28623" fill="white"/>
<rect x="248.008" y="157.84" width="6.03308" height="6.28623" fill="white"/>
<rect x="254.042" y="157.84" width="6.03308" height="6.28623" fill="white"/>
<rect x="260.074" y="157.84" width="6.03308" height="6.28623" fill="white"/>
<rect x="266.108" y="157.84" width="6.03308" height="6.28623" fill="white"/>
<rect x="272.142" y="157.84" width="6.03308" height="6.28623" fill="white"/>
<rect x="278.175" y="157.84" width="6.03308" height="6.28623" fill="white"/>
<rect x="284.208" y="157.84" width="6.03308" height="6.28623" fill="white"/>
<rect x="290.241" y="157.84" width="6.03308" height="6.28623" fill="white"/>
<rect x="296.274" y="157.84" width="6.03308" height="6.28623" fill="white"/>
<rect x="302.307" y="157.84" width="6.03308" height="6.28623" fill="white"/>
<rect x="308.34" y="157.84" width="6.03308" height="6.28623" fill="white"/>
<rect x="0.652832" y="164.127" width="6.03308" height="6.28623" fill="white"/>
<rect x="6.68677" y="164.127" width="6.03308" height="6.28623" fill="white"/>
<rect x="12.719" y="164.127" width="6.03308" height="6.28623" fill="white"/>
<rect x="18.7532" y="164.127" width="6.03308" height="6.28623" fill="white"/>
<rect x="24.7852" y="164.127" width="6.03308" height="6.28623" fill="white"/>
<rect x="30.8191" y="164.127" width="6.03308" height="6.28623" fill="white"/>
<rect x="36.8506" y="164.127" width="6.03308" height="6.28623" fill="white"/>
<rect x="42.8853" y="164.127" width="6.03308" height="6.28623" fill="white"/>
<rect x="48.9165" y="164.127" width="6.03308" height="6.28623" fill="white"/>
<rect x="54.9507" y="164.127" width="6.03308" height="6.28623" fill="white"/>
<rect x="60.9827" y="164.127" width="6.03308" height="6.28623" fill="white"/>
<rect x="67.0168" y="164.127" width="6.03308" height="6.28623" fill="white"/>
<rect x="73.0508" y="164.127" width="6.03308" height="6.28623" fill="white"/>
<rect x="79.082" y="164.127" width="6.03308" height="6.28623" fill="white"/>
<rect x="85.1167" y="164.127" width="6.03308" height="6.28623" fill="white"/>
<rect x="91.1482" y="164.127" width="6.03308" height="6.28623" fill="white"/>
<rect x="97.1826" y="164.127" width="6.03308" height="6.28623" fill="white"/>
<rect x="103.214" y="164.127" width="6.03308" height="6.28623" fill="white"/>
<rect x="109.248" y="164.127" width="6.03308" height="6.28623" fill="white"/>
<rect x="115.281" y="164.127" width="6.03308" height="6.28623" fill="white"/>
<rect x="121.315" y="164.127" width="6.03308" height="6.28623" fill="white"/>
<rect x="127.347" y="164.127" width="6.03308" height="6.28623" fill="white"/>
<rect x="133.381" y="164.127" width="6.03308" height="6.28623" fill="white"/>
<rect x="139.415" y="164.127" width="6.03308" height="6.28623" fill="white"/>
<rect x="145.447" y="164.127" width="6.03308" height="6.28623" fill="white"/>
<rect x="151.481" y="164.127" width="6.03308" height="6.28623" fill="white"/>
<rect x="157.513" y="164.127" width="6.03308" height="6.28623" fill="white"/>
<rect x="163.546" y="164.127" width="6.03308" height="6.28623" fill="white"/>
<rect x="169.578" y="164.127" width="6.03308" height="6.28623" fill="white"/>
<rect x="175.612" y="164.127" width="6.03308" height="6.28623" fill="white"/>
<rect x="181.644" y="164.127" width="6.03308" height="6.28623" fill="white"/>
<rect x="187.678" y="164.127" width="6.03308" height="6.28623" fill="white"/>
<rect x="193.71" y="164.127" width="6.03308" height="6.28623" fill="white"/>
<rect x="199.744" y="164.127" width="6.03308" height="6.28623" fill="white"/>
<rect x="205.779" y="164.127" width="6.03308" height="6.28623" fill="white"/>
<rect x="211.811" y="164.127" width="6.03308" height="6.28623" fill="white"/>
<rect x="217.845" y="164.127" width="6.03308" height="6.28623" fill="white"/>
<rect x="223.876" y="164.127" width="6.03308" height="6.28623" fill="white"/>
<rect x="229.911" y="164.127" width="6.03308" height="6.28623" fill="white"/>
<rect x="235.942" y="164.127" width="6.03308" height="6.28623" fill="white"/>
<rect x="241.977" y="164.127" width="6.03308" height="6.28623" fill="white"/>
<rect x="248.008" y="164.127" width="6.03308" height="6.28623" fill="white"/>
<rect x="254.042" y="164.127" width="6.03308" height="6.28623" fill="white"/>
<rect x="260.074" y="164.127" width="6.03308" height="6.28623" fill="white"/>
<rect x="266.108" y="164.127" width="6.03308" height="6.28623" fill="white"/>
<rect x="272.142" y="164.127" width="6.03308" height="6.28623" fill="white"/>
<rect x="278.175" y="164.127" width="6.03308" height="6.28623" fill="white"/>
<rect x="284.208" y="164.127" width="6.03308" height="6.28623" fill="white"/>
<rect x="290.241" y="164.127" width="6.03308" height="6.28623" fill="white"/>
<rect x="296.274" y="164.127" width="6.03308" height="6.28623" fill="white"/>
<rect x="302.307" y="164.127" width="6.03308" height="6.28623" fill="white"/>
<rect x="308.34" y="164.127" width="6.03308" height="6.28623" fill="white"/>
<rect x="0.652832" y="170.414" width="6.03308" height="6.28623" fill="white"/>
<rect x="6.68677" y="170.414" width="6.03308" height="6.28623" fill="white"/>
<rect x="73.0508" y="170.414" width="6.03308" height="6.28623" fill="white"/>
<rect x="79.082" y="170.414" width="6.03308" height="6.28623" fill="white"/>
<rect x="151.481" y="170.414" width="6.03308" height="6.28623" fill="white"/>
<rect x="157.513" y="170.414" width="6.03308" height="6.28623" fill="white"/>
<rect x="229.911" y="170.414" width="6.03308" height="6.28623" fill="white"/>
<rect x="235.942" y="170.414" width="6.03308" height="6.28623" fill="white"/>
<rect x="302.307" y="170.414" width="6.03308" height="6.28623" fill="white"/>
<rect x="308.34" y="170.414" width="6.03308" height="6.28623" fill="white"/>
<rect x="6.68677" y="176.697" width="6.03308" height="6.28623" fill="white"/>
<rect x="73.0508" y="176.697" width="6.03308" height="6.28623" fill="white"/>
<rect x="79.082" y="176.697" width="6.03308" height="6.28623" fill="white"/>
<rect x="151.481" y="176.697" width="6.03308" height="6.28623" fill="white"/>
<rect x="157.513" y="176.697" width="6.03308" height="6.28623" fill="white"/>
<rect x="229.911" y="176.697" width="6.03308" height="6.28623" fill="white"/>
<rect x="235.942" y="176.697" width="6.03308" height="6.28623" fill="white"/>
<rect x="302.307" y="176.697" width="6.03308" height="6.28623" fill="white"/>
<rect x="308.34" y="176.697" width="6.03308" height="6.28623" fill="white"/>
<rect x="6.68677" y="182.984" width="6.03308" height="6.28623" fill="white"/>
<rect x="73.0508" y="182.984" width="6.03308" height="6.28623" fill="white"/>
<rect x="79.082" y="182.984" width="6.03308" height="6.28623" fill="white"/>
<rect x="151.481" y="182.984" width="6.03308" height="6.28623" fill="white"/>
<rect x="157.513" y="182.984" width="6.03308" height="6.28623" fill="white"/>
<rect x="229.911" y="182.984" width="6.03308" height="6.28623" fill="white"/>
<rect x="235.942" y="182.984" width="6.03308" height="6.28623" fill="white"/>
<rect x="302.307" y="182.984" width="6.03308" height="6.28623" fill="white"/>
<rect x="6.68677" y="189.27" width="6.03308" height="6.28623" fill="white"/>
<rect x="12.719" y="189.27" width="6.03308" height="6.28623" fill="white"/>
<rect x="73.0508" y="189.27" width="6.03308" height="6.28623" fill="white"/>
<rect x="79.082" y="189.27" width="6.03308" height="6.28623" fill="white"/>
<rect x="151.481" y="189.27" width="6.03308" height="6.28623" fill="white"/>
<rect x="157.513" y="189.27" width="6.03308" height="6.28623" fill="white"/>
<rect x="229.911" y="189.27" width="6.03308" height="6.28623" fill="white"/>
<rect x="235.942" y="189.27" width="6.03308" height="6.28623" fill="white"/>
<rect x="296.274" y="189.27" width="6.03308" height="6.28623" fill="white"/>
<rect x="302.307" y="189.27" width="6.03308" height="6.28623" fill="white"/>
<rect x="6.68677" y="195.559" width="6.03308" height="6.28623" fill="white"/>
<rect x="12.719" y="195.559" width="6.03308" height="6.28623" fill="white"/>
<rect x="79.082" y="195.559" width="6.03308" height="6.28623" fill="white"/>
<rect x="151.481" y="195.559" width="6.03308" height="6.28623" fill="white"/>
<rect x="157.513" y="195.559" width="6.03308" height="6.28623" fill="white"/>
<rect x="229.911" y="195.559" width="6.03308" height="6.28623" fill="white"/>
<rect x="296.274" y="195.559" width="6.03308" height="6.28623" fill="white"/>
<rect x="302.307" y="195.559" width="6.03308" height="6.28623" fill="white"/>
<rect x="6.68677" y="201.842" width="6.03308" height="6.28623" fill="white"/>
<rect x="12.719" y="201.842" width="6.03308" height="6.28623" fill="white"/>
<rect x="79.082" y="201.842" width="6.03308" height="6.28623" fill="white"/>
<rect x="85.1167" y="201.842" width="6.03308" height="6.28623" fill="white"/>
<rect x="151.481" y="201.842" width="6.03308" height="6.28623" fill="white"/>
<rect x="157.513" y="201.842" width="6.03308" height="6.28623" fill="white"/>
<rect x="223.876" y="201.842" width="6.03308" height="6.28623" fill="white"/>
<rect x="229.911" y="201.842" width="6.03308" height="6.28623" fill="white"/>
<rect x="296.274" y="201.842" width="6.03308" height="6.28623" fill="white"/>
<rect x="302.307" y="201.842" width="6.03308" height="6.28623" fill="white"/>
<rect x="12.719" y="208.127" width="6.03308" height="6.28623" fill="white"/>
<rect x="79.082" y="208.127" width="6.03308" height="6.28623" fill="white"/>
<rect x="85.1167" y="208.127" width="6.03308" height="6.28623" fill="white"/>
<rect x="151.481" y="208.127" width="6.03308" height="6.28623" fill="white"/>
<rect x="157.513" y="208.127" width="6.03308" height="6.28623" fill="white"/>
<rect x="223.876" y="208.127" width="6.03308" height="6.28623" fill="white"/>
<rect x="229.911" y="208.127" width="6.03308" height="6.28623" fill="white"/>
<rect x="296.274" y="208.127" width="6.03308" height="6.28623" fill="white"/>
<rect x="302.307" y="208.127" width="6.03308" height="6.28623" fill="white"/>
<rect x="12.719" y="214.416" width="6.03308" height="6.28623" fill="white"/>
<rect x="18.7532" y="214.416" width="6.03308" height="6.28623" fill="white"/>
<rect x="79.082" y="214.416" width="6.03308" height="6.28623" fill="white"/>
<rect x="85.1167" y="214.416" width="6.03308" height="6.28623" fill="white"/>
<rect x="151.481" y="214.416" width="6.03308" height="6.28623" fill="white"/>
<rect x="157.513" y="214.416" width="6.03308" height="6.28623" fill="white"/>
<rect x="223.876" y="214.416" width="6.03308" height="6.28623" fill="white"/>
<rect x="229.911" y="214.416" width="6.03308" height="6.28623" fill="white"/>
<rect x="290.241" y="214.416" width="6.03308" height="6.28623" fill="white"/>
<rect x="296.274" y="214.416" width="6.03308" height="6.28623" fill="white"/>
<rect x="12.719" y="220.701" width="6.03308" height="6.28623" fill="white"/>
<rect x="18.7532" y="220.701" width="6.03308" height="6.28623" fill="white"/>
<rect x="79.082" y="220.701" width="6.03308" height="6.28623" fill="white"/>
<rect x="85.1167" y="220.701" width="6.03308" height="6.28623" fill="white"/>
<rect x="151.481" y="220.701" width="6.03308" height="6.28623" fill="white"/>
<rect x="157.513" y="220.701" width="6.03308" height="6.28623" fill="white"/>
<rect x="223.876" y="220.701" width="6.03308" height="6.28623" fill="white"/>
<rect x="229.911" y="220.701" width="6.03308" height="6.28623" fill="white"/>
<rect x="290.241" y="220.701" width="6.03308" height="6.28623" fill="white"/>
<rect x="296.274" y="220.701" width="6.03308" height="6.28623" fill="white"/>
<rect x="18.7532" y="226.988" width="6.03308" height="6.28623" fill="white"/>
<rect x="24.7852" y="226.988" width="6.03308" height="6.28623" fill="white"/>
<rect x="79.082" y="226.988" width="6.03308" height="6.28623" fill="white"/>
<rect x="85.1167" y="226.988" width="6.03308" height="6.28623" fill="white"/>
<rect x="151.481" y="226.988" width="6.03308" height="6.28623" fill="white"/>
<rect x="157.513" y="226.988" width="6.03308" height="6.28623" fill="white"/>
<rect x="223.876" y="226.988" width="6.03308" height="6.28623" fill="white"/>
<rect x="229.911" y="226.988" width="6.03308" height="6.28623" fill="white"/>
<rect x="284.208" y="226.988" width="6.03308" height="6.28623" fill="white"/>
<rect x="290.241" y="226.988" width="6.03308" height="6.28623" fill="white"/>
<rect x="296.274" y="226.988" width="6.03308" height="6.28623" fill="white"/>
<rect x="18.7532" y="233.273" width="6.03308" height="6.28623" fill="white"/>
<rect x="24.7852" y="233.273" width="6.03308" height="6.28623" fill="white"/>
<rect x="85.1167" y="233.273" width="6.03308" height="6.28623" fill="white"/>
<rect x="91.1482" y="233.273" width="6.03308" height="6.28623" fill="white"/>
<rect x="121.315" y="233.273" width="6.03308" height="6.28623" fill="white"/>
<rect x="127.347" y="233.273" width="6.03308" height="6.28623" fill="white"/>
<rect x="133.381" y="233.273" width="6.03308" height="6.28623" fill="white"/>
<rect x="139.415" y="233.273" width="6.03308" height="6.28623" fill="white"/>
<rect x="145.447" y="233.273" width="6.03308" height="6.28623" fill="white"/>
<rect x="151.481" y="233.273" width="6.03308" height="6.28623" fill="white"/>
<rect x="157.513" y="233.273" width="6.03308" height="6.28623" fill="white"/>
<rect x="163.546" y="233.273" width="6.03308" height="6.28623" fill="white"/>
<rect x="169.578" y="233.273" width="6.03308" height="6.28623" fill="white"/>
<rect x="175.612" y="233.273" width="6.03308" height="6.28623" fill="white"/>
<rect x="181.644" y="233.273" width="6.03308" height="6.28623" fill="white"/>
<rect x="187.678" y="233.273" width="6.03308" height="6.28623" fill="white"/>
<rect x="217.845" y="233.273" width="6.03308" height="6.28623" fill="white"/>
<rect x="223.876" y="233.273" width="6.03308" height="6.28623" fill="white"/>
<rect x="284.208" y="233.273" width="6.03308" height="6.28623" fill="white"/>
<rect x="290.241" y="233.273" width="6.03308" height="6.28623" fill="white"/>
<rect x="24.7852" y="239.562" width="6.03308" height="6.28623" fill="white"/>
<rect x="30.8191" y="239.562" width="6.03308" height="6.28623" fill="white"/>
<rect x="85.1167" y="239.562" width="6.03308" height="6.28623" fill="white"/>
<rect x="91.1482" y="239.562" width="6.03308" height="6.28623" fill="white"/>
<rect x="97.1826" y="239.562" width="6.03308" height="6.28623" fill="white"/>
<rect x="103.214" y="239.562" width="6.03308" height="6.28623" fill="white"/>
<rect x="109.248" y="239.562" width="6.03308" height="6.28623" fill="white"/>
<rect x="115.281" y="239.562" width="6.03308" height="6.28623" fill="white"/>
<rect x="121.315" y="239.562" width="6.03308" height="6.28623" fill="white"/>
<rect x="127.347" y="239.562" width="6.03308" height="6.28623" fill="white"/>
<rect x="133.381" y="239.562" width="6.03308" height="6.28623" fill="white"/>
<rect x="139.415" y="239.562" width="6.03308" height="6.28623" fill="white"/>
<rect x="145.447" y="239.562" width="6.03308" height="6.28623" fill="white"/>
<rect x="151.481" y="239.562" width="6.03308" height="6.28623" fill="white"/>
<rect x="157.513" y="239.562" width="6.03308" height="6.28623" fill="white"/>
<rect x="163.546" y="239.562" width="6.03308" height="6.28623" fill="white"/>
<rect x="169.578" y="239.562" width="6.03308" height="6.28623" fill="white"/>
<rect x="175.612" y="239.562" width="6.03308" height="6.28623" fill="white"/>
<rect x="181.644" y="239.562" width="6.03308" height="6.28623" fill="white"/>
<rect x="187.678" y="239.562" width="6.03308" height="6.28623" fill="white"/>
<rect x="193.71" y="239.562" width="6.03308" height="6.28623" fill="white"/>
<rect x="199.744" y="239.562" width="6.03308" height="6.28623" fill="white"/>
<rect x="205.779" y="239.562" width="6.03308" height="6.28623" fill="white"/>
<rect x="211.811" y="239.562" width="6.03308" height="6.28623" fill="white"/>
<rect x="217.845" y="239.562" width="6.03308" height="6.28623" fill="white"/>
<rect x="223.876" y="239.562" width="6.03308" height="6.28623" fill="white"/>
<rect x="278.175" y="239.562" width="6.03308" height="6.28623" fill="white"/>
<rect x="284.208" y="239.562" width="6.03308" height="6.28623" fill="white"/>
<rect x="290.241" y="239.562" width="6.03308" height="6.28623" fill="white"/>
<rect x="24.7852" y="245.846" width="6.03308" height="6.28623" fill="white"/>
<rect x="30.8191" y="245.846" width="6.03308" height="6.28623" fill="white"/>
<rect x="73.0508" y="245.846" width="6.03308" height="6.28623" fill="white"/>
<rect x="79.082" y="245.846" width="6.03308" height="6.28623" fill="white"/>
<rect x="85.1167" y="245.846" width="6.03308" height="6.28623" fill="white"/>
<rect x="91.1482" y="245.846" width="6.03308" height="6.28623" fill="white"/>
<rect x="97.1826" y="245.846" width="6.03308" height="6.28623" fill="white"/>
<rect x="103.214" y="245.846" width="6.03308" height="6.28623" fill="white"/>
<rect x="109.248" y="245.846" width="6.03308" height="6.28623" fill="white"/>
<rect x="151.481" y="245.846" width="6.03308" height="6.28623" fill="white"/>
<rect x="157.513" y="245.846" width="6.03308" height="6.28623" fill="white"/>
<rect x="199.744" y="245.846" width="6.03308" height="6.28623" fill="white"/>
<rect x="205.779" y="245.846" width="6.03308" height="6.28623" fill="white"/>
<rect x="211.811" y="245.846" width="6.03308" height="6.28623" fill="white"/>
<rect x="217.845" y="245.846" width="6.03308" height="6.28623" fill="white"/>
<rect x="223.876" y="245.846" width="6.03308" height="6.28623" fill="white"/>
<rect x="229.911" y="245.846" width="6.03308" height="6.28623" fill="white"/>
<rect x="235.942" y="245.846" width="6.03308" height="6.28623" fill="white"/>
<rect x="278.175" y="245.846" width="6.03308" height="6.28623" fill="white"/>
<rect x="284.208" y="245.846" width="6.03308" height="6.28623" fill="white"/>
<rect x="30.8191" y="252.133" width="6.03308" height="6.28623" fill="white"/>
<rect x="36.8506" y="252.133" width="6.03308" height="6.28623" fill="white"/>
<rect x="54.9507" y="252.133" width="6.03308" height="6.28623" fill="white"/>
<rect x="60.9827" y="252.133" width="6.03308" height="6.28623" fill="white"/>
<rect x="67.0168" y="252.133" width="6.03308" height="6.28623" fill="white"/>
<rect x="73.0508" y="252.133" width="6.03308" height="6.28623" fill="white"/>
<rect x="79.082" y="252.133" width="6.03308" height="6.28623" fill="white"/>
<rect x="91.1482" y="252.133" width="6.03308" height="6.28623" fill="white"/>
<rect x="97.1826" y="252.133" width="6.03308" height="6.28623" fill="white"/>
<rect x="151.481" y="252.133" width="6.03308" height="6.28623" fill="white"/>
<rect x="157.513" y="252.133" width="6.03308" height="6.28623" fill="white"/>
<rect x="211.811" y="252.133" width="6.03308" height="6.28623" fill="white"/>
<rect x="217.845" y="252.133" width="6.03308" height="6.28623" fill="white"/>
<rect x="229.911" y="252.133" width="6.03308" height="6.28623" fill="white"/>
<rect x="235.942" y="252.133" width="6.03308" height="6.28623" fill="white"/>
<rect x="241.977" y="252.133" width="6.03308" height="6.28623" fill="white"/>
<rect x="248.008" y="252.133" width="6.03308" height="6.28623" fill="white"/>
<rect x="254.042" y="252.133" width="6.03308" height="6.28623" fill="white"/>
<rect x="272.142" y="252.133" width="6.03308" height="6.28623" fill="white"/>
<rect x="278.175" y="252.133" width="6.03308" height="6.28623" fill="white"/>
<rect x="36.8506" y="258.418" width="6.03308" height="6.28623" fill="white"/>
<rect x="42.8853" y="258.418" width="6.03308" height="6.28623" fill="white"/>
<rect x="48.9165" y="258.418" width="6.03308" height="6.28623" fill="white"/>
<rect x="54.9507" y="258.418" width="6.03308" height="6.28623" fill="white"/>
<rect x="60.9827" y="258.418" width="6.03308" height="6.28623" fill="white"/>
<rect x="91.1482" y="258.418" width="6.03308" height="6.28623" fill="white"/>
<rect x="97.1826" y="258.418" width="6.03308" height="6.28623" fill="white"/>
<rect x="151.481" y="258.418" width="6.03308" height="6.28623" fill="white"/>
<rect x="157.513" y="258.418" width="6.03308" height="6.28623" fill="white"/>
<rect x="211.811" y="258.418" width="6.03308" height="6.28623" fill="white"/>
<rect x="217.845" y="258.418" width="6.03308" height="6.28623" fill="white"/>
<rect x="248.008" y="258.418" width="6.03308" height="6.28623" fill="white"/>
<rect x="254.042" y="258.418" width="6.03308" height="6.28623" fill="white"/>
<rect x="260.074" y="258.418" width="6.03308" height="6.28623" fill="white"/>
<rect x="266.108" y="258.418" width="6.03308" height="6.28623" fill="white"/>
<rect x="272.142" y="258.418" width="6.03308" height="6.28623" fill="white"/>
<rect x="278.175" y="258.418" width="6.03308" height="6.28623" fill="white"/>
<rect x="36.8506" y="264.707" width="6.03308" height="6.28623" fill="white"/>
<rect x="42.8853" y="264.707" width="6.03308" height="6.28623" fill="white"/>
<rect x="48.9165" y="264.707" width="6.03308" height="6.28623" fill="white"/>
<rect x="91.1482" y="264.707" width="6.03308" height="6.28623" fill="white"/>
<rect x="97.1826" y="264.707" width="6.03308" height="6.28623" fill="white"/>
<rect x="151.481" y="264.707" width="6.03308" height="6.28623" fill="white"/>
<rect x="157.513" y="264.707" width="6.03308" height="6.28623" fill="white"/>
<rect x="211.811" y="264.707" width="6.03308" height="6.28623" fill="white"/>
<rect x="217.845" y="264.707" width="6.03308" height="6.28623" fill="white"/>
<rect x="260.074" y="264.707" width="6.03308" height="6.28623" fill="white"/>
<rect x="266.108" y="264.707" width="6.03308" height="6.28623" fill="white"/>
<rect x="272.142" y="264.707" width="6.03308" height="6.28623" fill="white"/>
<rect x="42.8853" y="270.99" width="6.03308" height="6.28623" fill="white"/>
<rect x="48.9165" y="270.99" width="6.03308" height="6.28623" fill="white"/>
<rect x="54.9507" y="270.99" width="6.03308" height="6.28623" fill="white"/>
<rect x="97.1826" y="270.99" width="6.03308" height="6.28623" fill="white"/>
<rect x="103.214" y="270.99" width="6.03308" height="6.28623" fill="white"/>
<rect x="151.481" y="270.99" width="6.03308" height="6.28623" fill="white"/>
<rect x="157.513" y="270.99" width="6.03308" height="6.28623" fill="white"/>
<rect x="205.779" y="270.99" width="6.03308" height="6.28623" fill="white"/>
<rect x="211.811" y="270.99" width="6.03308" height="6.28623" fill="white"/>
<rect x="254.042" y="270.99" width="6.03308" height="6.28623" fill="white"/>
<rect x="260.074" y="270.99" width="6.03308" height="6.28623" fill="white"/>
<rect x="266.108" y="270.99" width="6.03308" height="6.28623" fill="white"/>
<rect x="48.9165" y="277.277" width="6.03308" height="6.28623" fill="white"/>
<rect x="54.9507" y="277.277" width="6.03308" height="6.28623" fill="white"/>
<rect x="60.9827" y="277.277" width="6.03308" height="6.28623" fill="white"/>
<rect x="97.1826" y="277.277" width="6.03308" height="6.28623" fill="white"/>
<rect x="103.214" y="277.277" width="6.03308" height="6.28623" fill="white"/>
<rect x="109.248" y="277.277" width="6.03308" height="6.28623" fill="white"/>
<rect x="151.481" y="277.277" width="6.03308" height="6.28623" fill="white"/>
<rect x="157.513" y="277.277" width="6.03308" height="6.28623" fill="white"/>
<rect x="205.779" y="277.277" width="6.03308" height="6.28623" fill="white"/>
<rect x="211.811" y="277.277" width="6.03308" height="6.28623" fill="white"/>
<rect x="248.008" y="277.277" width="6.03308" height="6.28623" fill="white"/>
<rect x="254.042" y="277.277" width="6.03308" height="6.28623" fill="white"/>
<rect x="260.074" y="277.277" width="6.03308" height="6.28623" fill="white"/>
<rect x="54.9507" y="283.564" width="6.03308" height="6.28623" fill="white"/>
<rect x="60.9827" y="283.564" width="6.03308" height="6.28623" fill="white"/>
<rect x="67.0168" y="283.564" width="6.03308" height="6.28623" fill="white"/>
<rect x="103.214" y="283.564" width="6.03308" height="6.28623" fill="white"/>
<rect x="109.248" y="283.564" width="6.03308" height="6.28623" fill="white"/>
<rect x="151.481" y="283.564" width="6.03308" height="6.28623" fill="white"/>
<rect x="157.513" y="283.564" width="6.03308" height="6.28623" fill="white"/>
<rect x="199.744" y="283.564" width="6.03308" height="6.28623" fill="white"/>
<rect x="205.779" y="283.564" width="6.03308" height="6.28623" fill="white"/>
<rect x="241.977" y="283.564" width="6.03308" height="6.28623" fill="white"/>
<rect x="248.008" y="283.564" width="6.03308" height="6.28623" fill="white"/>
<rect x="254.042" y="283.564" width="6.03308" height="6.28623" fill="white"/>
<rect x="67.0168" y="289.85" width="6.03308" height="6.28623" fill="white"/>
<rect x="73.0508" y="289.85" width="6.03308" height="6.28623" fill="white"/>
<rect x="79.082" y="289.85" width="6.03308" height="6.28623" fill="white"/>
<rect x="109.248" y="289.85" width="6.03308" height="6.28623" fill="white"/>
<rect x="115.281" y="289.85" width="6.03308" height="6.28623" fill="white"/>
<rect x="151.481" y="289.85" width="6.03308" height="6.28623" fill="white"/>
<rect x="157.513" y="289.85" width="6.03308" height="6.28623" fill="white"/>
<rect x="193.71" y="289.85" width="6.03308" height="6.28623" fill="white"/>
<rect x="199.744" y="289.85" width="6.03308" height="6.28623" fill="white"/>
<rect x="229.911" y="289.85" width="6.03308" height="6.28623" fill="white"/>
<rect x="235.942" y="289.85" width="6.03308" height="6.28623" fill="white"/>
<rect x="241.977" y="289.85" width="6.03308" height="6.28623" fill="white"/>
<rect x="248.008" y="289.85" width="6.03308" height="6.28623" fill="white"/>
<rect x="73.0508" y="296.139" width="6.03308" height="6.28623" fill="white"/>
<rect x="79.082" y="296.139" width="6.03308" height="6.28623" fill="white"/>
<rect x="85.1167" y="296.139" width="6.03308" height="6.28623" fill="white"/>
<rect x="91.1482" y="296.139" width="6.03308" height="6.28623" fill="white"/>
<rect x="109.248" y="296.139" width="6.03308" height="6.28623" fill="white"/>
<rect x="115.281" y="296.139" width="6.03308" height="6.28623" fill="white"/>
<rect x="121.315" y="296.139" width="6.03308" height="6.28623" fill="white"/>
<rect x="151.481" y="296.139" width="6.03308" height="6.28623" fill="white"/>
<rect x="157.513" y="296.139" width="6.03308" height="6.28623" fill="white"/>
<rect x="187.678" y="296.139" width="6.03308" height="6.28623" fill="white"/>
<rect x="193.71" y="296.139" width="6.03308" height="6.28623" fill="white"/>
<rect x="199.744" y="296.139" width="6.03308" height="6.28623" fill="white"/>
<rect x="223.876" y="296.139" width="6.03308" height="6.28623" fill="white"/>
<rect x="229.911" y="296.139" width="6.03308" height="6.28623" fill="white"/>
<rect x="235.942" y="296.139" width="6.03308" height="6.28623" fill="white"/>
<rect x="85.1167" y="302.424" width="6.03308" height="6.28623" fill="white"/>
<rect x="91.1482" y="302.424" width="6.03308" height="6.28623" fill="white"/>
<rect x="97.1826" y="302.424" width="6.03308" height="6.28623" fill="white"/>
<rect x="103.214" y="302.424" width="6.03308" height="6.28623" fill="white"/>
<rect x="115.281" y="302.424" width="6.03308" height="6.28623" fill="white"/>
<rect x="121.315" y="302.424" width="6.03308" height="6.28623" fill="white"/>
<rect x="127.347" y="302.424" width="6.03308" height="6.28623" fill="white"/>
<rect x="151.481" y="302.424" width="6.03308" height="6.28623" fill="white"/>
<rect x="157.513" y="302.424" width="6.03308" height="6.28623" fill="white"/>
<rect x="181.644" y="302.424" width="6.03308" height="6.28623" fill="white"/>
<rect x="187.678" y="302.424" width="6.03308" height="6.28623" fill="white"/>
<rect x="193.71" y="302.424" width="6.03308" height="6.28623" fill="white"/>
<rect x="205.779" y="302.424" width="6.03308" height="6.28623" fill="white"/>
<rect x="211.811" y="302.424" width="6.03308" height="6.28623" fill="white"/>
<rect x="217.845" y="302.424" width="6.03308" height="6.28623" fill="white"/>
<rect x="223.876" y="302.424" width="6.03308" height="6.28623" fill="white"/>
<rect x="229.911" y="302.424" width="6.03308" height="6.28623" fill="white"/>
<rect x="97.1826" y="308.711" width="6.03308" height="6.28623" fill="white"/>
<rect x="103.214" y="308.711" width="6.03308" height="6.28623" fill="white"/>
<rect x="109.248" y="308.711" width="6.03308" height="6.28623" fill="white"/>
<rect x="115.281" y="308.711" width="6.03308" height="6.28623" fill="white"/>
<rect x="121.315" y="308.711" width="6.03308" height="6.28623" fill="white"/>
<rect x="127.347" y="308.711" width="6.03308" height="6.28623" fill="white"/>
<rect x="133.381" y="308.711" width="6.03308" height="6.28623" fill="white"/>
<rect x="139.415" y="308.711" width="6.03308" height="6.28623" fill="white"/>
<rect x="151.481" y="308.711" width="6.03308" height="6.28623" fill="white"/>
<rect x="157.513" y="308.711" width="6.03308" height="6.28623" fill="white"/>
<rect x="169.578" y="308.711" width="6.03308" height="6.28623" fill="white"/>
<rect x="175.612" y="308.711" width="6.03308" height="6.28623" fill="white"/>
<rect x="181.644" y="308.711" width="6.03308" height="6.28623" fill="white"/>
<rect x="187.678" y="308.711" width="6.03308" height="6.28623" fill="white"/>
<rect x="193.71" y="308.711" width="6.03308" height="6.28623" fill="white"/>
<rect x="199.744" y="308.711" width="6.03308" height="6.28623" fill="white"/>
<rect x="205.779" y="308.711" width="6.03308" height="6.28623" fill="white"/>
<rect x="211.811" y="308.711" width="6.03308" height="6.28623" fill="white"/>
<rect x="217.845" y="308.711" width="6.03308" height="6.28623" fill="white"/>
<rect x="109.248" y="314.996" width="6.03308" height="6.28623" fill="white"/>
<rect x="115.281" y="314.996" width="6.03308" height="6.28623" fill="white"/>
<rect x="121.315" y="314.996" width="6.03308" height="6.28623" fill="white"/>
<rect x="127.347" y="314.996" width="6.03308" height="6.28623" fill="white"/>
<rect x="133.381" y="314.996" width="6.03308" height="6.28623" fill="white"/>
<rect x="139.415" y="314.996" width="6.03308" height="6.28623" fill="white"/>
<rect x="145.447" y="314.996" width="6.03308" height="6.28623" fill="white"/>
<rect x="151.481" y="314.996" width="6.03308" height="6.28623" fill="white"/>
<rect x="157.513" y="314.996" width="6.03308" height="6.28623" fill="white"/>
<rect x="163.546" y="314.996" width="6.03308" height="6.28623" fill="white"/>
<rect x="169.578" y="314.996" width="6.03308" height="6.28623" fill="white"/>
<rect x="175.612" y="314.996" width="6.03308" height="6.28623" fill="white"/>
<rect x="181.644" y="314.996" width="6.03308" height="6.28623" fill="white"/>
<rect x="187.678" y="314.996" width="6.03308" height="6.28623" fill="white"/>
<rect x="193.71" y="314.996" width="6.03308" height="6.28623" fill="white"/>
<rect x="199.744" y="314.996" width="6.03308" height="6.28623" fill="white"/>
<rect x="139.415" y="321.281" width="6.03308" height="6.28623" fill="white"/>
<rect x="145.447" y="321.281" width="6.03308" height="6.28623" fill="white"/>
<rect x="151.481" y="321.281" width="6.03308" height="6.28623" fill="white"/>
<rect x="157.513" y="321.281" width="6.03308" height="6.28623" fill="white"/>
<rect x="163.546" y="321.281" width="6.03308" height="6.28623" fill="white"/>
<rect x="169.578" y="321.281" width="6.03308" height="6.28623" fill="white"/>
</svg>
