<svg width="274" height="322" viewBox="0 0 274 322" fill="none" xmlns="http://www.w3.org/2000/svg">
<path d="M0.609863 134.283V241.39H5.96457V236.036H16.674V230.681H22.0287V225.326H32.7381V219.971H43.4475V214.617H54.1569V209.262H59.5116V203.907H70.221V198.553H80.9305V193.198H91.6399V187.843H96.9946V182.488H107.704V177.134H118.418V171.779H123.772V166.424H134.482V161.07H139.837V53.9627H134.482V59.3174H129.127V64.6721H118.418V0.398438H113.063V5.75314H102.349V11.1079H91.6399V16.4626H86.2852V21.8173H75.5758V27.172H64.8663V32.5267H59.5116V37.8814H48.8022V43.2361H38.0928V48.5908H27.3834V53.9455H22.0287V123.565H16.674V128.92H5.96457V134.275H0.609863V134.283ZM54.1655 128.929H64.8749V123.574H70.2296V118.219H80.939V112.864H86.2937V128.929H80.939V134.283H75.5843V161.061H70.2296V166.416H64.8749V144.993H54.1655V128.924V128.929ZM38.0971 64.6635H43.4518V59.3088H54.1612V53.9541H64.8706V48.5994H70.2253V43.2447H80.9347V37.89H91.6442V32.5353H102.354V75.3772H96.9989V80.7319H91.6442V86.0866H80.9347V91.4413H70.2253V96.796H64.8706V102.151H54.1612V107.505H43.4518V112.86H38.0971V64.6635V64.6635Z" fill="#17FF3D"/>
<path d="M118.431 64.6635H129.14V70.0182H118.431V75.3729H113.076V0.398438H118.431V64.6635Z" fill="#17FF3D"/>
<path d="M22.033 53.9531H27.3877V128.928H16.6783V123.573H22.033V53.9531Z" fill="#17FF3D"/>
<path d="M38.0971 48.5957H27.3877V53.9504H38.0971V48.5957Z" fill="#17FF3D"/>
<path d="M113.072 5.75391H107.717V11.1086H113.072V5.75391Z" fill="#17FF3D"/>
<path d="M102.362 11.1074H97.0075V16.4621H102.362V11.1074Z" fill="#17FF3D"/>
<path d="M107.717 5.75391H102.362V11.1086H107.717V5.75391Z" fill="#17FF3D"/>
<path d="M91.6528 16.4668H86.2981V21.8215H91.6528V16.4668Z" fill="#17FF3D"/>
<path d="M97.0075 11.1074H91.6528V16.4621H97.0075V11.1074Z" fill="#17FF3D"/>
<path d="M86.298 21.8223H80.9433V27.177H86.298V21.8223Z" fill="#17FF3D"/>
<path d="M80.939 21.8223H75.5843V27.177H80.939V21.8223Z" fill="#17FF3D"/>
<path d="M75.5843 27.1758H64.8749V32.5305H75.5843V27.1758Z" fill="#17FF3D"/>
<path d="M59.5202 37.8848H48.8108V43.2395H59.5202V37.8848Z" fill="#17FF3D"/>
<path d="M64.8749 32.5312H59.5202V37.886H64.8749V32.5312Z" fill="#17FF3D"/>
<path d="M48.8065 43.2402H38.0971V48.5949H48.8065V43.2402Z" fill="#17FF3D"/>
<path d="M134.495 53.9531H139.849V161.06H134.495V64.6625H129.14V59.3078H134.495V53.9531Z" fill="#17FF3D"/>
<path d="M134.495 161.061H129.14V166.415H134.495V161.061Z" fill="#17FF3D"/>
<path d="M129.14 161.061H123.785V166.415H129.14V161.061Z" fill="#17FF3D"/>
<path d="M123.785 166.416H118.431V171.771H123.785V166.416Z" fill="#17FF3D"/>
<path d="M118.431 171.771H113.076V177.126H118.431V171.771Z" fill="#17FF3D"/>
<path d="M113.072 171.771H107.717V177.126H113.072V171.771Z" fill="#17FF3D"/>
<path d="M107.717 177.129H97.0075V182.484H107.717V177.129Z" fill="#17FF3D"/>
<path d="M97.0075 182.484H91.6528V187.839H97.0075V182.484Z" fill="#17FF3D"/>
<path d="M91.6527 187.84H80.9433V193.195H91.6527V187.84Z" fill="#17FF3D"/>
<path d="M75.5843 193.193H70.2296V198.548H75.5843V193.193Z" fill="#17FF3D"/>
<path d="M70.2296 198.549H64.8749V203.904H70.2296V198.549Z" fill="#17FF3D"/>
<path d="M59.5202 203.902H54.1655V209.257H59.5202V203.902Z" fill="#17FF3D"/>
<path d="M64.8749 198.549H59.5202V203.904H64.8749V198.549Z" fill="#17FF3D"/>
<path d="M54.1655 209.258H48.8108V214.613H54.1655V209.258Z" fill="#17FF3D"/>
<path d="M48.8065 209.258H43.4518V214.613H48.8065V209.258Z" fill="#17FF3D"/>
<path d="M43.4518 214.617H38.0971V219.972H43.4518V214.617Z" fill="#17FF3D"/>
<path d="M22.033 225.326H16.6783V230.681H22.033V225.326Z" fill="#17FF3D"/>
<path d="M38.0971 214.617H32.7424V219.972H38.0971V214.617Z" fill="#17FF3D"/>
<path d="M32.7424 219.971H22.033V225.325H32.7424V219.971Z" fill="#17FF3D"/>
<path d="M16.674 230.682H5.96457V236.036H16.674V230.682Z" fill="#17FF3D"/>
<path d="M80.939 193.193H75.5843V198.548H80.939V193.193Z" fill="#17FF3D"/>
<path d="M5.96457 134.283H0.609863V241.39H5.96457V134.283Z" fill="#17FF3D"/>
<path d="M16.674 128.93H5.96457V134.284H16.674V128.93Z" fill="#17FF3D"/>
<path d="M64.8749 123.574H54.1655V128.929H64.8749V123.574Z" fill="#17FF3D"/>
<path d="M54.1655 144.998H64.8749V171.772H59.5202V150.353H54.1655V155.708H48.8108V128.93H54.1655V144.998Z" fill="#17FF3D"/>
<path d="M75.5843 161.061H70.2296V166.415H75.5843V161.061Z" fill="#17FF3D"/>
<path d="M70.2296 166.416H64.8749V171.771H70.2296V166.416Z" fill="#17FF3D"/>
<path d="M80.939 134.283H75.5843V166.416H80.939V134.283Z" fill="#17FF3D"/>
<path d="M91.6527 134.284H80.9433V128.929H86.298V112.865H80.9433V107.506H91.6527V134.284Z" fill="#17FF3D"/>
<path d="M80.939 112.865H75.5843V118.22H80.939V112.865Z" fill="#17FF3D"/>
<path d="M75.5843 112.865H70.2296V118.22H75.5843V112.865Z" fill="#17FF3D"/>
<path d="M70.2296 118.219H64.8749V123.573H70.2296V118.219Z" fill="#17FF3D"/>
<path d="M97.0075 80.7266H91.6528V86.0813H97.0075V80.7266Z" fill="#17FF3D"/>
<path d="M91.6527 86.0859H80.9433V91.4406H91.6527V86.0859Z" fill="#17FF3D"/>
<path d="M80.939 91.4414H75.5843V96.7961H80.939V91.4414Z" fill="#17FF3D"/>
<path d="M75.5843 91.4414H70.2296V96.7961H75.5843V91.4414Z" fill="#17FF3D"/>
<path d="M70.2296 96.7949H64.8749V102.15H70.2296V96.7949Z" fill="#17FF3D"/>
<path d="M64.8749 102.15H54.1655V107.505H64.8749V102.15Z" fill="#17FF3D"/>
<path d="M54.1655 107.506H48.8108V112.861H54.1655V107.506Z" fill="#17FF3D"/>
<path d="M48.8065 107.506H43.4518V112.861H48.8065V107.506Z" fill="#17FF3D"/>
<path d="M43.4518 112.865H38.0971V118.22H43.4518V112.865Z" fill="#17FF3D"/>
<path d="M102.362 21.8223H107.717V80.7283H97.0075V75.3736H102.362V32.5317H97.0075V27.177H102.362V21.8223Z" fill="#17FF3D"/>
<path d="M38.0971 59.3086H32.7424V118.219H38.0971V59.3086Z" fill="#17FF3D"/>
<path d="M97.0075 27.1758H91.6528V32.5305H97.0075V27.1758Z" fill="#17FF3D"/>
<path d="M91.6527 32.5312H80.9433V37.886H91.6527V32.5312Z" fill="#17FF3D"/>
<path d="M80.939 37.8848H75.5843V43.2395H80.939V37.8848Z" fill="#17FF3D"/>
<path d="M75.5843 37.8848H70.2296V43.2395H75.5843V37.8848Z" fill="#17FF3D"/>
<path d="M70.2296 43.2402H64.8749V48.5949H70.2296V43.2402Z" fill="#17FF3D"/>
<path d="M64.8749 48.5957H54.1655V53.9504H64.8749V48.5957Z" fill="#17FF3D"/>
<path d="M54.1655 53.9531H48.8108V59.3078H54.1655V53.9531Z" fill="#17FF3D"/>
<path d="M43.4518 59.3086H38.0971V64.6633H43.4518V59.3086Z" fill="#17FF3D"/>
<path d="M48.8065 53.9531H43.4518V59.3078H48.8065V53.9531Z" fill="#17FF3D"/>
<path d="M268.255 134.283V128.929H257.546V123.574H252.191V53.9541H246.836V48.5994H236.127V43.2447H225.418V37.89H214.708V32.5352H209.353V27.1805H198.644V21.8258H187.935V16.4711H182.58V11.1164H171.87V5.76172H161.161V0.398438H155.806V64.6635H145.097V59.3088H139.742V53.9541H134.37V161.061H139.725V166.416H150.434V171.77H155.789V177.125H166.499V182.48H177.208V187.835H182.563V193.189H193.272V198.544H203.982V203.899H214.691V209.253H220.046V214.608H230.755V219.963H241.464V225.318H252.174V230.672H257.529V236.027H268.238V241.382H273.593V134.275H268.238L268.255 134.283ZM220.059 144.993H209.349V166.416H203.994V161.061H198.64V134.283H193.285V128.929H187.93V112.864H193.285V118.219H203.994V123.574H209.349V128.929H220.059V144.997V144.993ZM236.127 112.86H230.772V107.505H220.063V102.151H209.353V96.796H203.999V91.4413H193.289V86.0866H182.58V80.7319H177.225V75.3772H171.87V32.5352H182.58V37.89H193.289V43.2447H203.999V48.5994H209.353V53.9541H220.063V59.3088H230.772V64.6635H236.127V112.86V112.86Z" fill="#17FF3D"/>
<path d="M155.793 64.6635H145.08V70.0182H155.793V75.3729H161.148V0.398438H155.793V64.6635Z" fill="#17FF3D"/>
<path d="M252.191 53.9531H246.836V128.928H257.546V123.573H252.191V53.9531Z" fill="#17FF3D"/>
<path d="M246.832 48.5957H236.123V53.9504H246.832V48.5957Z" fill="#17FF3D"/>
<path d="M166.503 5.75391H161.148V11.1086H166.503V5.75391Z" fill="#17FF3D"/>
<path d="M177.212 11.1074H171.858V16.4621H177.212V11.1074Z" fill="#17FF3D"/>
<path d="M171.858 5.75391H166.503V11.1086H171.858V5.75391Z" fill="#17FF3D"/>
<path d="M187.922 16.4668H182.567V21.8215H187.922V16.4668Z" fill="#17FF3D"/>
<path d="M182.567 11.1074H177.212V16.4621H182.567V11.1074Z" fill="#17FF3D"/>
<path d="M193.281 21.8223H187.926V27.177H193.281V21.8223Z" fill="#17FF3D"/>
<path d="M198.635 21.8223H193.281V27.177H198.635V21.8223Z" fill="#17FF3D"/>
<path d="M209.345 27.1758H198.635V32.5305H209.345V27.1758Z" fill="#17FF3D"/>
<path d="M225.413 37.8848H214.704V43.2395H225.413V37.8848Z" fill="#17FF3D"/>
<path d="M214.704 32.5312H209.349V37.886H214.704V32.5312Z" fill="#17FF3D"/>
<path d="M236.123 43.2402H225.413V48.5949H236.123V43.2402Z" fill="#17FF3D"/>
<path d="M139.725 53.9531H134.37V161.06H139.725V64.6625H145.08V59.3078H139.725V53.9531Z" fill="#17FF3D"/>
<path d="M145.08 161.061H139.725V166.415H145.08V161.061Z" fill="#17FF3D"/>
<path d="M150.434 161.061H145.08V166.415H150.434V161.061Z" fill="#17FF3D"/>
<path d="M155.789 166.416H150.434V171.771H155.789V166.416Z" fill="#17FF3D"/>
<path d="M161.148 171.771H155.793V177.126H161.148V171.771Z" fill="#17FF3D"/>
<path d="M166.503 171.771H161.148V177.126H166.503V171.771Z" fill="#17FF3D"/>
<path d="M177.212 177.129H166.503V182.484H177.212V177.129Z" fill="#17FF3D"/>
<path d="M182.567 182.484H177.212V187.839H182.567V182.484Z" fill="#17FF3D"/>
<path d="M193.281 187.84H182.571V193.195H193.281V187.84Z" fill="#17FF3D"/>
<path d="M203.99 193.193H198.635V198.548H203.99V193.193Z" fill="#17FF3D"/>
<path d="M209.345 198.549H203.99V203.904H209.345V198.549Z" fill="#17FF3D"/>
<path d="M220.058 203.902H214.704V209.257H220.058V203.902Z" fill="#17FF3D"/>
<path d="M214.704 198.549H209.349V203.904H214.704V198.549Z" fill="#17FF3D"/>
<path d="M225.413 209.258H220.059V214.613H225.413V209.258Z" fill="#17FF3D"/>
<path d="M230.768 209.258H225.413V214.613H230.768V209.258Z" fill="#17FF3D"/>
<path d="M236.123 214.617H230.768V219.972H236.123V214.617Z" fill="#17FF3D"/>
<path d="M257.546 225.326H252.191V230.681H257.546V225.326Z" fill="#17FF3D"/>
<path d="M241.477 214.617H236.123V219.972H241.477V214.617Z" fill="#17FF3D"/>
<path d="M252.187 219.971H241.477V225.325H252.187V219.971Z" fill="#17FF3D"/>
<path d="M268.255 230.682H257.546V236.036H268.255V230.682Z" fill="#17FF3D"/>
<path d="M198.635 193.193H193.281V198.548H198.635V193.193Z" fill="#17FF3D"/>
<path d="M273.61 134.283H268.255V241.39H273.61V134.283Z" fill="#17FF3D"/>
<path d="M268.255 128.93H257.546V134.284H268.255V128.93Z" fill="#17FF3D"/>
<path d="M220.059 123.574H209.349V128.929H220.059V123.574Z" fill="#17FF3D"/>
<path d="M220.059 144.998H209.349V171.772H214.704V150.353H220.059V155.708H225.413V128.93H220.059V144.998Z" fill="#17FF3D"/>
<path d="M203.99 161.061H198.635V166.415H203.99V161.061Z" fill="#17FF3D"/>
<path d="M209.345 166.416H203.99V171.771H209.345V166.416Z" fill="#17FF3D"/>
<path d="M198.635 134.283H193.281V166.416H198.635V134.283Z" fill="#17FF3D"/>
<path d="M182.567 134.284H193.281V128.929H187.926V112.865H193.281V107.506H182.567V134.284Z" fill="#17FF3D"/>
<path d="M198.635 112.865H193.281V118.22H198.635V112.865Z" fill="#17FF3D"/>
<path d="M203.99 112.865H198.635V118.22H203.99V112.865Z" fill="#17FF3D"/>
<path d="M209.345 118.219H203.99V123.573H209.345V118.219Z" fill="#17FF3D"/>
<path d="M182.567 80.7324H177.212V86.0871H182.567V80.7324Z" fill="#17FF3D"/>
<path d="M193.281 86.0859H182.571V91.4406H193.281V86.0859Z" fill="#17FF3D"/>
<path d="M198.635 91.4414H193.281V96.7961H198.635V91.4414Z" fill="#17FF3D"/>
<path d="M203.99 91.4414H198.635V96.7961H203.99V91.4414Z" fill="#17FF3D"/>
<path d="M209.345 96.7949H203.99V102.15H209.345V96.7949Z" fill="#17FF3D"/>
<path d="M220.059 102.15H209.349V107.505H220.059V102.15Z" fill="#17FF3D"/>
<path d="M225.413 107.506H220.059V112.861H225.413V107.506Z" fill="#17FF3D"/>
<path d="M230.768 107.506H225.413V112.861H230.768V107.506Z" fill="#17FF3D"/>
<path d="M236.123 112.865H230.768V118.22H236.123V112.865Z" fill="#17FF3D"/>
<path d="M171.858 21.8223H166.503V80.7326H177.212V75.3736H171.858V32.5317H177.212V27.177H171.858V21.8223Z" fill="#17FF3D"/>
<path d="M241.477 59.3086H236.123V118.219H241.477V59.3086Z" fill="#17FF3D"/>
<path d="M182.567 27.1758H177.212V32.5305H182.567V27.1758Z" fill="#17FF3D"/>
<path d="M193.281 32.5312H182.571V37.886H193.281V32.5312Z" fill="#17FF3D"/>
<path d="M198.635 37.8848H193.281V43.2395H198.635V37.8848Z" fill="#17FF3D"/>
<path d="M203.99 37.8848H198.635V43.2395H203.99V37.8848Z" fill="#17FF3D"/>
<path d="M209.345 43.2402H203.99V48.5949H209.345V43.2402Z" fill="#17FF3D"/>
<path d="M220.059 48.5957H209.349V53.9504H220.059V48.5957Z" fill="#17FF3D"/>
<path d="M225.413 53.9531H220.059V59.3078H225.413V53.9531Z" fill="#17FF3D"/>
<path d="M236.123 59.3086H230.768V64.6633H236.123V59.3086Z" fill="#17FF3D"/>
<path d="M230.768 53.9531H225.413V59.3078H230.768V53.9531Z" fill="#17FF3D"/>
<path d="M170.383 51.6168H192.762V73.43H170.383V51.6168Z" fill="#D9D9D9"/>
<path d="M71.0742 184.087H59.8803V173.54H49.0552V95.8392H59.8846V162.364H71.0785V184.087H71.0742Z" fill="#A1A3A7"/>
<path d="M104.214 51.6168V40.6973H170.439V51.6168H104.214Z" fill="#A1A3A7"/>
<path d="M214.815 95.8392H225.743V162.364H214.815V95.8392Z" fill="#A1A3A7"/>
<path d="M170.439 206.663V217.205H104.214V206.663H170.439Z" fill="#A1A3A7"/>
<path d="M214.815 162.364V184.087H203.707V195.298H192.762V184.087H203.707V162.364H214.815Z" fill="#A1A3A7"/>
<path d="M59.8846 95.8392V73.43H71.0785V95.8392H59.8846Z" fill="#A1A3A7"/>
<path d="M192.762 195.298V206.663H170.439V195.298H192.762Z" fill="#A1A3A7"/>
<path d="M214.815 73.43V95.8392H203.707V73.43H214.815Z" fill="#A1A3A7"/>
<path d="M170.439 51.6168H192.762V62.9178H170.439V51.6168Z" fill="#A1A3A7"/>
<path d="M81.9422 62.9178V51.6168H104.214V62.9178H81.9422Z" fill="#A1A3A7"/>
<path d="M104.214 206.663H81.9422V195.298H104.214V206.663Z" fill="#A1A3A7"/>
<path d="M81.9422 195.298H71.0742V184.087H81.9422V195.298Z" fill="#A1A3A7"/>
<path d="M71.0742 73.43V62.9178H81.9422V73.43H71.0742Z" fill="#A1A3A7"/>
<path d="M71.0742 73.43H81.9422V62.9178H104.214V73.43H81.9422V95.8392H92.9303V84.6753H104.214V73.4257H170.439V84.6753H181.692V95.8392H192.762V162.364H181.692V173.54H170.439V184.087H104.214V173.54H92.9303V162.364H81.9422V184.087L104.214 184.087V195.298H81.9422V184.087H71.0742V162.364H81.9422V95.8392H71.0742V73.43ZM148.389 84.6796H115.747V173.545H158.687V84.6753H148.389V84.6796Z" fill="#A2A2A2"/>
<path d="M59.8846 95.8392H71.0785V162.364H59.8846V95.8392Z" fill="#A2A2A2"/>
<path d="M104.214 62.9178V51.6168H170.439V62.9178H104.214Z" fill="#A2A2A2"/>
<path d="M203.707 95.8392H214.815V162.364H203.707V95.8392Z" fill="#A2A2A2"/>
<path d="M104.214 206.663V195.298H170.439V206.663H104.214Z" fill="#A2A2A2"/>
<path d="M170.439 184.087V173.54H181.692V162.364H192.762V195.298V184.087L170.439 184.087Z" fill="#C4C4C4"/>
<path d="M192.762 184.087V162.364H203.707V184.087H192.762Z" fill="#A2A2A2"/>
<path d="M170.439 184.087L192.762 184.087V195.298H170.439V184.087Z" fill="#A2A2A2"/>
<path d="M192.762 73.43H203.707V95.8392H192.762V73.43Z" fill="#A2A2A2"/>
<path d="M192.762 73.43V95.8392H181.692V73.43H192.762Z" fill="#C4C4C4"/>
<path d="M203.707 62.9178V73.43H192.762V62.9178H203.707Z" fill="#A1A3A7"/>
<path d="M148.394 84.6753H158.692V173.54H126.173V162.364H148.394V84.6753Z" fill="#C4C4C4"/>
<path d="M126.173 162.364V173.54H115.751V84.6753H148.394V95.8392H126.173V162.364Z" fill="#FEFEFE"/>
<path d="M170.439 184.087V195.298H104.214V184.087H170.439Z" fill="#C4C4C4"/>
<path d="M170.439 62.9178V73.43H104.214V62.9178H170.439Z" fill="#FEFEFE"/>
<path d="M71.0742 162.364V95.8392H81.9422V162.364H71.0742Z" fill="#FEFEFE"/>
<path d="M192.762 95.8392H203.707V162.364H192.762V95.8392Z" fill="#C4C4C4"/>
<path d="M104.214 73.43V84.6796H92.9303V95.8435H81.9422V73.4343H104.214V73.43Z" fill="#FEFEFE"/>
<path d="M104.214 184.087L81.9422 184.087V173.54H104.214V184.087Z" fill="#C4C4C4"/>
<path d="M170.439 73.43H181.692V84.6796H170.439V73.43Z" fill="#FEFEFE"/>
<path d="M92.9303 173.54H81.9422V162.364H92.9303V173.54Z" fill="#FEFEFE"/>
<path d="M126.173 162.364V95.8392H148.394V162.364H126.173Z" fill="#A2A2A2"/>
<path d="M134.495 214.455V209.1H123.785V203.746H118.431V134.126H113.076V128.771H102.366V123.417H91.657V118.062H80.9476V112.707H75.5929V107.352H64.8835V101.998H54.1741V96.643H48.8194V91.2883H38.11V85.9336H27.4005V80.5703H22.0458V144.835H11.3364V139.481H5.98172V134.126H0.609863V241.233H5.96457V246.588H16.674V251.942H22.0287V257.297H32.7381V262.652H43.4475V268.006H48.8022V273.361H59.5116V278.716H70.221V284.071H80.9305V289.425H86.2852V294.78H96.9946V300.135H107.704V305.489H118.413V310.844H123.768V316.199H134.478V321.554H139.832V214.447H134.478L134.495 214.455ZM86.298 225.165H75.5886V246.588H70.2339V241.233H64.8792V214.455H59.5245V209.1H54.1698V193.036H59.5245V198.391H70.2339V203.746H75.5886V209.1H86.298V225.169V225.165ZM102.366 193.032H97.0117V187.677H86.3023V182.323H75.5929V176.968H70.2382V171.613H59.5288V166.258H48.8194V160.904H43.4647V155.549H38.11V112.707H48.8194V118.062H59.5288V123.417H70.2382V128.771H75.5929V134.126H86.3023V139.481H97.0117V144.835H102.366V193.032V193.032Z" fill="white"/>
<path d="M134.37 214.455V321.562H139.725V316.207H150.434V310.853H155.789V305.498H166.499V300.143H177.208V294.789H187.917V289.434H193.272V284.079H203.982V278.724H214.691V273.37H225.4V268.015H230.755V262.66H241.464V257.306H252.178V251.951H257.533V246.596H268.242V241.242H273.597V134.135H268.242V139.489H262.888V144.844H252.178V80.5703H246.823V85.925H236.11V91.2797H225.4V96.6344H220.046V101.989H209.336V107.344H198.627V112.699H193.272V118.053H182.563V123.408H171.853V128.763H161.144V134.117H155.789V203.737H150.434V209.092H139.725V214.447H134.37V214.455ZM187.926 209.1H198.635V203.746H203.99V198.391H214.699V193.036H220.054V209.1H214.699V214.455H209.345V241.233H203.99V246.588H198.635V225.165H187.926V209.096V209.1ZM171.858 144.835H177.212V139.481H187.922V134.126H198.631V128.771H203.986V123.417H214.695V118.062H225.405V112.707H236.114V155.549H230.759V160.904H225.405V166.258H214.695V171.613H203.986V176.968H198.631V182.323H187.922V187.677H177.212V193.032H171.858V144.835V144.835Z" fill="white"/>
<path d="M252.191 144.835H262.9V150.19H252.191V155.545H246.836V80.5703H252.191V144.835Z" fill="white"/>
<path d="M155.793 134.125H161.148V209.099H150.439V203.745H155.793V134.125Z" fill="white"/>
<path d="M171.858 128.768H161.148V134.122H171.858V128.768Z" fill="white"/>
<path d="M246.832 85.9258H241.477V91.2805H246.832V85.9258Z" fill="white"/>
<path d="M236.123 91.2793H230.768V96.634H236.123V91.2793Z" fill="white"/>
<path d="M241.477 85.9258H236.123V91.2805H241.477V85.9258Z" fill="white"/>
<path d="M225.413 96.6387H220.058V101.993H225.413V96.6387Z" fill="white"/>
<path d="M230.768 91.2793H225.413V96.634H230.768V91.2793Z" fill="white"/>
<path d="M220.058 101.994H214.704V107.349H220.058V101.994Z" fill="white"/>
<path d="M214.699 101.994H209.345V107.349H214.699V101.994Z" fill="white"/>
<path d="M209.345 107.348H198.635V112.702H209.345V107.348Z" fill="white"/>
<path d="M193.281 118.057H182.571V123.411H193.281V118.057Z" fill="white"/>
<path d="M198.635 112.703H193.281V118.058H198.635V112.703Z" fill="white"/>
<path d="M182.567 123.412H171.858V128.767H182.567V123.412Z" fill="white"/>
<path d="M268.255 134.125H273.61V241.232H268.255V144.834H262.9V139.48H268.255V134.125Z" fill="white"/>
<path d="M268.255 241.232H262.9V246.587H268.255V241.232Z" fill="white"/>
<path d="M262.9 241.232H257.546V246.587H262.9V241.232Z" fill="white"/>
<path d="M257.546 246.588H252.191V251.943H257.546V246.588Z" fill="white"/>
<path d="M252.191 251.943H246.836V257.298H252.191V251.943Z" fill="white"/>
<path d="M246.832 251.943H241.477V257.298H246.832V251.943Z" fill="white"/>
<path d="M241.477 257.301H230.768V262.655H241.477V257.301Z" fill="white"/>
<path d="M230.768 262.656H225.413V268.011H230.768V262.656Z" fill="white"/>
<path d="M225.413 268.012H214.704V273.366H225.413V268.012Z" fill="white"/>
<path d="M209.345 273.365H203.99V278.72H209.345V273.365Z" fill="white"/>
<path d="M203.99 278.721H198.635V284.075H203.99V278.721Z" fill="white"/>
<path d="M193.281 284.074H187.926V289.429H193.281V284.074Z" fill="white"/>
<path d="M198.635 278.721H193.281V284.075H198.635V278.721Z" fill="white"/>
<path d="M187.926 289.43H182.571V294.784H187.926V289.43Z" fill="white"/>
<path d="M182.567 289.43H177.212V294.784H182.567V289.43Z" fill="white"/>
<path d="M177.212 294.789H171.858V300.144H177.212V294.789Z" fill="white"/>
<path d="M155.793 305.498H150.439V310.853H155.793V305.498Z" fill="white"/>
<path d="M171.858 294.789H166.503V300.144H171.858V294.789Z" fill="white"/>
<path d="M166.503 300.143H155.793V305.497H166.503V300.143Z" fill="white"/>
<path d="M150.434 310.854H139.725V316.208H150.434V310.854Z" fill="white"/>
<path d="M214.699 273.365H209.345V278.72H214.699V273.365Z" fill="white"/>
<path d="M139.725 214.455H134.37V321.562H139.725V214.455Z" fill="white"/>
<path d="M150.434 209.102H139.725V214.456H150.434V209.102Z" fill="white"/>
<path d="M198.635 203.746H187.926V209.101H198.635V203.746Z" fill="white"/>
<path d="M187.926 225.17H198.635V251.944H193.281V230.525H187.926V235.879H182.571V209.102H187.926V225.17Z" fill="white"/>
<path d="M209.345 241.232H203.99V246.587H209.345V241.232Z" fill="white"/>
<path d="M203.99 246.588H198.635V251.943H203.99V246.588Z" fill="white"/>
<path d="M214.699 214.455H209.345V246.588H214.699V214.455Z" fill="white"/>
<path d="M225.413 214.456H214.704V209.101H220.058V193.037H214.704V187.678H225.413V214.456Z" fill="white"/>
<path d="M214.699 193.037H209.345V198.392H214.699V193.037Z" fill="white"/>
<path d="M209.345 193.037H203.99V198.392H209.345V193.037Z" fill="white"/>
<path d="M203.99 198.391H198.635V203.745H203.99V198.391Z" fill="white"/>
<path d="M230.768 160.898H225.413V166.253H230.768V160.898Z" fill="white"/>
<path d="M225.413 166.258H214.704V171.613H225.413V166.258Z" fill="white"/>
<path d="M214.699 171.613H209.345V176.968H214.699V171.613Z" fill="white"/>
<path d="M209.345 171.613H203.99V176.968H209.345V171.613Z" fill="white"/>
<path d="M203.99 176.967H198.635V182.321H203.99V176.967Z" fill="white"/>
<path d="M198.635 182.322H187.926V187.677H198.635V182.322Z" fill="white"/>
<path d="M187.926 187.678H182.571V193.032H187.926V187.678Z" fill="white"/>
<path d="M182.567 187.678H177.212V193.032H182.567V187.678Z" fill="white"/>
<path d="M177.212 193.037H171.858V198.392H177.212V193.037Z" fill="white"/>
<path d="M236.123 101.994H241.477V160.9H230.768V155.545H236.123V112.704H230.768V107.349H236.123V101.994Z" fill="white"/>
<path d="M171.858 139.48H166.503V198.391H171.858V139.48Z" fill="white"/>
<path d="M230.768 107.348H225.413V112.702H230.768V107.348Z" fill="white"/>
<path d="M225.413 112.703H214.704V118.058H225.413V112.703Z" fill="white"/>
<path d="M214.699 118.057H209.345V123.411H214.699V118.057Z" fill="white"/>
<path d="M209.345 118.057H203.99V123.411H209.345V118.057Z" fill="white"/>
<path d="M203.99 123.412H198.635V128.767H203.99V123.412Z" fill="white"/>
<path d="M198.635 128.768H187.926V134.122H198.635V128.768Z" fill="white"/>
<path d="M187.926 134.125H182.571V139.48H187.926V134.125Z" fill="white"/>
<path d="M177.212 139.48H171.858V144.835H177.212V139.48Z" fill="white"/>
<path d="M182.567 134.125H177.212V139.48H182.567V134.125Z" fill="white"/>
</svg>
