<svg width="128" height="128" viewBox="0 0 128 128" fill="none" xmlns="http://www.w3.org/2000/svg">
<path d="M16.7602 103.632H8.74449V96.1814H0.925293V40.5957H8.63608V88.1825H16.6585C16.6924 93.3367 16.7263 98.4842 16.7602 103.638V103.632Z" fill="#A1A3A7"/>
<path d="M40.5023 8.77577V0.939453H87.9527V8.76222C72.1314 8.76222 56.3033 8.76222 40.4819 8.76222L40.4955 8.78254L40.5023 8.77577Z" fill="#A1A3A7"/>
<path d="M119.792 40.6092H127.625V88.0132H119.765L119.805 88.0538C119.805 72.2322 119.805 56.4106 119.805 40.5957L119.785 40.616L119.792 40.6092Z" fill="#A1A3A7"/>
<path d="M87.9187 119.852V127.425H40.536V119.846L40.4954 119.886C56.3167 119.886 72.1448 119.886 87.9661 119.886L87.9255 119.852H87.9187Z" fill="#A1A3A7"/>
<path d="M119.771 88.0126V103.746H111.999V111.671H104.16L104.194 111.725C104.187 109.083 104.173 106.442 104.167 103.8H111.837V88.1752C114.493 88.1345 117.149 88.0939 119.805 88.0465L119.764 88.0059L119.771 88.0126Z" fill="#A1A3A7"/>
<path d="M8.64313 40.5939V24.3591H16.8011L16.774 24.332C16.7266 29.6894 16.6791 35.0536 16.6317 40.411C13.9689 40.472 11.2992 40.533 8.63635 40.5939H8.64313Z" fill="#A1A3A7"/>
<path d="M104.16 111.678V119.853C98.4415 119.853 93.1835 119.853 87.9255 119.853L87.9662 119.887L88.0272 111.827C93.2784 111.759 98.5296 111.685 103.781 111.617L103.95 111.814L104.194 111.726L104.16 111.671V111.678Z" fill="#A1A3A7"/>
<path d="M111.655 24.3465H119.793C119.793 29.9545 119.793 35.2781 119.793 40.6016L119.813 40.5813C117.17 40.5339 114.528 40.4797 111.885 40.4323C111.811 35.0613 111.743 29.6904 111.669 24.3262L111.648 24.3465H111.655Z" fill="#A1A3A7"/>
<path d="M87.9524 8.76263H104.187V16.924L104.207 16.9037C104.031 16.8021 103.902 16.8428 103.808 17.0189C98.57 16.9173 93.3323 16.8089 88.1015 16.7073C88.054 14.0591 88.0066 11.4109 87.9659 8.75586L87.9524 8.76263Z" fill="#A1A3A7"/>
<path d="M24.2411 16.9027C24.3834 14.2612 24.5257 11.6266 24.6815 8.76837C30.0547 8.76837 35.2788 8.76837 40.5028 8.76837L40.4893 8.74805C40.4419 11.4234 40.4012 14.0919 40.3538 16.7672C34.9806 16.8079 29.6007 16.8485 24.2275 16.8891L24.2411 16.9027V16.9027Z" fill="#A1A3A7"/>
<path d="M40.5365 119.846H24.7152C24.5661 117.015 24.4239 114.36 24.2816 111.705L24.2341 111.752C29.6412 111.766 35.0414 111.786 40.4485 111.8C40.462 114.496 40.4823 117.191 40.4959 119.887L40.5365 119.846V119.846Z" fill="#A1A3A7"/>
<path d="M24.2821 111.697H16.7678V103.631C19.2206 103.631 21.6735 103.631 24.2347 103.631V111.738L24.2821 111.691V111.697Z" fill="#A1A3A7"/>
<path d="M16.8015 24.3544V16.9042C19.3695 16.9042 21.8088 16.9042 24.2413 16.9042L24.2277 16.8906V24.3273H16.7744L16.8015 24.3544V24.3544Z" fill="#A1A3A7"/>
<path d="M16.7729 24.3321H24.2262V16.8954C29.5994 16.8547 34.9793 16.8141 40.3525 16.7734L40.5354 16.9292C40.5286 19.4013 40.5219 21.8735 40.5083 24.3456C35.352 24.3456 30.2024 24.3456 24.8699 24.3456V40.2756H32.4994V32.2971H40.4541V24.2914L87.9588 24.3795L87.9045 24.3253V32.4122H95.9338V40.6278H104.207L104.173 40.5939V88.0453L104.207 88.0114H96.2319C96.0761 91.0186 95.9541 93.4095 95.8186 95.9358C93.0744 96.0713 90.6758 96.1932 87.9045 96.3286V103.623L87.9384 103.589C72.1171 103.603 56.2958 103.616 40.4676 103.63C40.4676 101.232 40.4676 98.8346 40.4676 95.9968H32.269V88.262H24.504C24.6328 91.0119 24.7479 93.5449 24.8631 96.078V103.596H40.5015C40.5015 106.305 40.5015 109.021 40.5015 111.73L40.4202 111.805C35.0132 111.791 29.6129 111.771 24.2059 111.757C24.2059 109.211 24.2059 106.664 24.2059 103.65C21.6447 103.65 19.1918 103.65 16.739 103.65C16.7052 98.496 16.6713 93.3485 16.6374 88.1943L16.8 88.0047H24.1178V40.6278H16.7729L16.6035 40.4111C16.6509 35.0537 16.6984 29.6895 16.7458 24.3321H16.7729ZM72.1713 32.6086H48.7476V95.9968H79.5433V32.6018C76.8737 32.6018 74.5225 32.6018 72.1713 32.6018V32.6086Z" fill="black"/>
<path d="M8.63635 40.5891C11.2992 40.5282 13.9689 40.4672 16.6317 40.4062L16.8011 40.623C16.8079 56.4108 16.8147 72.1985 16.8214 87.9863L16.6588 88.1759C14.1044 88.1759 11.5431 88.1759 8.63635 88.1759V40.5891V40.5891Z" fill="black"/>
<path d="M40.3532 16.775C40.4006 14.0997 40.4413 11.4312 40.4887 8.75586C56.3101 8.75586 72.1382 8.75586 87.9595 8.75586C88.0069 11.4041 88.0544 14.0523 88.095 16.7073L87.9121 16.924C72.1178 16.924 56.3236 16.9241 40.5294 16.9308L40.3464 16.775H40.3532Z" fill="black"/>
<path d="M111.885 40.4384C114.528 40.4858 117.17 40.54 119.813 40.5874C119.813 56.4091 119.813 72.2307 119.813 88.0456C117.157 88.0862 114.501 88.1268 111.845 88.1742L111.655 88.0185V40.6145L111.892 40.4316L111.885 40.4384Z" fill="black"/>
<path d="M40.4893 119.886C40.4758 117.19 40.4554 114.495 40.4419 111.799L40.5232 111.725C56.3242 111.725 72.1252 111.725 87.9262 111.725L88.0211 111.833C88.0008 114.522 87.9804 117.204 87.9601 119.893C72.1388 119.893 56.3107 119.893 40.4893 119.893V119.886Z" fill="black"/>
<path d="M87.9255 103.623V96.3289C90.6968 96.1935 93.0887 96.0715 95.8396 95.9361C95.9683 93.4098 96.0971 91.0189 96.2529 88.0117C98.9768 88.0117 101.599 88.0117 104.228 88.0117C104.208 93.2743 104.194 98.5369 104.174 103.806C104.181 106.448 104.194 109.089 104.201 111.731L103.957 111.819L103.788 111.622C103.645 109.089 103.503 106.563 103.347 103.623H87.9391H87.9255Z" fill="#17FF3D"/>
<path d="M104.16 103.8C104.18 98.5378 104.194 93.2752 104.214 88.0059L104.18 88.0397C106.667 88.033 109.154 88.0194 111.647 88.0126L111.837 88.1684C111.837 93.2075 111.837 98.2466 111.837 103.794H104.167L104.16 103.8Z" fill="black"/>
<path d="M87.9255 103.624H103.334C103.496 106.563 103.638 109.089 103.774 111.623C98.5228 111.69 93.2716 111.765 88.0272 111.833L87.9323 111.724C87.9459 109.015 87.9526 106.299 87.9662 103.59L87.9323 103.624H87.9255Z" fill="black"/>
<path d="M104.607 24.5903C106.965 24.5023 109.316 24.4142 111.674 24.3262C111.748 29.6971 111.816 35.0681 111.891 40.4323L111.654 40.6151C109.167 40.6084 106.673 40.6016 104.187 40.5948L104.221 40.6287C104.349 35.2848 104.478 29.9342 104.607 24.5903Z" fill="black"/>
<path d="M104.608 24.5917C104.479 29.9355 104.35 35.2862 104.221 40.63C101.687 40.63 99.1599 40.63 95.9482 40.63C95.9482 37.6364 95.9482 35.022 95.9482 32.4077C95.9482 29.7933 95.9618 27.1857 95.9686 24.5781C98.374 24.4494 100.773 24.3275 103.341 24.1921C103.51 21.6116 103.666 19.3155 103.815 17.0195C103.91 16.8434 104.038 16.8028 104.215 16.9043C104.35 19.4713 104.479 22.0315 104.614 24.5984L104.608 24.5917Z" fill="#17FF3D"/>
<path d="M104.187 16.9168H111.647V24.3467L111.667 24.3264C109.309 24.4145 106.958 24.5025 104.6 24.5906L104.201 16.8965L104.18 16.9168H104.187Z" fill="#A1A3A7"/>
<path d="M72.1722 32.6016H79.5442V95.9897C71.7589 95.9897 63.9194 95.9897 56.0798 95.9897C56.1747 93.3415 56.2628 90.6932 56.3576 88.045H72.1383V40.3972C72.1451 37.8032 72.1586 35.2024 72.1654 32.6083L72.1722 32.6016Z" fill="#17FF3D"/>
<path d="M56.365 88.0518C56.2701 90.7 56.1821 93.3483 56.0872 95.9965C53.736 95.9965 51.3848 95.9965 48.7559 95.9965V32.6016C56.4937 32.6016 64.34 32.6016 72.1796 32.6016C72.1728 35.1956 72.1592 37.7964 72.1525 40.3905C66.9081 40.3905 61.6636 40.3905 56.3718 40.3905V88.0518H56.365Z" fill="#FEFEFE"/>
<path d="M87.9595 103.584C87.9459 106.293 87.9392 109.009 87.9256 111.718C72.1246 111.718 56.3236 111.718 40.5226 111.718C40.5226 109.009 40.5226 106.293 40.5226 103.584L40.4819 103.625C56.3033 103.611 72.1246 103.598 87.9527 103.584H87.9595Z" fill="#17FF3D"/>
<path d="M87.9191 16.9238C87.9327 19.4095 87.953 21.8952 87.9666 24.3809C72.1317 24.3538 56.2968 24.3199 40.4619 24.2928L40.5161 24.347C40.5229 21.8749 40.5297 19.4027 40.5432 16.9306C56.3375 16.9306 72.1317 16.9306 87.9259 16.9238H87.9191Z" fill="#FEFEFE"/>
<path d="M16.8282 87.9844C16.8214 72.1966 16.8146 56.4089 16.8079 40.6211C19.159 40.6211 21.5102 40.6211 24.1528 40.6211V87.9844H16.835H16.8282Z" fill="#FEFEFE"/>
<path d="M104.18 40.5957C106.667 40.6025 109.16 40.6093 111.647 40.616C111.647 56.4173 111.647 72.2187 111.647 88.02C109.16 88.0267 106.674 88.0403 104.18 88.0471C104.18 72.2322 104.18 56.4106 104.18 40.5957V40.5957Z" fill="#17FF3D"/>
<path d="M40.4616 24.293V32.2986H32.5069V40.2772H24.8774V24.3472C30.2099 24.3472 35.3663 24.3472 40.5158 24.3472L40.4616 24.293V24.293Z" fill="#FEFEFE"/>
<path d="M40.5293 103.584H24.8909C24.8909 100.888 24.8909 98.4768 24.8909 96.0656C27.3572 96.0386 29.8236 96.0115 32.29 95.9844H40.4886C40.4886 98.8222 40.4886 101.22 40.4886 103.618L40.5293 103.577V103.584Z" fill="#17FF3D"/>
<path d="M87.9121 24.3262C90.5953 24.4074 93.2785 24.4955 95.9617 24.5768C95.9617 27.1911 95.9481 29.7987 95.9413 32.4131C93.4682 32.4131 90.9951 32.4131 87.9121 32.4131V24.3262Z" fill="#FEFEFE"/>
<path d="M32.2973 95.9906C29.8309 96.0177 27.3645 96.0448 24.8982 96.0719C24.783 93.5388 24.661 91.0057 24.5391 88.2559H32.3041V95.9906H32.2973Z" fill="#FEFEFE"/>
<path d="M56.3647 88.0539V40.3926C61.6566 40.3926 66.901 40.3926 72.1454 40.3926C72.1454 56.0449 72.1454 71.6972 72.1454 88.0471H56.3647V88.0539Z" fill="black"/>
<path d="M104.127 17.0039H88.0413V24.4813H104.127V17.0039Z" fill="black"/>
</svg>
