<svg width="1440" height="1504" viewBox="0 0 1440 1504" fill="none" xmlns="http://www.w3.org/2000/svg">
<rect x="490.581" y="119.604" width="43.2472" height="43.2472" fill="#454545"/>
<rect x="533.828" y="119.604" width="43.2472" height="43.2472" fill="#454545"/>
<rect x="533.828" y="162.85" width="43.2472" height="43.2472" fill="#454545"/>
<rect x="533.828" y="206.098" width="43.2472" height="43.2472" fill="#454545"/>
<rect x="533.828" y="249.344" width="43.2472" height="43.2472" fill="#454545"/>
<rect x="577.075" y="249.344" width="43.2472" height="43.2472" fill="#454545"/>
<rect x="620.322" y="206.098" width="43.2472" height="43.2472" fill="#454545"/>
<rect x="620.322" y="162.85" width="43.2472" height="43.2472" fill="#454545"/>
<rect x="663.57" y="162.85" width="43.2472" height="43.2472" fill="#454545"/>
<rect x="663.57" y="119.604" width="43.2472" height="43.2472" fill="#454545"/>
<rect x="663.57" y="76.3555" width="43.2472" height="43.2472" fill="#454545"/>
<rect x="620.322" y="76.3555" width="43.2472" height="43.2472" fill="#454545"/>
<rect x="620.322" y="-10.1387" width="43.2472" height="43.2472" fill="#454545"/>
<rect x="620.322" y="33.1094" width="43.2472" height="43.2472" fill="#454545"/>
<rect x="404.086" y="-10.1387" width="43.2472" height="43.2472" fill="#454545"/>
<rect x="447.334" y="-10.1387" width="43.2472" height="43.2472" fill="#454545"/>
<rect x="447.334" y="33.1094" width="43.2472" height="43.2472" fill="#454545"/>
<rect x="447.334" y="76.3555" width="43.2472" height="43.2472" fill="#454545"/>
<rect x="447.333" y="162.846" width="43.2472" height="43.2472" fill="#454545"/>
<rect x="447.333" y="206.094" width="43.2472" height="43.2472" fill="#454545"/>
<rect x="447.333" y="119.6" width="43.2472" height="43.2472" fill="#454545"/>
<rect x="447.333" y="33.1055" width="43.2472" height="43.2472" fill="#454545"/>
<rect x="447.333" y="76.3516" width="43.2472" height="43.2472" fill="#454545"/>
<rect x="447.333" y="-10.1426" width="43.2472" height="43.2472" fill="#454545"/>
<rect x="404.086" y="-10.1426" width="43.2472" height="43.2472" fill="#454545"/>
<rect x="317.591" y="-10.1426" width="43.2472" height="43.2472" fill="#454545"/>
<rect x="360.838" y="-10.1426" width="43.2472" height="43.2472" fill="#454545"/>
<rect x="274.344" y="-10.1426" width="43.2472" height="43.2472" fill="#454545"/>
<rect x="274.344" y="33.1055" width="43.2472" height="43.2472" fill="#454545"/>
<rect x="274.344" y="76.3516" width="43.2472" height="43.2472" fill="#454545"/>
<rect x="274.344" y="119.6" width="43.2472" height="43.2472" fill="#454545"/>
<rect x="317.591" y="119.6" width="43.2472" height="43.2472" fill="#454545"/>
<rect x="360.838" y="119.6" width="43.2472" height="43.2472" fill="#454545"/>
<rect x="404.086" y="162.846" width="43.2472" height="43.2472" fill="#454545"/>
<rect x="404.086" y="206.094" width="43.2472" height="43.2472" fill="#454545"/>
<rect x="490.582" y="249.344" width="43.2472" height="43.2472" fill="#454545"/>
<rect x="533.829" y="249.344" width="43.2472" height="43.2472" fill="#454545"/>
<rect x="533.829" y="292.592" width="43.2472" height="43.2472" fill="#454545"/>
<rect x="490.582" y="292.592" width="43.2472" height="43.2472" fill="#454545"/>
<rect x="447.335" y="292.592" width="43.2472" height="43.2472" fill="#454545"/>
<rect x="447.335" y="249.344" width="43.2472" height="43.2472" fill="#454545"/>
<rect x="187.849" y="162.85" width="43.2472" height="43.2472" fill="#454545"/>
<rect x="144.601" y="162.85" width="43.2472" height="43.2472" fill="#454545"/>
<rect x="231.096" y="206.098" width="43.2472" height="43.2472" fill="#454545"/>
<rect x="187.849" y="249.344" width="43.2472" height="43.2472" fill="#454545"/>
<rect x="144.601" y="249.344" width="43.2472" height="43.2472" fill="#454545"/>
<rect x="144.601" y="206.098" width="43.2472" height="43.2472" fill="#454545"/>
<rect x="144.603" y="162.85" width="43.2472" height="43.2472" fill="#454545"/>
<rect x="187.85" y="162.85" width="43.2472" height="43.2472" fill="#454545"/>
<rect x="231.097" y="162.85" width="43.2472" height="43.2472" fill="#454545"/>
<rect x="231.097" y="119.602" width="43.2472" height="43.2472" fill="#454545"/>
<rect x="231.097" y="76.3555" width="43.2472" height="43.2472" fill="#454545"/>
<rect x="231.097" y="33.1074" width="43.2472" height="43.2472" fill="#454545"/>
<rect x="187.85" y="33.1074" width="43.2472" height="43.2472" fill="#454545"/>
<rect x="144.603" y="-10.1387" width="43.2472" height="43.2472" fill="#454545"/>
<rect x="-28.3861" y="-10.1387" width="43.2472" height="43.2472" fill="#454545"/>
<rect x="-28.3861" y="33.1074" width="43.2472" height="43.2472" fill="#454545"/>
<rect x="-28.3861" y="76.3555" width="43.2472" height="43.2472" fill="#454545"/>
<rect x="14.8611" y="76.3555" width="43.2472" height="43.2472" fill="#454545"/>
<rect x="58.1084" y="76.3555" width="43.2472" height="43.2472" fill="#454545"/>
<rect x="101.356" y="119.602" width="43.2472" height="43.2472" fill="#454545"/>
<rect x="-28.3875" y="465.576" width="43.2472" height="43.2472" fill="#454545"/>
<rect x="14.8599" y="465.576" width="43.2472" height="43.2472" fill="#454545"/>
<rect x="14.8599" y="422.33" width="43.2472" height="43.2472" fill="#454545"/>
<rect x="58.1071" y="422.33" width="43.2472" height="43.2472" fill="#454545"/>
<rect x="101.354" y="379.082" width="43.2472" height="43.2472" fill="#454545"/>
<rect x="101.354" y="335.836" width="43.2472" height="43.2472" fill="#454545"/>
<rect x="101.354" y="292.588" width="43.2472" height="43.2472" fill="#454545"/>
<rect x="58.1071" y="292.588" width="43.2472" height="43.2472" fill="#454545"/>
<rect x="14.8599" y="292.588" width="43.2472" height="43.2472" fill="#454545"/>
<rect x="-28.3875" y="292.588" width="43.2472" height="43.2472" fill="#454545"/>
<rect x="-28.3875" y="335.836" width="43.2472" height="43.2472" fill="#454545"/>
<rect x="14.8611" y="162.85" width="43.2472" height="43.2472" fill="#454545"/>
<rect x="-28.3861" y="162.85" width="43.2472" height="43.2472" fill="#454545"/>
<rect x="58.1084" y="162.85" width="43.2472" height="43.2472" fill="#454545"/>
<rect x="58.1084" y="206.098" width="43.2472" height="43.2472" fill="#454545"/>
<rect x="58.1084" y="249.344" width="43.2472" height="43.2472" fill="#454545"/>
<rect x="14.8611" y="249.344" width="43.2472" height="43.2472" fill="#454545"/>
<rect x="-28.3861" y="249.344" width="43.2472" height="43.2472" fill="#454545"/>
<rect x="-28.3861" y="206.098" width="43.2472" height="43.2472" fill="#454545"/>
<rect x="187.851" y="335.838" width="43.2472" height="43.2472" fill="#454545"/>
<rect x="231.099" y="335.838" width="43.2472" height="43.2472" fill="#454545"/>
<rect x="274.346" y="335.838" width="43.2472" height="43.2472" fill="#454545"/>
<rect x="274.346" y="379.086" width="43.2472" height="43.2472" fill="#454545"/>
<rect x="274.346" y="422.332" width="43.2472" height="43.2472" fill="#454545"/>
<rect x="274.346" y="465.58" width="43.2472" height="43.2472" fill="#454545"/>
<rect x="231.099" y="465.58" width="43.2472" height="43.2472" fill="#454545"/>
<rect x="187.851" y="465.58" width="43.2472" height="43.2472" fill="#454545"/>
<rect x="144.604" y="422.332" width="43.2472" height="43.2472" fill="#454545"/>
<rect x="144.604" y="379.086" width="43.2472" height="43.2472" fill="#454545"/>
<rect x="144.604" y="552.074" width="43.2472" height="43.2472" fill="#454545"/>
<rect x="187.851" y="552.074" width="41.5157" height="43.2472" fill="#454545"/>
<rect x="187.851" y="465.58" width="43.2472" height="43.2472" fill="#454545"/>
<rect x="187.851" y="508.826" width="41.5157" height="43.2472" fill="#454545"/>
<rect x="187.851" y="422.332" width="43.2472" height="43.2472" fill="#454545"/>
<rect x="101.357" y="422.332" width="43.2472" height="43.2472" fill="#454545"/>
<rect x="144.604" y="422.332" width="43.2472" height="43.2472" fill="#454545"/>
<rect x="101.357" y="465.58" width="43.2472" height="43.2472" fill="#454545"/>
<rect x="58.1095" y="508.826" width="43.2472" height="43.2472" fill="#454545"/>
<rect x="14.8623" y="508.826" width="43.2472" height="43.2472" fill="#454545"/>
<rect x="14.8623" y="552.074" width="43.2472" height="43.2472" fill="#454545"/>
<rect x="14.8623" y="595.32" width="43.2472" height="43.2472" fill="#454545"/>
<rect x="58.1095" y="595.32" width="43.2472" height="43.2472" fill="#454545"/>
<rect x="101.357" y="595.32" width="43.2472" height="43.2472" fill="#454545"/>
<rect x="101.357" y="552.074" width="43.2472" height="43.2472" fill="#454545"/>
<rect x="315.861" y="768.307" width="43.2472" height="43.2472" fill="#454545"/>
<rect x="315.861" y="811.555" width="43.2472" height="43.2472" fill="#454545"/>
<rect x="315.861" y="854.803" width="43.2472" height="43.2472" fill="#454545"/>
<rect x="315.861" y="725.061" width="43.2472" height="43.2472" fill="#454545"/>
<rect x="315.861" y="681.812" width="43.2472" height="43.2472" fill="#454545"/>
<rect x="315.861" y="638.566" width="43.2472" height="43.2472" fill="#454545"/>
<rect x="272.614" y="638.566" width="43.2472" height="43.2472" fill="#454545"/>
<rect x="229.367" y="638.566" width="43.2472" height="43.2472" fill="#454545"/>
<rect x="186.12" y="595.318" width="43.2472" height="43.2472" fill="#454545"/>
<rect x="142.872" y="595.318" width="43.2472" height="43.2472" fill="#454545"/>
<rect x="142.872" y="638.566" width="43.2472" height="43.2472" fill="#454545"/>
<rect x="142.872" y="681.812" width="43.2472" height="43.2472" fill="#454545"/>
<rect x="99.6251" y="681.812" width="43.2472" height="43.2472" fill="#454545"/>
<rect x="56.3779" y="725.061" width="43.2472" height="43.2472" fill="#454545"/>
<rect x="56.3779" y="768.307" width="43.2472" height="43.2472" fill="#454545"/>
<rect x="56.3779" y="811.555" width="43.2472" height="43.2472" fill="#454545"/>
<rect x="99.6251" y="854.803" width="43.2472" height="43.2472" fill="#454545"/>
<rect x="142.872" y="854.803" width="43.2472" height="43.2472" fill="#454545"/>
<rect x="142.872" y="898.049" width="43.2472" height="43.2472" fill="#454545"/>
<rect x="142.872" y="941.297" width="43.2472" height="43.2472" fill="#454545"/>
<rect x="186.12" y="984.543" width="43.2472" height="43.2472" fill="#454545"/>
<rect x="229.367" y="984.543" width="43.2472" height="43.2472" fill="#454545"/>
<rect x="272.614" y="984.543" width="43.2472" height="43.2472" fill="#454545"/>
<rect x="315.861" y="984.543" width="43.2472" height="43.2472" fill="#454545"/>
<rect x="315.861" y="941.297" width="43.2472" height="43.2472" fill="#454545"/>
<rect x="315.861" y="898.049" width="43.2472" height="43.2472" fill="#454545"/>
<rect x="-28.3867" y="638.568" width="43.2472" height="43.2472" fill="#454545"/>
<rect x="-28.3867" y="854.805" width="43.2472" height="43.2472" fill="#454545"/>
<rect x="-28.3867" y="811.557" width="43.2472" height="43.2472" fill="#454545"/>
<rect x="-28.3867" y="768.311" width="43.2472" height="43.2472" fill="#454545"/>
<rect x="14.8605" y="768.311" width="43.2472" height="43.2472" fill="#454545"/>
<rect x="58.1077" y="725.062" width="41.5175" height="43.2472" fill="#454545"/>
<rect x="56.3779" y="638.568" width="44.977" height="43.2472" fill="#454545"/>
<rect x="56.3779" y="681.816" width="44.977" height="43.2472" fill="#454545"/>
<rect x="-28.3849" y="854.807" width="43.2472" height="43.2472" fill="#454545"/>
<rect x="-28.3849" y="1027.79" width="43.2472" height="43.2472" fill="#454545"/>
<rect x="-28.3849" y="1071.04" width="43.2472" height="43.2472" fill="#454545"/>
<rect x="-28.3849" y="1114.29" width="43.2472" height="43.2472" fill="#454545"/>
<rect x="14.8623" y="1114.29" width="43.2472" height="43.2472" fill="#454545"/>
<rect x="58.1096" y="1114.29" width="43.2472" height="43.2472" fill="#454545"/>
<rect x="58.1096" y="1071.04" width="43.2472" height="43.2472" fill="#454545"/>
<rect x="58.1096" y="1027.79" width="43.2472" height="43.2472" fill="#454545"/>
<rect x="58.1096" y="984.549" width="43.2472" height="43.2472" fill="#454545"/>
<rect x="14.8623" y="984.549" width="43.2472" height="43.2472" fill="#454545"/>
<rect x="-28.3849" y="941.301" width="43.2472" height="43.2472" fill="#454545"/>
<rect x="-28.3849" y="898.055" width="43.2472" height="43.2472" fill="#454545"/>
<rect x="144.603" y="941.299" width="43.2472" height="43.2472" fill="#454545"/>
<rect x="187.851" y="941.299" width="43.2472" height="43.2472" fill="#454545"/>
<rect x="101.356" y="941.299" width="43.2472" height="43.2472" fill="#454545"/>
<rect x="231.098" y="941.299" width="43.2472" height="43.2472" fill="#454545"/>
<rect x="231.098" y="984.547" width="43.2472" height="43.2472" fill="#454545"/>
<rect x="231.098" y="1027.79" width="43.2472" height="43.2472" fill="#454545"/>
<rect x="231.098" y="1071.04" width="43.2472" height="43.2472" fill="#454545"/>
<rect x="144.603" y="1071.04" width="43.2472" height="43.2472" fill="#454545"/>
<rect x="187.851" y="1071.04" width="43.2472" height="43.2472" fill="#454545"/>
<rect x="101.356" y="1071.04" width="43.2472" height="43.2472" fill="#454545"/>
<rect x="101.356" y="984.547" width="43.2472" height="43.2472" fill="#454545"/>
<rect x="101.356" y="1027.79" width="43.2472" height="43.2472" fill="#454545"/>
<rect x="274.344" y="1027.79" width="42.3824" height="43.2472" fill="#454545"/>
<rect x="316.726" y="1027.79" width="42.3824" height="43.2472" fill="#454545"/>
<rect x="316.726" y="1071.04" width="42.3824" height="43.2472" fill="#454545"/>
<rect x="274.344" y="1071.04" width="42.3824" height="43.2472" fill="#454545"/>
<rect x="187.849" y="1157.54" width="43.2472" height="43.2472" fill="#454545"/>
<rect x="144.601" y="1157.54" width="43.2472" height="43.2472" fill="#454545"/>
<rect x="231.096" y="1200.79" width="43.2472" height="43.2472" fill="#454545"/>
<rect x="231.096" y="1244.03" width="43.2472" height="43.2472" fill="#454545"/>
<rect x="187.849" y="1244.03" width="43.2472" height="43.2472" fill="#454545"/>
<rect x="144.601" y="1244.03" width="43.2472" height="43.2472" fill="#454545"/>
<rect x="144.601" y="1200.79" width="43.2472" height="43.2472" fill="#454545"/>
<rect x="317.591" y="1200.78" width="43.2472" height="43.2472" fill="#454545"/>
<rect x="274.344" y="1200.78" width="43.2472" height="43.2472" fill="#454545"/>
<rect x="360.838" y="1200.78" width="43.2472" height="43.2472" fill="#454545"/>
<rect x="360.838" y="1244.03" width="43.2472" height="43.2472" fill="#454545"/>
<rect x="360.838" y="1287.28" width="43.2472" height="43.2472" fill="#454545"/>
<rect x="360.838" y="1330.52" width="43.2472" height="43.2472" fill="#454545"/>
<rect x="317.591" y="1330.52" width="43.2472" height="43.2472" fill="#454545"/>
<rect x="274.344" y="1330.52" width="43.2472" height="43.2472" fill="#454545"/>
<rect x="274.344" y="1287.28" width="43.2472" height="43.2472" fill="#454545"/>
<rect x="274.344" y="1244.03" width="43.2472" height="43.2472" fill="#454545"/>
<rect x="447.333" y="1114.29" width="43.2472" height="43.2472" fill="#454545"/>
<rect x="490.581" y="1114.29" width="43.2472" height="43.2472" fill="#454545"/>
<rect x="404.086" y="1114.29" width="43.2472" height="43.2472" fill="#454545"/>
<rect x="533.828" y="1114.29" width="43.2472" height="43.2472" fill="#454545"/>
<rect x="533.828" y="1157.54" width="43.2472" height="43.2472" fill="#454545"/>
<rect x="533.828" y="1200.78" width="43.2472" height="43.2472" fill="#454545"/>
<rect x="490.581" y="1244.03" width="43.2472" height="43.2472" fill="#454545"/>
<rect x="447.333" y="1244.03" width="43.2472" height="43.2472" fill="#454545"/>
<rect x="404.086" y="1244.03" width="43.2472" height="43.2472" fill="#454545"/>
<rect x="404.086" y="1200.78" width="43.2472" height="43.2472" fill="#454545"/>
<rect x="404.086" y="1157.54" width="43.2472" height="43.2472" fill="#454545"/>
<rect x="490.582" y="1373.77" width="43.2472" height="43.2472" fill="#454545"/>
<rect x="533.829" y="1373.77" width="43.2472" height="43.2472" fill="#454545"/>
<rect x="447.335" y="1373.77" width="43.2472" height="43.2472" fill="#454545"/>
<rect x="577.076" y="1373.77" width="43.2472" height="43.2472" fill="#454545"/>
<rect x="577.076" y="1417.02" width="43.2472" height="43.2472" fill="#454545"/>
<rect x="577.076" y="1460.27" width="43.2472" height="43.2472" fill="#454545"/>
<rect x="533.829" y="1460.27" width="43.2472" height="43.2472" fill="#454545"/>
<rect x="490.582" y="1460.27" width="43.2472" height="43.2472" fill="#454545"/>
<rect x="447.335" y="1460.27" width="43.2472" height="43.2472" fill="#454545"/>
<rect x="447.335" y="1417.02" width="43.2472" height="43.2472" fill="#454545"/>
<rect x="750.064" y="1244.04" width="43.2472" height="43.2472" fill="#454545"/>
<rect x="793.312" y="1244.04" width="43.2472" height="43.2472" fill="#454545"/>
<rect x="706.817" y="1244.04" width="43.2472" height="43.2472" fill="#454545"/>
<rect x="706.817" y="1287.28" width="43.2472" height="43.2472" fill="#454545"/>
<rect x="750.064" y="1330.53" width="43.2472" height="43.2472" fill="#454545"/>
<rect x="793.312" y="1330.53" width="43.2472" height="43.2472" fill="#454545"/>
<rect x="706.817" y="1330.53" width="43.2472" height="43.2472" fill="#454545"/>
<rect x="663.57" y="1330.53" width="43.2472" height="43.2472" fill="#454545"/>
<rect x="620.322" y="1330.53" width="43.2472" height="43.2472" fill="#454545"/>
<rect x="620.322" y="1373.78" width="43.2472" height="43.2472" fill="#454545"/>
<rect x="620.322" y="1417.02" width="43.2472" height="43.2472" fill="#454545"/>
<rect x="663.57" y="1417.02" width="43.2472" height="43.2472" fill="#454545"/>
<rect x="663.57" y="1460.27" width="43.2472" height="43.2472" fill="#454545"/>
<rect x="706.817" y="1460.27" width="43.2472" height="43.2472" fill="#454545"/>
<rect x="750.064" y="1460.27" width="43.2472" height="43.2472" fill="#454545"/>
<rect x="793.312" y="1460.27" width="43.2472" height="43.2472" fill="#454545"/>
<rect x="793.312" y="1417.02" width="43.2472" height="43.2472" fill="#454545"/>
<rect x="836.559" y="1417.02" width="43.2472" height="43.2472" fill="#454545"/>
<rect x="879.806" y="1417.02" width="43.2472" height="43.2472" fill="#454545"/>
<rect x="923.053" y="1417.02" width="43.2472" height="43.2472" fill="#454545"/>
<rect x="923.053" y="1330.53" width="43.2472" height="43.2472" fill="#454545"/>
<rect x="923.053" y="1373.78" width="43.2472" height="43.2472" fill="#454545"/>
<rect x="923.053" y="1287.28" width="43.2472" height="43.2472" fill="#454545"/>
<rect x="836.559" y="1287.28" width="43.2472" height="43.2472" fill="#454545"/>
<rect x="879.806" y="1287.28" width="43.2472" height="43.2472" fill="#454545"/>
<rect x="793.312" y="1287.28" width="43.2472" height="43.2472" fill="#454545"/>
<rect x="1052.79" y="1157.54" width="43.2472" height="43.2472" fill="#454545"/>
<rect x="1009.55" y="1157.54" width="43.2472" height="43.2472" fill="#454545"/>
<rect x="966.3" y="1114.29" width="43.2472" height="43.2472" fill="#454545"/>
<rect x="923.053" y="1114.29" width="43.2472" height="43.2472" fill="#454545"/>
<rect x="879.806" y="1114.29" width="43.2472" height="43.2472" fill="#454545"/>
<rect x="836.559" y="1157.54" width="43.2472" height="43.2472" fill="#454545"/>
<rect x="836.559" y="1200.79" width="43.2472" height="43.2472" fill="#454545"/>
<rect x="836.559" y="1244.03" width="43.2472" height="43.2472" fill="#454545"/>
<rect x="879.806" y="1287.28" width="43.2472" height="43.2472" fill="#454545"/>
<rect x="923.053" y="1287.28" width="43.2472" height="43.2472" fill="#454545"/>
<rect x="966.3" y="1287.28" width="43.2472" height="43.2472" fill="#454545"/>
<rect x="966.3" y="1330.53" width="43.2472" height="43.2472" fill="#454545"/>
<rect x="1009.55" y="1330.53" width="43.2472" height="43.2472" fill="#454545"/>
<rect x="1052.79" y="1330.53" width="43.2472" height="43.2472" fill="#454545"/>
<rect x="1096.04" y="1330.53" width="43.2472" height="43.2472" fill="#454545"/>
<rect x="1139.29" y="1330.53" width="43.2472" height="43.2472" fill="#454545"/>
<rect x="1139.29" y="1244.03" width="43.2472" height="43.2472" fill="#454545"/>
<rect x="1139.29" y="1287.28" width="43.2472" height="43.2472" fill="#454545"/>
<rect x="1139.29" y="1200.79" width="43.2472" height="43.2472" fill="#454545"/>
<rect x="1182.54" y="1200.79" width="43.2472" height="43.2472" fill="#454545"/>
<rect x="1182.54" y="1114.29" width="43.2472" height="43.2472" fill="#454545"/>
<rect x="1182.54" y="1157.54" width="43.2472" height="43.2472" fill="#454545"/>
<rect x="1182.54" y="1071.04" width="43.2472" height="43.2472" fill="#454545"/>
<rect x="1096.04" y="1071.04" width="43.2472" height="43.2472" fill="#454545"/>
<rect x="1139.29" y="1071.04" width="43.2472" height="43.2472" fill="#454545"/>
<rect x="1052.79" y="1114.29" width="43.2472" height="43.2472" fill="#454545"/>
<rect x="1182.54" y="941.299" width="43.2472" height="43.2472" fill="#454545"/>
<rect x="1225.78" y="984.547" width="43.2472" height="43.2472" fill="#454545"/>
<rect x="1182.54" y="1027.79" width="43.2472" height="43.2472" fill="#454545"/>
<rect x="1139.29" y="984.547" width="43.2472" height="43.2472" fill="#454545"/>
<rect x="1269.03" y="941.299" width="43.2472" height="43.2472" fill="#454545"/>
<rect x="1312.28" y="941.299" width="43.2472" height="43.2472" fill="#454545"/>
<rect x="1225.78" y="941.299" width="43.2472" height="43.2472" fill="#454545"/>
<rect x="1225.78" y="984.547" width="43.2472" height="43.2472" fill="#454545"/>
<rect x="1225.78" y="1027.79" width="43.2472" height="43.2472" fill="#454545"/>
<rect x="1225.78" y="1071.04" width="43.2472" height="43.2472" fill="#454545"/>
<rect x="1225.78" y="1114.29" width="43.2472" height="43.2472" fill="#454545"/>
<rect x="1225.78" y="1157.54" width="43.2472" height="43.2472" fill="#454545"/>
<rect x="1269.03" y="1157.54" width="43.2472" height="43.2472" fill="#454545"/>
<rect x="1312.28" y="1157.54" width="43.2472" height="43.2472" fill="#454545"/>
<rect x="1355.52" y="1114.29" width="43.2472" height="43.2472" fill="#454545"/>
<rect x="1355.52" y="1071.04" width="43.2472" height="43.2472" fill="#454545"/>
<rect x="1355.52" y="1027.79" width="43.2472" height="43.2472" fill="#454545"/>
<rect x="1312.28" y="1027.79" width="43.2472" height="43.2472" fill="#454545"/>
<rect x="1312.28" y="984.547" width="43.2472" height="43.2472" fill="#454545"/>
<rect x="836.558" y="811.559" width="43.2472" height="43.2472" fill="#454545"/>
<rect x="879.805" y="811.559" width="43.2472" height="43.2472" fill="#454545"/>
<rect x="793.311" y="811.559" width="43.2472" height="43.2472" fill="#454545"/>
<rect x="793.311" y="768.311" width="43.2472" height="43.2472" fill="#454545"/>
<rect x="750.064" y="768.311" width="43.2472" height="43.2472" fill="#454545"/>
<rect x="706.816" y="811.559" width="43.2472" height="43.2472" fill="#454545"/>
<rect x="706.816" y="854.805" width="43.2472" height="43.2472" fill="#454545"/>
<rect x="750.064" y="854.805" width="43.2472" height="43.2472" fill="#454545"/>
<rect x="793.311" y="854.805" width="43.2472" height="43.2472" fill="#454545"/>
<rect x="793.311" y="898.053" width="43.2472" height="43.2472" fill="#454545"/>
<rect x="793.311" y="941.299" width="43.2472" height="43.2472" fill="#454545"/>
<rect x="836.558" y="941.299" width="43.2472" height="43.2472" fill="#454545"/>
<rect x="879.805" y="941.299" width="43.2472" height="43.2472" fill="#454545"/>
<rect x="923.053" y="941.299" width="43.2472" height="43.2472" fill="#454545"/>
<rect x="923.053" y="854.805" width="43.2472" height="43.2472" fill="#454545"/>
<rect x="923.053" y="898.053" width="43.2472" height="43.2472" fill="#454545"/>
<rect x="923.053" y="811.559" width="43.2472" height="43.2472" fill="#454545"/>
<rect x="577.076" y="768.311" width="43.2472" height="43.2472" fill="#454545"/>
<rect x="620.323" y="768.311" width="43.2472" height="43.2472" fill="#454545"/>
<rect x="533.829" y="768.311" width="43.2472" height="43.2472" fill="#454545"/>
<rect x="663.57" y="768.311" width="43.2472" height="43.2472" fill="#454545"/>
<rect x="663.57" y="811.559" width="43.2472" height="43.2472" fill="#454545"/>
<rect x="663.57" y="854.805" width="43.2472" height="43.2472" fill="#454545"/>
<rect x="663.57" y="898.053" width="43.2472" height="43.2472" fill="#454545"/>
<rect x="663.57" y="941.299" width="43.2472" height="43.2472" fill="#454545"/>
<rect x="577.076" y="941.299" width="43.2472" height="43.2472" fill="#454545"/>
<rect x="620.323" y="941.299" width="43.2472" height="43.2472" fill="#454545"/>
<rect x="533.829" y="941.299" width="43.2472" height="43.2472" fill="#454545"/>
<rect x="533.829" y="898.053" width="43.2472" height="43.2472" fill="#454545"/>
<rect x="533.829" y="811.559" width="43.2472" height="43.2472" fill="#454545"/>
<rect x="533.829" y="854.805" width="43.2472" height="43.2472" fill="#454545"/>
<rect x="706.816" y="1200.78" width="43.2472" height="43.2472" fill="#454545"/>
<rect x="663.568" y="1200.78" width="43.2472" height="43.2472" fill="#454545"/>
<rect x="750.063" y="1200.78" width="43.2472" height="43.2472" fill="#454545"/>
<rect x="750.063" y="1157.54" width="43.2472" height="43.2472" fill="#454545"/>
<rect x="750.063" y="1114.29" width="43.2472" height="43.2472" fill="#454545"/>
<rect x="706.816" y="1114.29" width="43.2472" height="43.2472" fill="#454545"/>
<rect x="663.568" y="1071.04" width="43.2472" height="43.2472" fill="#454545"/>
<rect x="663.568" y="1027.79" width="43.2472" height="43.2472" fill="#454545"/>
<rect x="620.321" y="1027.79" width="43.2472" height="43.2472" fill="#454545"/>
<rect x="577.074" y="1027.79" width="43.2472" height="43.2472" fill="#454545"/>
<rect x="577.074" y="1071.04" width="43.2472" height="43.2472" fill="#454545"/>
<rect x="577.074" y="1114.29" width="43.2472" height="43.2472" fill="#454545"/>
<rect x="577.074" y="1157.54" width="43.2472" height="43.2472" fill="#454545"/>
<rect x="620.321" y="1157.54" width="43.2472" height="43.2472" fill="#454545"/>
<rect x="750.064" y="941.299" width="43.2472" height="43.2472" fill="#454545"/>
<rect x="706.816" y="941.299" width="43.2472" height="43.2472" fill="#454545"/>
<rect x="793.311" y="984.547" width="43.2472" height="43.2472" fill="#454545"/>
<rect x="750.064" y="1027.79" width="43.2472" height="43.2472" fill="#454545"/>
<rect x="706.816" y="1027.79" width="43.2472" height="43.2472" fill="#454545"/>
<rect x="706.816" y="984.547" width="43.2472" height="43.2472" fill="#454545"/>
<rect x="1269.03" y="595.318" width="43.2472" height="43.2472" fill="#454545"/>
<rect x="1312.28" y="638.566" width="43.2472" height="43.2472" fill="#454545"/>
<rect x="1269.03" y="638.566" width="43.2472" height="43.2472" fill="#454545"/>
<rect x="1225.78" y="638.566" width="43.2472" height="43.2472" fill="#454545"/>
<rect x="1398.77" y="725.062" width="43.2472" height="43.2472" fill="#454545"/>
<rect x="1355.53" y="725.062" width="43.2472" height="43.2472" fill="#454545"/>
<rect x="1398.77" y="811.557" width="43.2472" height="43.2472" fill="#454545"/>
<rect x="1355.53" y="811.557" width="43.2472" height="43.2472" fill="#454545"/>
<rect x="1355.53" y="768.311" width="43.2472" height="43.2472" fill="#454545"/>
<rect x="663.57" y="249.344" width="43.2472" height="43.2472" fill="#454545"/>
<rect x="706.817" y="249.344" width="43.2472" height="43.2472" fill="#454545"/>
<rect x="620.322" y="249.344" width="43.2472" height="43.2472" fill="#454545"/>
<rect x="750.064" y="292.592" width="43.2472" height="43.2472" fill="#454545"/>
<rect x="750.064" y="335.838" width="43.2472" height="43.2472" fill="#454545"/>
<rect x="750.064" y="379.086" width="43.2472" height="43.2472" fill="#454545"/>
<rect x="706.817" y="379.086" width="43.2472" height="43.2472" fill="#454545"/>
<rect x="663.57" y="379.086" width="43.2472" height="43.2472" fill="#454545"/>
<rect x="620.322" y="379.086" width="43.2472" height="43.2472" fill="#454545"/>
<rect x="620.322" y="292.592" width="43.2472" height="43.2472" fill="#454545"/>
<rect x="620.322" y="335.838" width="43.2472" height="43.2472" fill="#454545"/>
<rect x="793.31" y="335.838" width="43.2472" height="43.2472" fill="#454545"/>
<rect x="836.557" y="335.838" width="43.2472" height="43.2472" fill="#454545"/>
<rect x="836.557" y="379.086" width="43.2472" height="43.2472" fill="#454545"/>
<rect x="793.31" y="379.086" width="43.2472" height="43.2472" fill="#454545"/>
<rect x="1183.29" y="638.572" width="43.2472" height="43.2472" fill="#454545"/>
<rect x="1140.04" y="595.324" width="43.2472" height="43.2472" fill="#454545"/>
<rect x="1096.79" y="595.324" width="43.2472" height="43.2472" fill="#454545"/>
<rect x="1053.55" y="638.572" width="43.2472" height="43.2472" fill="#454545"/>
<rect x="1053.55" y="681.818" width="43.2472" height="43.2472" fill="#454545"/>
<rect x="1096.79" y="725.066" width="43.2472" height="43.2472" fill="#454545"/>
<rect x="1140.04" y="725.066" width="43.2472" height="43.2472" fill="#454545"/>
<rect x="1140.04" y="768.312" width="43.2472" height="43.2472" fill="#454545"/>
<rect x="1183.29" y="811.561" width="43.2472" height="43.2472" fill="#454545"/>
<rect x="1183.29" y="854.809" width="43.2472" height="43.2472" fill="#454545"/>
<rect x="1226.53" y="898.055" width="43.2472" height="43.2472" fill="#454545"/>
<rect x="1269.78" y="898.055" width="43.2472" height="43.2472" fill="#454545"/>
<rect x="1313.03" y="854.809" width="43.2472" height="43.2472" fill="#454545"/>
<rect x="1313.03" y="811.561" width="43.2472" height="43.2472" fill="#454545"/>
<rect x="1313.03" y="768.312" width="43.2472" height="43.2472" fill="#454545"/>
<rect x="1269.78" y="768.312" width="43.2472" height="43.2472" fill="#454545"/>
<rect x="1226.53" y="725.066" width="43.2472" height="43.2472" fill="#454545"/>
<rect x="1226.53" y="681.818" width="43.2472" height="43.2472" fill="#454545"/>
<rect x="1183.29" y="681.818" width="43.2472" height="43.2472" fill="#454545"/>
<rect x="1009.55" y="768.311" width="43.2472" height="43.2472" fill="#454545"/>
<rect x="1052.8" y="768.311" width="43.2472" height="43.2472" fill="#454545"/>
<rect x="1052.8" y="811.559" width="43.2472" height="43.2472" fill="#454545"/>
<rect x="1052.8" y="854.805" width="43.2472" height="43.2472" fill="#454545"/>
<rect x="1009.55" y="854.805" width="43.2472" height="43.2472" fill="#454545"/>
<rect x="966.301" y="811.559" width="43.2472" height="43.2472" fill="#454545"/>
<rect x="966.301" y="768.311" width="43.2472" height="43.2472" fill="#454545"/>
<rect x="1010.6" y="335.84" width="43.2472" height="43.2472" fill="#454545"/>
<rect x="1010.6" y="292.592" width="43.2472" height="43.2472" fill="#454545"/>
<rect x="1010.6" y="379.086" width="43.2472" height="43.2472" fill="#454545"/>
<rect x="1053.85" y="379.086" width="43.2472" height="43.2472" fill="#454545"/>
<rect x="1097.1" y="422.334" width="43.2472" height="43.2472" fill="#454545"/>
<rect x="1140.34" y="422.334" width="43.2472" height="43.2472" fill="#454545"/>
<rect x="1183.59" y="422.334" width="43.2472" height="43.2472" fill="#454545"/>
<rect x="1226.84" y="422.334" width="43.2472" height="43.2472" fill="#454545"/>
<rect x="1226.84" y="335.84" width="43.2472" height="43.2472" fill="#454545"/>
<rect x="1225.78" y="379.086" width="44.3019" height="43.2472" fill="#454545"/>
<rect x="1183.59" y="292.592" width="43.2472" height="43.2472" fill="#454545"/>
<rect x="1140.34" y="292.592" width="43.2472" height="43.2472" fill="#454545"/>
<rect x="1097.1" y="292.592" width="43.2472" height="43.2472" fill="#454545"/>
<rect x="1053.85" y="292.592" width="43.2472" height="43.2472" fill="#454545"/>
<rect x="1398.77" y="335.838" width="43.2472" height="43.2472" fill="#454545"/>
<rect x="1398.77" y="379.084" width="43.2472" height="43.2472" fill="#454545"/>
<rect x="1398.77" y="422.332" width="43.2472" height="43.2472" fill="#454545"/>
<rect x="1355.53" y="335.838" width="43.2472" height="43.2472" fill="#454545"/>
<rect x="1312.28" y="335.838" width="43.2472" height="43.2472" fill="#454545"/>
<rect x="1312.28" y="292.59" width="43.2472" height="43.2472" fill="#454545"/>
<rect x="1312.28" y="249.342" width="43.2472" height="43.2472" fill="#454545"/>
<rect x="1269.03" y="249.342" width="43.2472" height="43.2472" fill="#454545"/>
<rect x="1269.03" y="206.096" width="43.2472" height="43.2472" fill="#454545"/>
<rect x="1269.03" y="162.848" width="43.2472" height="43.2472" fill="#454545"/>
<rect x="1312.28" y="162.848" width="43.2472" height="43.2472" fill="#454545"/>
<rect x="1312.28" y="119.602" width="43.2472" height="43.2472" fill="#454545"/>
<rect x="1269.03" y="76.3535" width="43.2472" height="43.2472" fill="#454545"/>
<rect x="1225.79" y="76.3535" width="43.2472" height="43.2472" fill="#454545"/>
<rect x="1182.54" y="119.602" width="43.2472" height="43.2472" fill="#454545"/>
<rect x="1139.29" y="119.602" width="43.2472" height="43.2472" fill="#454545"/>
<rect x="1096.04" y="119.602" width="43.2472" height="43.2472" fill="#454545"/>
<rect x="1096.04" y="162.848" width="43.2472" height="43.2472" fill="#454545"/>
<rect x="1096.04" y="206.096" width="43.2472" height="43.2472" fill="#454545"/>
<rect x="1096.04" y="249.342" width="43.2472" height="43.2472" fill="#454545"/>
<rect x="1139.29" y="249.342" width="43.2472" height="43.2472" fill="#454545"/>
<rect x="1182.54" y="249.342" width="43.2472" height="43.2472" fill="#454545"/>
<rect x="1225.79" y="292.59" width="43.2472" height="43.2472" fill="#454545"/>
<rect x="1225.79" y="335.838" width="43.2472" height="43.2472" fill="#454545"/>
<rect x="1269.03" y="335.838" width="43.2472" height="43.2472" fill="#454545"/>
<rect x="1269.03" y="379.084" width="43.2472" height="43.2472" fill="#454545"/>
<rect x="1269.03" y="422.332" width="43.2472" height="43.2472" fill="#454545"/>
<rect x="1269.03" y="465.578" width="43.2472" height="43.2472" fill="#454545"/>
<rect x="1312.28" y="465.578" width="43.2472" height="43.2472" fill="#454545"/>
<rect x="1355.53" y="465.578" width="43.2472" height="43.2472" fill="#454545"/>
<rect x="1355.53" y="508.826" width="43.2472" height="43.2472" fill="#454545"/>
<rect x="1355.53" y="552.074" width="43.2472" height="43.2472" fill="#454545"/>
<rect x="1355.53" y="595.32" width="43.2472" height="43.2472" fill="#454545"/>
<rect x="1398.77" y="595.32" width="43.2472" height="43.2472" fill="#454545"/>
<rect x="1398.77" y="552.074" width="43.2472" height="43.2472" fill="#454545"/>
<rect x="879.805" y="119.602" width="43.2472" height="43.2472" fill="#454545"/>
<rect x="923.052" y="119.602" width="43.2472" height="43.2472" fill="#454545"/>
<rect x="966.299" y="119.602" width="43.2472" height="43.2472" fill="#454545"/>
<rect x="836.557" y="162.85" width="43.2472" height="43.2472" fill="#454545"/>
<rect x="793.31" y="162.85" width="43.2472" height="43.2472" fill="#454545"/>
<rect x="793.31" y="206.096" width="43.2472" height="43.2472" fill="#454545"/>
<rect x="836.557" y="206.096" width="43.2472" height="43.2472" fill="#454545"/>
<rect x="836.557" y="249.344" width="43.2472" height="43.2472" fill="#454545"/>
<rect x="879.805" y="249.344" width="43.2472" height="43.2472" fill="#454545"/>
<rect x="923.052" y="249.344" width="43.2472" height="43.2472" fill="#454545"/>
<rect x="966.299" y="249.344" width="43.2472" height="43.2472" fill="#454545"/>
<rect x="1009.55" y="249.344" width="43.2472" height="43.2472" fill="#454545"/>
<rect x="1009.55" y="162.85" width="43.2472" height="43.2472" fill="#454545"/>
<rect x="1009.55" y="206.096" width="43.2472" height="43.2472" fill="#454545"/>
<rect x="1009.55" y="-10.1387" width="43.2472" height="43.2472" fill="#454545"/>
<rect x="1009.55" y="33.1074" width="43.2472" height="43.2472" fill="#454545"/>
<rect x="1009.55" y="76.3555" width="43.2472" height="43.2472" fill="#454545"/>
<rect x="966.302" y="76.3555" width="43.2472" height="43.2472" fill="#454545"/>
<rect x="923.054" y="76.3555" width="43.2472" height="43.2472" fill="#454545"/>
<rect x="879.807" y="33.1074" width="43.2472" height="43.2472" fill="#454545"/>
<rect x="879.807" y="-10.1387" width="43.2472" height="43.2472" fill="#454545"/>
<rect x="836.558" y="-10.1387" width="43.2472" height="43.2472" fill="#454545"/>
<rect x="836.558" y="33.1074" width="43.2472" height="43.2472" fill="#454545"/>
<rect x="793.311" y="76.3555" width="43.2472" height="43.2472" fill="#454545"/>
<rect x="750.064" y="76.3555" width="43.2472" height="43.2472" fill="#454545"/>
<rect x="706.816" y="33.1074" width="43.2472" height="43.2472" fill="#454545"/>
<rect x="706.816" y="-10.1387" width="43.2472" height="43.2472" fill="#454545"/>
</svg>
