<svg width="1440" height="998" viewBox="0 0 1440 998" fill="none" xmlns="http://www.w3.org/2000/svg">
<rect x="-28.3875" y="-40.0605" width="43.2472" height="43.2472" fill="#303033"/>
<rect x="14.8599" y="-40.0605" width="43.2472" height="43.2472" fill="#303033"/>
<rect x="274.346" y="-40.0566" width="43.2472" height="43.2472" fill="#303033"/>
<rect x="231.099" y="-40.0566" width="43.2472" height="43.2472" fill="#303033"/>
<rect x="187.851" y="-40.0566" width="43.2472" height="43.2472" fill="#303033"/>
<rect x="144.604" y="46.4375" width="43.2472" height="43.2472" fill="#303033"/>
<rect x="187.851" y="46.4375" width="41.5157" height="43.2472" fill="#303033"/>
<rect x="187.851" y="-40.0566" width="43.2472" height="43.2472" fill="#303033"/>
<rect x="187.851" y="3.18945" width="41.5157" height="43.2472" fill="#303033"/>
<rect x="101.357" y="-40.0566" width="43.2472" height="43.2472" fill="#303033"/>
<rect x="58.1095" y="3.18945" width="43.2472" height="43.2472" fill="#303033"/>
<rect x="14.8623" y="3.18945" width="43.2472" height="43.2472" fill="#303033"/>
<rect x="14.8623" y="46.4375" width="43.2472" height="43.2472" fill="#303033"/>
<rect x="14.8623" y="89.6836" width="43.2472" height="43.2472" fill="#303033"/>
<rect x="58.1095" y="89.6836" width="43.2472" height="43.2472" fill="#303033"/>
<rect x="101.357" y="89.6836" width="43.2472" height="43.2472" fill="#303033"/>
<rect x="101.357" y="46.4375" width="43.2472" height="43.2472" fill="#303033"/>
<rect x="315.861" y="262.67" width="43.2472" height="43.2472" fill="#303033"/>
<rect x="315.861" y="305.918" width="43.2472" height="43.2472" fill="#303033"/>
<rect x="315.861" y="349.166" width="43.2472" height="43.2472" fill="#303033"/>
<rect x="315.861" y="219.424" width="43.2472" height="43.2472" fill="#303033"/>
<rect x="315.861" y="176.176" width="43.2472" height="43.2472" fill="#303033"/>
<rect x="315.861" y="132.93" width="43.2472" height="43.2472" fill="#303033"/>
<rect x="272.614" y="132.93" width="43.2472" height="43.2472" fill="#303033"/>
<rect x="229.367" y="132.93" width="43.2472" height="43.2472" fill="#303033"/>
<rect x="186.12" y="89.6816" width="43.2472" height="43.2472" fill="#303033"/>
<rect x="142.872" y="89.6816" width="43.2472" height="43.2472" fill="#303033"/>
<rect x="142.872" y="132.93" width="43.2472" height="43.2472" fill="#303033"/>
<rect x="142.872" y="176.176" width="43.2472" height="43.2472" fill="#303033"/>
<rect x="99.6251" y="176.176" width="43.2472" height="43.2472" fill="#303033"/>
<rect x="56.3779" y="219.424" width="43.2472" height="43.2472" fill="#303033"/>
<rect x="56.3779" y="262.67" width="43.2472" height="43.2472" fill="#303033"/>
<rect x="56.3779" y="305.918" width="43.2472" height="43.2472" fill="#303033"/>
<rect x="99.6251" y="349.166" width="43.2472" height="43.2472" fill="#303033"/>
<rect x="142.872" y="349.166" width="43.2472" height="43.2472" fill="#303033"/>
<rect x="142.872" y="392.412" width="43.2472" height="43.2472" fill="#303033"/>
<rect x="142.872" y="435.66" width="43.2472" height="43.2472" fill="#303033"/>
<rect x="186.12" y="478.906" width="43.2472" height="43.2472" fill="#303033"/>
<rect x="229.367" y="478.906" width="43.2472" height="43.2472" fill="#303033"/>
<rect x="272.614" y="478.906" width="43.2472" height="43.2472" fill="#303033"/>
<rect x="315.861" y="478.906" width="43.2472" height="43.2472" fill="#303033"/>
<rect x="315.861" y="435.66" width="43.2472" height="43.2472" fill="#303033"/>
<rect x="315.861" y="392.412" width="43.2472" height="43.2472" fill="#303033"/>
<rect x="-28.3867" y="132.932" width="43.2472" height="43.2472" fill="#303033"/>
<rect x="-28.3867" y="349.168" width="43.2472" height="43.2472" fill="#303033"/>
<rect x="-28.3867" y="305.92" width="43.2472" height="43.2472" fill="#303033"/>
<rect x="-28.3867" y="262.674" width="43.2472" height="43.2472" fill="#303033"/>
<rect x="14.8605" y="262.674" width="43.2472" height="43.2472" fill="#303033"/>
<rect x="58.1077" y="219.426" width="41.5175" height="43.2472" fill="#303033"/>
<rect x="56.3779" y="132.932" width="44.977" height="43.2472" fill="#303033"/>
<rect x="56.3779" y="176.18" width="44.977" height="43.2472" fill="#303033"/>
<rect x="-28.3849" y="349.17" width="43.2472" height="43.2472" fill="#303033"/>
<rect x="-28.3849" y="522.158" width="43.2472" height="43.2472" fill="#303033"/>
<rect x="-28.3849" y="565.406" width="43.2472" height="43.2472" fill="#303033"/>
<rect x="-28.3849" y="608.654" width="43.2472" height="43.2472" fill="#303033"/>
<rect x="14.8623" y="608.654" width="43.2472" height="43.2472" fill="#303033"/>
<rect x="58.1096" y="608.654" width="43.2472" height="43.2472" fill="#303033"/>
<rect x="58.1096" y="565.406" width="43.2472" height="43.2472" fill="#303033"/>
<rect x="58.1096" y="522.158" width="43.2472" height="43.2472" fill="#303033"/>
<rect x="58.1096" y="478.912" width="43.2472" height="43.2472" fill="#303033"/>
<rect x="14.8623" y="478.912" width="43.2472" height="43.2472" fill="#303033"/>
<rect x="-28.3849" y="435.664" width="43.2472" height="43.2472" fill="#303033"/>
<rect x="-28.3849" y="392.418" width="43.2472" height="43.2472" fill="#303033"/>
<rect x="144.603" y="435.662" width="43.2472" height="43.2472" fill="#303033"/>
<rect x="187.851" y="435.662" width="43.2472" height="43.2472" fill="#303033"/>
<rect x="101.356" y="435.662" width="43.2472" height="43.2472" fill="#303033"/>
<rect x="231.098" y="435.662" width="43.2472" height="43.2472" fill="#303033"/>
<rect x="231.098" y="478.91" width="43.2472" height="43.2472" fill="#303033"/>
<rect x="231.098" y="522.156" width="43.2472" height="43.2472" fill="#303033"/>
<rect x="231.098" y="565.404" width="43.2472" height="43.2472" fill="#303033"/>
<rect x="144.603" y="565.404" width="43.2472" height="43.2472" fill="#303033"/>
<rect x="187.851" y="565.404" width="43.2472" height="43.2472" fill="#303033"/>
<rect x="101.356" y="565.404" width="43.2472" height="43.2472" fill="#303033"/>
<rect x="101.356" y="478.91" width="43.2472" height="43.2472" fill="#303033"/>
<rect x="101.356" y="522.156" width="43.2472" height="43.2472" fill="#303033"/>
<rect x="274.344" y="522.156" width="42.3824" height="43.2472" fill="#303033"/>
<rect x="316.726" y="522.156" width="42.3824" height="43.2472" fill="#303033"/>
<rect x="316.726" y="565.404" width="42.3824" height="43.2472" fill="#303033"/>
<rect x="274.344" y="565.404" width="42.3824" height="43.2472" fill="#303033"/>
<rect x="187.849" y="651.9" width="43.2472" height="43.2472" fill="#303033"/>
<rect x="144.601" y="651.9" width="43.2472" height="43.2472" fill="#303033"/>
<rect x="231.096" y="695.148" width="43.2472" height="43.2472" fill="#303033"/>
<rect x="231.096" y="738.395" width="43.2472" height="43.2472" fill="#303033"/>
<rect x="187.849" y="738.395" width="43.2472" height="43.2472" fill="#303033"/>
<rect x="144.601" y="738.395" width="43.2472" height="43.2472" fill="#303033"/>
<rect x="144.601" y="695.148" width="43.2472" height="43.2472" fill="#303033"/>
<rect x="317.591" y="695.145" width="43.2472" height="43.2472" fill="#303033"/>
<rect x="274.344" y="695.145" width="43.2472" height="43.2472" fill="#303033"/>
<rect x="360.838" y="695.145" width="43.2472" height="43.2472" fill="#303033"/>
<rect x="360.838" y="738.393" width="43.2472" height="43.2472" fill="#303033"/>
<rect x="360.838" y="781.639" width="43.2472" height="43.2472" fill="#303033"/>
<rect x="360.838" y="824.887" width="43.2472" height="43.2472" fill="#303033"/>
<rect x="317.591" y="824.887" width="43.2472" height="43.2472" fill="#303033"/>
<rect x="274.344" y="824.887" width="43.2472" height="43.2472" fill="#303033"/>
<rect x="274.344" y="781.639" width="43.2472" height="43.2472" fill="#303033"/>
<rect x="274.344" y="738.393" width="43.2472" height="43.2472" fill="#303033"/>
<rect x="447.333" y="608.65" width="43.2472" height="43.2472" fill="#303033"/>
<rect x="490.581" y="608.65" width="43.2472" height="43.2472" fill="#303033"/>
<rect x="404.086" y="608.65" width="43.2472" height="43.2472" fill="#303033"/>
<rect x="533.828" y="608.65" width="43.2472" height="43.2472" fill="#303033"/>
<rect x="533.828" y="651.898" width="43.2472" height="43.2472" fill="#303033"/>
<rect x="533.828" y="695.145" width="43.2472" height="43.2472" fill="#303033"/>
<rect x="490.581" y="738.393" width="43.2472" height="43.2472" fill="#303033"/>
<rect x="447.333" y="738.393" width="43.2472" height="43.2472" fill="#303033"/>
<rect x="404.086" y="738.393" width="43.2472" height="43.2472" fill="#303033"/>
<rect x="404.086" y="695.145" width="43.2472" height="43.2472" fill="#303033"/>
<rect x="404.086" y="651.898" width="43.2472" height="43.2472" fill="#303033"/>
<rect x="490.582" y="868.137" width="43.2472" height="43.2472" fill="#303033"/>
<rect x="533.829" y="868.137" width="43.2472" height="43.2472" fill="#303033"/>
<rect x="447.335" y="868.137" width="43.2472" height="43.2472" fill="#303033"/>
<rect x="577.077" y="868.137" width="43.2472" height="43.2472" fill="#303033"/>
<rect x="577.077" y="911.385" width="43.2472" height="43.2472" fill="#303033"/>
<rect x="577.077" y="954.631" width="43.2472" height="43.2472" fill="#303033"/>
<rect x="533.829" y="954.631" width="43.2472" height="43.2472" fill="#303033"/>
<rect x="490.582" y="954.631" width="43.2472" height="43.2472" fill="#303033"/>
<rect x="447.335" y="954.631" width="43.2472" height="43.2472" fill="#303033"/>
<rect x="447.335" y="911.385" width="43.2472" height="43.2472" fill="#303033"/>
<rect x="750.064" y="738.398" width="43.2472" height="43.2472" fill="#303033"/>
<rect x="793.312" y="738.398" width="43.2472" height="43.2472" fill="#303033"/>
<rect x="706.817" y="738.398" width="43.2472" height="43.2472" fill="#303033"/>
<rect x="706.817" y="781.646" width="43.2472" height="43.2472" fill="#303033"/>
<rect x="750.064" y="824.893" width="43.2472" height="43.2472" fill="#303033"/>
<rect x="793.312" y="824.893" width="43.2472" height="43.2472" fill="#303033"/>
<rect x="706.817" y="824.893" width="43.2472" height="43.2472" fill="#303033"/>
<rect x="663.57" y="824.893" width="43.2472" height="43.2472" fill="#303033"/>
<rect x="620.323" y="824.893" width="43.2472" height="43.2472" fill="#303033"/>
<rect x="620.323" y="868.141" width="43.2472" height="43.2472" fill="#303033"/>
<rect x="620.323" y="911.387" width="43.2472" height="43.2472" fill="#303033"/>
<rect x="663.57" y="911.387" width="43.2472" height="43.2472" fill="#303033"/>
<rect x="663.57" y="954.635" width="43.2472" height="43.2472" fill="#303033"/>
<rect x="706.817" y="954.635" width="43.2472" height="43.2472" fill="#303033"/>
<rect x="750.064" y="954.635" width="43.2472" height="43.2472" fill="#303033"/>
<rect x="793.312" y="954.635" width="43.2472" height="43.2472" fill="#303033"/>
<rect x="793.312" y="911.387" width="43.2472" height="43.2472" fill="#303033"/>
<rect x="836.559" y="911.387" width="43.2472" height="43.2472" fill="#303033"/>
<rect x="879.806" y="911.387" width="43.2472" height="43.2472" fill="#303033"/>
<rect x="923.053" y="911.387" width="43.2472" height="43.2472" fill="#303033"/>
<rect x="923.053" y="824.893" width="43.2472" height="43.2472" fill="#303033"/>
<rect x="923.053" y="868.141" width="43.2472" height="43.2472" fill="#303033"/>
<rect x="923.053" y="781.646" width="43.2472" height="43.2472" fill="#303033"/>
<rect x="836.559" y="781.646" width="43.2472" height="43.2472" fill="#303033"/>
<rect x="879.806" y="781.646" width="43.2472" height="43.2472" fill="#303033"/>
<rect x="793.312" y="781.646" width="43.2472" height="43.2472" fill="#303033"/>
<rect x="1052.79" y="651.9" width="43.2472" height="43.2472" fill="#303033"/>
<rect x="1009.55" y="651.9" width="43.2472" height="43.2472" fill="#303033"/>
<rect x="966.3" y="608.654" width="43.2472" height="43.2472" fill="#303033"/>
<rect x="923.053" y="608.654" width="43.2472" height="43.2472" fill="#303033"/>
<rect x="879.806" y="608.654" width="43.2472" height="43.2472" fill="#303033"/>
<rect x="836.559" y="651.9" width="43.2472" height="43.2472" fill="#303033"/>
<rect x="836.559" y="695.148" width="43.2472" height="43.2472" fill="#303033"/>
<rect x="836.559" y="738.395" width="43.2472" height="43.2472" fill="#303033"/>
<rect x="879.806" y="781.643" width="43.2472" height="43.2472" fill="#303033"/>
<rect x="923.053" y="781.643" width="43.2472" height="43.2472" fill="#303033"/>
<rect x="966.3" y="781.643" width="43.2472" height="43.2472" fill="#303033"/>
<rect x="966.3" y="824.891" width="43.2472" height="43.2472" fill="#303033"/>
<rect x="1009.55" y="824.891" width="43.2472" height="43.2472" fill="#303033"/>
<rect x="1052.79" y="824.891" width="43.2472" height="43.2472" fill="#303033"/>
<rect x="1096.04" y="824.891" width="43.2472" height="43.2472" fill="#303033"/>
<rect x="1139.29" y="824.891" width="43.2472" height="43.2472" fill="#303033"/>
<rect x="1139.29" y="738.395" width="43.2472" height="43.2472" fill="#303033"/>
<rect x="1139.29" y="781.643" width="43.2472" height="43.2472" fill="#303033"/>
<rect x="1139.29" y="695.148" width="43.2472" height="43.2472" fill="#303033"/>
<rect x="1182.54" y="695.148" width="43.2472" height="43.2472" fill="#303033"/>
<rect x="1182.54" y="608.654" width="43.2472" height="43.2472" fill="#303033"/>
<rect x="1182.54" y="651.9" width="43.2472" height="43.2472" fill="#303033"/>
<rect x="1182.54" y="565.406" width="43.2472" height="43.2472" fill="#303033"/>
<rect x="1096.04" y="565.406" width="43.2472" height="43.2472" fill="#303033"/>
<rect x="1139.29" y="565.406" width="43.2472" height="43.2472" fill="#303033"/>
<rect x="1052.79" y="608.654" width="43.2472" height="43.2472" fill="#303033"/>
<rect x="1182.54" y="435.662" width="43.2472" height="43.2472" fill="#303033"/>
<rect x="1225.78" y="478.91" width="43.2472" height="43.2472" fill="#303033"/>
<rect x="1182.54" y="522.156" width="43.2472" height="43.2472" fill="#303033"/>
<rect x="1139.29" y="478.91" width="43.2472" height="43.2472" fill="#303033"/>
<rect x="1269.03" y="435.662" width="43.2472" height="43.2472" fill="#303033"/>
<rect x="1312.28" y="435.662" width="43.2472" height="43.2472" fill="#303033"/>
<rect x="1225.78" y="435.662" width="43.2472" height="43.2472" fill="#303033"/>
<rect x="1225.78" y="478.91" width="43.2472" height="43.2472" fill="#303033"/>
<rect x="1225.78" y="522.156" width="43.2472" height="43.2472" fill="#303033"/>
<rect x="1225.78" y="565.404" width="43.2472" height="43.2472" fill="#303033"/>
<rect x="1225.78" y="608.65" width="43.2472" height="43.2472" fill="#303033"/>
<rect x="1225.78" y="651.898" width="43.2472" height="43.2472" fill="#303033"/>
<rect x="1269.03" y="651.898" width="43.2472" height="43.2472" fill="#303033"/>
<rect x="1312.28" y="651.898" width="43.2472" height="43.2472" fill="#303033"/>
<rect x="1355.52" y="608.65" width="43.2472" height="43.2472" fill="#303033"/>
<rect x="1355.52" y="565.404" width="43.2472" height="43.2472" fill="#303033"/>
<rect x="1355.52" y="522.156" width="43.2472" height="43.2472" fill="#303033"/>
<rect x="1312.28" y="522.156" width="43.2472" height="43.2472" fill="#303033"/>
<rect x="1312.28" y="478.91" width="43.2472" height="43.2472" fill="#303033"/>
<rect x="836.558" y="305.922" width="43.2472" height="43.2472" fill="#303033"/>
<rect x="879.806" y="305.922" width="43.2472" height="43.2472" fill="#303033"/>
<rect x="793.311" y="305.922" width="43.2472" height="43.2472" fill="#303033"/>
<rect x="793.311" y="262.674" width="43.2472" height="43.2472" fill="#303033"/>
<rect x="750.064" y="262.674" width="43.2472" height="43.2472" fill="#303033"/>
<rect x="706.816" y="305.922" width="43.2472" height="43.2472" fill="#303033"/>
<rect x="706.816" y="349.168" width="43.2472" height="43.2472" fill="#303033"/>
<rect x="750.064" y="349.168" width="43.2472" height="43.2472" fill="#303033"/>
<rect x="793.311" y="349.168" width="43.2472" height="43.2472" fill="#303033"/>
<rect x="793.311" y="392.416" width="43.2472" height="43.2472" fill="#303033"/>
<rect x="793.311" y="435.662" width="43.2472" height="43.2472" fill="#303033"/>
<rect x="836.558" y="435.662" width="43.2472" height="43.2472" fill="#303033"/>
<rect x="879.806" y="435.662" width="43.2472" height="43.2472" fill="#303033"/>
<rect x="923.053" y="435.662" width="43.2472" height="43.2472" fill="#303033"/>
<rect x="923.053" y="349.168" width="43.2472" height="43.2472" fill="#303033"/>
<rect x="923.053" y="392.416" width="43.2472" height="43.2472" fill="#303033"/>
<rect x="923.053" y="305.922" width="43.2472" height="43.2472" fill="#303033"/>
<rect x="577.076" y="262.674" width="43.2472" height="43.2472" fill="#303033"/>
<rect x="620.323" y="262.674" width="43.2472" height="43.2472" fill="#303033"/>
<rect x="533.829" y="262.674" width="43.2472" height="43.2472" fill="#303033"/>
<rect x="663.57" y="262.674" width="43.2472" height="43.2472" fill="#303033"/>
<rect x="663.57" y="305.922" width="43.2472" height="43.2472" fill="#303033"/>
<rect x="663.57" y="349.168" width="43.2472" height="43.2472" fill="#303033"/>
<rect x="663.57" y="392.416" width="43.2472" height="43.2472" fill="#303033"/>
<rect x="663.57" y="435.662" width="43.2472" height="43.2472" fill="#303033"/>
<rect x="577.076" y="435.662" width="43.2472" height="43.2472" fill="#303033"/>
<rect x="620.323" y="435.662" width="43.2472" height="43.2472" fill="#303033"/>
<rect x="533.829" y="435.662" width="43.2472" height="43.2472" fill="#303033"/>
<rect x="533.829" y="392.416" width="43.2472" height="43.2472" fill="#303033"/>
<rect x="533.829" y="305.922" width="43.2472" height="43.2472" fill="#303033"/>
<rect x="533.829" y="349.168" width="43.2472" height="43.2472" fill="#303033"/>
<rect x="706.816" y="695.145" width="43.2472" height="43.2472" fill="#303033"/>
<rect x="663.568" y="695.145" width="43.2472" height="43.2472" fill="#303033"/>
<rect x="750.063" y="695.145" width="43.2472" height="43.2472" fill="#303033"/>
<rect x="750.063" y="651.898" width="43.2472" height="43.2472" fill="#303033"/>
<rect x="750.063" y="608.65" width="43.2472" height="43.2472" fill="#303033"/>
<rect x="706.816" y="608.65" width="43.2472" height="43.2472" fill="#303033"/>
<rect x="663.568" y="565.404" width="43.2472" height="43.2472" fill="#303033"/>
<rect x="663.568" y="522.156" width="43.2472" height="43.2472" fill="#303033"/>
<rect x="620.321" y="522.156" width="43.2472" height="43.2472" fill="#303033"/>
<rect x="577.074" y="522.156" width="43.2472" height="43.2472" fill="#303033"/>
<rect x="577.074" y="565.404" width="43.2472" height="43.2472" fill="#303033"/>
<rect x="577.074" y="608.65" width="43.2472" height="43.2472" fill="#303033"/>
<rect x="577.074" y="651.898" width="43.2472" height="43.2472" fill="#303033"/>
<rect x="620.321" y="651.898" width="43.2472" height="43.2472" fill="#303033"/>
<rect x="750.064" y="435.662" width="43.2472" height="43.2472" fill="#303033"/>
<rect x="706.816" y="435.662" width="43.2472" height="43.2472" fill="#303033"/>
<rect x="793.311" y="478.91" width="43.2472" height="43.2472" fill="#303033"/>
<rect x="750.064" y="522.156" width="43.2472" height="43.2472" fill="#303033"/>
<rect x="706.816" y="522.156" width="43.2472" height="43.2472" fill="#303033"/>
<rect x="706.816" y="478.91" width="43.2472" height="43.2472" fill="#303033"/>
<rect x="1269.03" y="89.6816" width="43.2472" height="43.2472" fill="#303033"/>
<rect x="1312.28" y="132.93" width="43.2472" height="43.2472" fill="#303033"/>
<rect x="1269.03" y="132.93" width="43.2472" height="43.2472" fill="#303033"/>
<rect x="1225.78" y="132.93" width="43.2472" height="43.2472" fill="#303033"/>
<rect x="1398.77" y="219.426" width="43.2472" height="43.2472" fill="#303033"/>
<rect x="1355.53" y="219.426" width="43.2472" height="43.2472" fill="#303033"/>
<rect x="1398.77" y="305.92" width="43.2472" height="43.2472" fill="#303033"/>
<rect x="1355.53" y="305.92" width="43.2472" height="43.2472" fill="#303033"/>
<rect x="1355.53" y="262.674" width="43.2472" height="43.2472" fill="#303033"/>
<rect x="1183.29" y="132.936" width="43.2472" height="43.2472" fill="#303033"/>
<rect x="1140.04" y="89.6875" width="43.2472" height="43.2472" fill="#303033"/>
<rect x="1096.79" y="89.6875" width="43.2472" height="43.2472" fill="#303033"/>
<rect x="1053.55" y="132.936" width="43.2472" height="43.2472" fill="#303033"/>
<rect x="1053.55" y="176.182" width="43.2472" height="43.2472" fill="#303033"/>
<rect x="1096.79" y="219.43" width="43.2472" height="43.2472" fill="#303033"/>
<rect x="1140.04" y="219.43" width="43.2472" height="43.2472" fill="#303033"/>
<rect x="1140.04" y="262.676" width="43.2472" height="43.2472" fill="#303033"/>
<rect x="1183.29" y="305.924" width="43.2472" height="43.2472" fill="#303033"/>
<rect x="1183.29" y="349.172" width="43.2472" height="43.2472" fill="#303033"/>
<rect x="1226.53" y="392.418" width="43.2472" height="43.2472" fill="#303033"/>
<rect x="1269.78" y="392.418" width="43.2472" height="43.2472" fill="#303033"/>
<rect x="1313.03" y="349.172" width="43.2472" height="43.2472" fill="#303033"/>
<rect x="1313.03" y="305.924" width="43.2472" height="43.2472" fill="#303033"/>
<rect x="1313.03" y="262.676" width="43.2472" height="43.2472" fill="#303033"/>
<rect x="1269.78" y="262.676" width="43.2472" height="43.2472" fill="#303033"/>
<rect x="1226.53" y="219.43" width="43.2472" height="43.2472" fill="#303033"/>
<rect x="1226.53" y="176.182" width="43.2472" height="43.2472" fill="#303033"/>
<rect x="1183.29" y="176.182" width="43.2472" height="43.2472" fill="#303033"/>
<rect x="1009.55" y="262.674" width="43.2472" height="43.2472" fill="#303033"/>
<rect x="1052.8" y="262.674" width="43.2472" height="43.2472" fill="#303033"/>
<rect x="1052.8" y="305.922" width="43.2472" height="43.2472" fill="#303033"/>
<rect x="1052.8" y="349.168" width="43.2472" height="43.2472" fill="#303033"/>
<rect x="1009.55" y="349.168" width="43.2472" height="43.2472" fill="#303033"/>
<rect x="966.301" y="305.922" width="43.2472" height="43.2472" fill="#303033"/>
<rect x="966.301" y="262.674" width="43.2472" height="43.2472" fill="#303033"/>
<rect x="1269.03" y="-40.0586" width="43.2472" height="43.2472" fill="#303033"/>
<rect x="1312.28" y="-40.0586" width="43.2472" height="43.2472" fill="#303033"/>
<rect x="1355.53" y="-40.0586" width="43.2472" height="43.2472" fill="#303033"/>
<rect x="1355.53" y="3.18945" width="43.2472" height="43.2472" fill="#303033"/>
<rect x="1355.53" y="46.4375" width="43.2472" height="43.2472" fill="#303033"/>
<rect x="1355.53" y="89.6836" width="43.2472" height="43.2472" fill="#303033"/>
<rect x="1398.77" y="89.6836" width="43.2472" height="43.2472" fill="#303033"/>
<rect x="1398.77" y="46.4375" width="43.2472" height="43.2472" fill="#303033"/>
</svg>
