<svg width="130" height="3473" viewBox="0 0 130 3473" fill="none" xmlns="http://www.w3.org/2000/svg">
<rect x="5.75293" y="5.93652" width="130.531" height="3462.61" fill="white"/>
<rect x="32.8516" y="3392.94" width="11.5782" height="10.8496" transform="rotate(-90 32.8516 3392.94)" fill="black"/>
<rect x="32.8516" y="3346.62" width="11.5782" height="10.8496" transform="rotate(-90 32.8516 3346.62)" fill="black"/>
<rect x="32.8516" y="3323.47" width="11.5782" height="10.8496" transform="rotate(-90 32.8516 3323.47)" fill="black"/>
<rect x="32.8516" y="3369.78" width="11.5782" height="10.8496" transform="rotate(-90 32.8516 3369.78)" fill="black"/>
<rect x="76.25" y="3392.94" width="11.5782" height="10.8496" transform="rotate(-90 76.25 3392.94)" fill="black"/>
<rect x="76.25" y="3346.62" width="11.5782" height="10.8496" transform="rotate(-90 76.25 3346.62)" fill="black"/>
<rect x="76.25" y="3323.47" width="11.5782" height="10.8496" transform="rotate(-90 76.25 3323.47)" fill="black"/>
<rect x="119.648" y="3392.94" width="11.5782" height="10.8496" transform="rotate(-90 119.648 3392.94)" fill="black"/>
<rect x="119.648" y="3346.62" width="11.5782" height="10.8496" transform="rotate(-90 119.648 3346.62)" fill="black"/>
<rect x="119.648" y="3323.47" width="11.5782" height="10.8496" transform="rotate(-90 119.648 3323.47)" fill="black"/>
<rect x="119.648" y="3369.78" width="11.5782" height="10.8496" transform="rotate(-90 119.648 3369.78)" fill="black"/>
<rect x="97.9531" y="3323.47" width="11.5782" height="10.8496" transform="rotate(-90 97.9531 3323.47)" fill="black"/>
<rect x="97.9531" y="3369.78" width="11.5782" height="10.8496" transform="rotate(-90 97.9531 3369.78)" fill="black"/>
<rect x="54.5547" y="3323.47" width="11.5782" height="10.8496" transform="rotate(-90 54.5547 3323.47)" fill="black"/>
<rect x="54.5547" y="3369.78" width="11.5782" height="10.8496" transform="rotate(-90 54.5547 3369.78)" fill="black"/>
<rect x="11.1562" y="3323.47" width="11.5782" height="10.8496" transform="rotate(-90 11.1562 3323.47)" fill="black"/>
<rect x="11.1562" y="3369.78" width="11.5782" height="10.8496" transform="rotate(-90 11.1562 3369.78)" fill="black"/>
<rect x="32.8516" y="3207.69" width="11.5782" height="10.8496" transform="rotate(-90 32.8516 3207.69)" fill="black"/>
<rect x="32.8516" y="3161.37" width="11.5782" height="10.8496" transform="rotate(-90 32.8516 3161.37)" fill="black"/>
<rect x="32.8516" y="3138.23" width="11.5782" height="10.8496" transform="rotate(-90 32.8516 3138.23)" fill="black"/>
<rect x="32.8516" y="3184.53" width="11.5782" height="10.8496" transform="rotate(-90 32.8516 3184.53)" fill="black"/>
<rect x="76.25" y="3207.69" width="11.5782" height="10.8496" transform="rotate(-90 76.25 3207.69)" fill="black"/>
<rect x="76.25" y="3161.37" width="11.5782" height="10.8496" transform="rotate(-90 76.25 3161.37)" fill="black"/>
<rect x="76.25" y="3138.23" width="11.5782" height="10.8496" transform="rotate(-90 76.25 3138.23)" fill="black"/>
<rect x="119.648" y="3207.69" width="11.5782" height="10.8496" transform="rotate(-90 119.648 3207.69)" fill="black"/>
<rect x="119.648" y="3161.37" width="11.5782" height="10.8496" transform="rotate(-90 119.648 3161.37)" fill="black"/>
<rect x="119.648" y="3138.23" width="11.5782" height="10.8496" transform="rotate(-90 119.648 3138.23)" fill="black"/>
<rect x="119.648" y="3184.53" width="11.5782" height="10.8496" transform="rotate(-90 119.648 3184.53)" fill="black"/>
<rect x="97.9531" y="3138.23" width="11.5782" height="10.8496" transform="rotate(-90 97.9531 3138.23)" fill="black"/>
<rect x="97.9531" y="3184.53" width="11.5782" height="10.8496" transform="rotate(-90 97.9531 3184.53)" fill="black"/>
<rect x="54.5547" y="3138.23" width="11.5782" height="10.8496" transform="rotate(-90 54.5547 3138.23)" fill="black"/>
<rect x="54.5547" y="3184.53" width="11.5782" height="10.8496" transform="rotate(-90 54.5547 3184.53)" fill="black"/>
<rect x="11.1562" y="3138.23" width="11.5782" height="10.8496" transform="rotate(-90 11.1562 3138.23)" fill="black"/>
<rect x="11.1562" y="3184.53" width="11.5782" height="10.8496" transform="rotate(-90 11.1562 3184.53)" fill="black"/>
<rect x="32.8516" y="3300.31" width="11.5782" height="10.8496" transform="rotate(-90 32.8516 3300.31)" fill="black"/>
<rect x="32.8516" y="3253.99" width="11.5782" height="10.8496" transform="rotate(-90 32.8516 3253.99)" fill="black"/>
<rect x="32.8516" y="3230.85" width="11.5782" height="10.8496" transform="rotate(-90 32.8516 3230.85)" fill="black"/>
<rect x="32.8516" y="3277.15" width="11.5782" height="10.8496" transform="rotate(-90 32.8516 3277.15)" fill="black"/>
<rect x="76.25" y="3300.31" width="11.5782" height="10.8496" transform="rotate(-90 76.25 3300.31)" fill="black"/>
<rect x="76.25" y="3253.99" width="11.5782" height="10.8496" transform="rotate(-90 76.25 3253.99)" fill="black"/>
<rect x="76.25" y="3230.85" width="11.5782" height="10.8496" transform="rotate(-90 76.25 3230.85)" fill="black"/>
<rect x="119.648" y="3300.31" width="11.5782" height="10.8496" transform="rotate(-90 119.648 3300.31)" fill="black"/>
<rect x="119.648" y="3253.99" width="11.5782" height="10.8496" transform="rotate(-90 119.648 3253.99)" fill="black"/>
<rect x="119.648" y="3230.85" width="11.5782" height="10.8496" transform="rotate(-90 119.648 3230.85)" fill="black"/>
<rect x="119.648" y="3277.15" width="11.5782" height="10.8496" transform="rotate(-90 119.648 3277.15)" fill="black"/>
<rect x="97.9531" y="3230.85" width="11.5782" height="10.8496" transform="rotate(-90 97.9531 3230.85)" fill="black"/>
<rect x="97.9531" y="3277.15" width="11.5782" height="10.8496" transform="rotate(-90 97.9531 3277.15)" fill="black"/>
<rect x="54.5547" y="3230.85" width="11.5782" height="10.8496" transform="rotate(-90 54.5547 3230.85)" fill="black"/>
<rect x="54.5547" y="3277.15" width="11.5782" height="10.8496" transform="rotate(-90 54.5547 3277.15)" fill="black"/>
<rect x="11.1562" y="3230.85" width="11.5782" height="10.8496" transform="rotate(-90 11.1562 3230.85)" fill="black"/>
<rect x="11.1562" y="3277.15" width="11.5782" height="10.8496" transform="rotate(-90 11.1562 3277.15)" fill="black"/>
<rect x="32.8516" y="3115.06" width="11.5782" height="10.8496" transform="rotate(-90 32.8516 3115.06)" fill="black"/>
<rect x="32.8516" y="3068.74" width="11.5782" height="10.8496" transform="rotate(-90 32.8516 3068.74)" fill="black"/>
<rect x="32.8516" y="3045.6" width="11.5782" height="10.8496" transform="rotate(-90 32.8516 3045.6)" fill="black"/>
<rect x="32.8516" y="3091.9" width="11.5782" height="10.8496" transform="rotate(-90 32.8516 3091.9)" fill="black"/>
<rect x="76.25" y="3115.06" width="11.5782" height="10.8496" transform="rotate(-90 76.25 3115.06)" fill="black"/>
<rect x="76.25" y="3068.74" width="11.5782" height="10.8496" transform="rotate(-90 76.25 3068.74)" fill="black"/>
<rect x="76.25" y="3045.6" width="11.5782" height="10.8496" transform="rotate(-90 76.25 3045.6)" fill="black"/>
<rect x="119.648" y="3115.06" width="11.5782" height="10.8496" transform="rotate(-90 119.648 3115.06)" fill="black"/>
<rect x="119.648" y="3068.74" width="11.5782" height="10.8496" transform="rotate(-90 119.648 3068.74)" fill="black"/>
<rect x="119.648" y="3045.6" width="11.5782" height="10.8496" transform="rotate(-90 119.648 3045.6)" fill="black"/>
<rect x="119.648" y="3091.9" width="11.5782" height="10.8496" transform="rotate(-90 119.648 3091.9)" fill="black"/>
<rect x="97.9531" y="3045.6" width="11.5782" height="10.8496" transform="rotate(-90 97.9531 3045.6)" fill="black"/>
<rect x="97.9531" y="3091.9" width="11.5782" height="10.8496" transform="rotate(-90 97.9531 3091.9)" fill="black"/>
<rect x="54.5547" y="3045.6" width="11.5782" height="10.8496" transform="rotate(-90 54.5547 3045.6)" fill="black"/>
<rect x="54.5547" y="3091.9" width="11.5782" height="10.8496" transform="rotate(-90 54.5547 3091.9)" fill="black"/>
<rect x="11.1562" y="3045.6" width="11.5782" height="10.8496" transform="rotate(-90 11.1562 3045.6)" fill="black"/>
<rect x="11.1562" y="3091.9" width="11.5782" height="10.8496" transform="rotate(-90 11.1562 3091.9)" fill="black"/>
<rect x="32.8516" y="1045.2" width="11.5782" height="10.8496" transform="rotate(-90 32.8516 1045.2)" fill="black"/>
<rect x="32.8516" y="998.879" width="11.5782" height="10.8496" transform="rotate(-90 32.8516 998.879)" fill="black"/>
<rect x="32.8516" y="975.738" width="11.5782" height="10.8496" transform="rotate(-90 32.8516 975.738)" fill="black"/>
<rect x="32.8516" y="1022.04" width="11.5782" height="10.8496" transform="rotate(-90 32.8516 1022.04)" fill="black"/>
<rect x="76.25" y="1045.2" width="11.5782" height="10.8496" transform="rotate(-90 76.25 1045.2)" fill="black"/>
<rect x="76.25" y="998.879" width="11.5782" height="10.8496" transform="rotate(-90 76.25 998.879)" fill="black"/>
<rect x="76.25" y="975.738" width="11.5782" height="10.8496" transform="rotate(-90 76.25 975.738)" fill="black"/>
<rect x="119.648" y="1045.2" width="11.5782" height="10.8496" transform="rotate(-90 119.648 1045.2)" fill="black"/>
<rect x="119.648" y="998.879" width="11.5782" height="10.8496" transform="rotate(-90 119.648 998.879)" fill="black"/>
<rect x="119.648" y="975.738" width="11.5782" height="10.8496" transform="rotate(-90 119.648 975.738)" fill="black"/>
<rect x="119.648" y="1022.04" width="11.5782" height="10.8496" transform="rotate(-90 119.648 1022.04)" fill="black"/>
<rect x="97.9531" y="975.738" width="11.5782" height="10.8496" transform="rotate(-90 97.9531 975.738)" fill="black"/>
<rect x="97.9531" y="1022.04" width="11.5782" height="10.8496" transform="rotate(-90 97.9531 1022.04)" fill="black"/>
<rect x="54.5547" y="975.738" width="11.5782" height="10.8496" transform="rotate(-90 54.5547 975.738)" fill="black"/>
<rect x="54.5547" y="1022.04" width="11.5782" height="10.8496" transform="rotate(-90 54.5547 1022.04)" fill="black"/>
<rect x="11.1562" y="975.738" width="11.5782" height="10.8496" transform="rotate(-90 11.1562 975.738)" fill="black"/>
<rect x="11.1562" y="1022.04" width="11.5782" height="10.8496" transform="rotate(-90 11.1562 1022.04)" fill="black"/>
<rect x="32.8516" y="859.953" width="11.5782" height="10.8496" transform="rotate(-90 32.8516 859.953)" fill="black"/>
<rect x="32.8516" y="813.631" width="11.5782" height="10.8496" transform="rotate(-90 32.8516 813.631)" fill="black"/>
<rect x="32.8516" y="790.49" width="11.5782" height="10.8496" transform="rotate(-90 32.8516 790.49)" fill="black"/>
<rect x="32.8516" y="836.791" width="11.5782" height="10.8496" transform="rotate(-90 32.8516 836.791)" fill="black"/>
<rect x="76.25" y="859.953" width="11.5782" height="10.8496" transform="rotate(-90 76.25 859.953)" fill="black"/>
<rect x="76.25" y="813.631" width="11.5782" height="10.8496" transform="rotate(-90 76.25 813.631)" fill="black"/>
<rect x="76.25" y="790.49" width="11.5782" height="10.8496" transform="rotate(-90 76.25 790.49)" fill="black"/>
<rect x="119.648" y="859.953" width="11.5782" height="10.8496" transform="rotate(-90 119.648 859.953)" fill="black"/>
<rect x="119.648" y="813.631" width="11.5782" height="10.8496" transform="rotate(-90 119.648 813.631)" fill="black"/>
<rect x="119.648" y="790.49" width="11.5782" height="10.8496" transform="rotate(-90 119.648 790.49)" fill="black"/>
<rect x="119.648" y="836.791" width="11.5782" height="10.8496" transform="rotate(-90 119.648 836.791)" fill="black"/>
<rect x="97.9531" y="790.49" width="11.5782" height="10.8496" transform="rotate(-90 97.9531 790.49)" fill="black"/>
<rect x="97.9531" y="836.791" width="11.5782" height="10.8496" transform="rotate(-90 97.9531 836.791)" fill="black"/>
<rect x="54.5547" y="790.49" width="11.5782" height="10.8496" transform="rotate(-90 54.5547 790.49)" fill="black"/>
<rect x="54.5547" y="836.791" width="11.5782" height="10.8496" transform="rotate(-90 54.5547 836.791)" fill="black"/>
<rect x="11.1562" y="790.49" width="11.5782" height="10.8496" transform="rotate(-90 11.1562 790.49)" fill="black"/>
<rect x="11.1562" y="836.791" width="11.5782" height="10.8496" transform="rotate(-90 11.1562 836.791)" fill="black"/>
<rect x="32.8516" y="952.578" width="11.5782" height="10.8496" transform="rotate(-90 32.8516 952.578)" fill="black"/>
<rect x="32.8516" y="906.256" width="11.5782" height="10.8496" transform="rotate(-90 32.8516 906.256)" fill="black"/>
<rect x="32.8516" y="883.115" width="11.5782" height="10.8496" transform="rotate(-90 32.8516 883.115)" fill="black"/>
<rect x="32.8516" y="929.416" width="11.5782" height="10.8496" transform="rotate(-90 32.8516 929.416)" fill="black"/>
<rect x="76.25" y="952.578" width="11.5782" height="10.8496" transform="rotate(-90 76.25 952.578)" fill="black"/>
<rect x="76.25" y="906.256" width="11.5782" height="10.8496" transform="rotate(-90 76.25 906.256)" fill="black"/>
<rect x="76.25" y="883.115" width="11.5782" height="10.8496" transform="rotate(-90 76.25 883.115)" fill="black"/>
<rect x="119.648" y="952.578" width="11.5782" height="10.8496" transform="rotate(-90 119.648 952.578)" fill="black"/>
<rect x="119.648" y="906.256" width="11.5782" height="10.8496" transform="rotate(-90 119.648 906.256)" fill="black"/>
<rect x="119.648" y="883.115" width="11.5782" height="10.8496" transform="rotate(-90 119.648 883.115)" fill="black"/>
<rect x="119.648" y="929.416" width="11.5782" height="10.8496" transform="rotate(-90 119.648 929.416)" fill="black"/>
<rect x="97.9531" y="883.115" width="11.5782" height="10.8496" transform="rotate(-90 97.9531 883.115)" fill="black"/>
<rect x="97.9531" y="929.416" width="11.5782" height="10.8496" transform="rotate(-90 97.9531 929.416)" fill="black"/>
<rect x="54.5547" y="883.115" width="11.5782" height="10.8496" transform="rotate(-90 54.5547 883.115)" fill="black"/>
<rect x="54.5547" y="929.416" width="11.5782" height="10.8496" transform="rotate(-90 54.5547 929.416)" fill="black"/>
<rect x="11.1562" y="883.115" width="11.5782" height="10.8496" transform="rotate(-90 11.1562 883.115)" fill="black"/>
<rect x="11.1562" y="929.416" width="11.5782" height="10.8496" transform="rotate(-90 11.1562 929.416)" fill="black"/>
<rect x="32.8516" y="767.328" width="11.5782" height="10.8496" transform="rotate(-90 32.8516 767.328)" fill="black"/>
<rect x="32.8516" y="721.006" width="11.5782" height="10.8496" transform="rotate(-90 32.8516 721.006)" fill="black"/>
<rect x="32.8516" y="697.865" width="11.5782" height="10.8496" transform="rotate(-90 32.8516 697.865)" fill="black"/>
<rect x="32.8516" y="744.166" width="11.5782" height="10.8496" transform="rotate(-90 32.8516 744.166)" fill="black"/>
<rect x="76.25" y="767.328" width="11.5782" height="10.8496" transform="rotate(-90 76.25 767.328)" fill="black"/>
<rect x="76.25" y="721.006" width="11.5782" height="10.8496" transform="rotate(-90 76.25 721.006)" fill="black"/>
<rect x="76.25" y="697.865" width="11.5782" height="10.8496" transform="rotate(-90 76.25 697.865)" fill="black"/>
<rect x="119.648" y="767.328" width="11.5782" height="10.8496" transform="rotate(-90 119.648 767.328)" fill="black"/>
<rect x="119.648" y="721.006" width="11.5782" height="10.8496" transform="rotate(-90 119.648 721.006)" fill="black"/>
<rect x="119.648" y="697.865" width="11.5782" height="10.8496" transform="rotate(-90 119.648 697.865)" fill="black"/>
<rect x="119.648" y="744.166" width="11.5782" height="10.8496" transform="rotate(-90 119.648 744.166)" fill="black"/>
<rect x="97.9531" y="697.865" width="11.5782" height="10.8496" transform="rotate(-90 97.9531 697.865)" fill="black"/>
<rect x="97.9531" y="744.166" width="11.5782" height="10.8496" transform="rotate(-90 97.9531 744.166)" fill="black"/>
<rect x="54.5547" y="697.865" width="11.5782" height="10.8496" transform="rotate(-90 54.5547 697.865)" fill="black"/>
<rect x="54.5547" y="744.166" width="11.5782" height="10.8496" transform="rotate(-90 54.5547 744.166)" fill="black"/>
<rect x="11.1562" y="697.865" width="11.5782" height="10.8496" transform="rotate(-90 11.1562 697.865)" fill="black"/>
<rect x="11.1562" y="744.166" width="11.5782" height="10.8496" transform="rotate(-90 11.1562 744.166)" fill="black"/>
<rect x="32.8516" y="1910.93" width="11.5782" height="10.8496" transform="rotate(-90 32.8516 1910.93)" fill="black"/>
<rect x="32.8516" y="1864.61" width="11.5782" height="10.8496" transform="rotate(-90 32.8516 1864.61)" fill="black"/>
<rect x="32.8516" y="1841.47" width="11.5782" height="10.8496" transform="rotate(-90 32.8516 1841.47)" fill="black"/>
<rect x="32.8516" y="1887.77" width="11.5782" height="10.8496" transform="rotate(-90 32.8516 1887.77)" fill="black"/>
<rect x="76.25" y="1910.93" width="11.5782" height="10.8496" transform="rotate(-90 76.25 1910.93)" fill="black"/>
<rect x="76.25" y="1864.61" width="11.5782" height="10.8496" transform="rotate(-90 76.25 1864.61)" fill="black"/>
<rect x="76.25" y="1841.47" width="11.5782" height="10.8496" transform="rotate(-90 76.25 1841.47)" fill="black"/>
<rect x="119.648" y="1910.93" width="11.5782" height="10.8496" transform="rotate(-90 119.648 1910.93)" fill="black"/>
<rect x="119.648" y="1864.61" width="11.5782" height="10.8496" transform="rotate(-90 119.648 1864.61)" fill="black"/>
<rect x="119.648" y="1841.47" width="11.5782" height="10.8496" transform="rotate(-90 119.648 1841.47)" fill="black"/>
<rect x="119.648" y="1887.77" width="11.5782" height="10.8496" transform="rotate(-90 119.648 1887.77)" fill="black"/>
<rect x="97.9531" y="1841.47" width="11.5782" height="10.8496" transform="rotate(-90 97.9531 1841.47)" fill="black"/>
<rect x="97.9531" y="1887.77" width="11.5782" height="10.8496" transform="rotate(-90 97.9531 1887.77)" fill="black"/>
<rect x="54.5547" y="1841.47" width="11.5782" height="10.8496" transform="rotate(-90 54.5547 1841.47)" fill="black"/>
<rect x="54.5547" y="1887.77" width="11.5782" height="10.8496" transform="rotate(-90 54.5547 1887.77)" fill="black"/>
<rect x="11.1562" y="1841.47" width="11.5782" height="10.8496" transform="rotate(-90 11.1562 1841.47)" fill="black"/>
<rect x="11.1562" y="1887.77" width="11.5782" height="10.8496" transform="rotate(-90 11.1562 1887.77)" fill="black"/>
<rect x="32.8516" y="1725.68" width="11.5782" height="10.8496" transform="rotate(-90 32.8516 1725.68)" fill="black"/>
<rect x="32.8516" y="1679.36" width="11.5782" height="10.8496" transform="rotate(-90 32.8516 1679.36)" fill="black"/>
<rect x="32.8516" y="1656.22" width="11.5782" height="10.8496" transform="rotate(-90 32.8516 1656.22)" fill="black"/>
<rect x="32.8516" y="1702.52" width="11.5782" height="10.8496" transform="rotate(-90 32.8516 1702.52)" fill="black"/>
<rect x="76.25" y="1725.68" width="11.5782" height="10.8496" transform="rotate(-90 76.25 1725.68)" fill="black"/>
<rect x="76.25" y="1679.36" width="11.5782" height="10.8496" transform="rotate(-90 76.25 1679.36)" fill="black"/>
<rect x="76.25" y="1656.22" width="11.5782" height="10.8496" transform="rotate(-90 76.25 1656.22)" fill="black"/>
<rect x="119.648" y="1725.68" width="11.5782" height="10.8496" transform="rotate(-90 119.648 1725.68)" fill="black"/>
<rect x="119.648" y="1679.36" width="11.5782" height="10.8496" transform="rotate(-90 119.648 1679.36)" fill="black"/>
<rect x="119.648" y="1656.22" width="11.5782" height="10.8496" transform="rotate(-90 119.648 1656.22)" fill="black"/>
<rect x="119.648" y="1702.52" width="11.5782" height="10.8496" transform="rotate(-90 119.648 1702.52)" fill="black"/>
<rect x="97.9531" y="1656.22" width="11.5782" height="10.8496" transform="rotate(-90 97.9531 1656.22)" fill="black"/>
<rect x="97.9531" y="1702.52" width="11.5782" height="10.8496" transform="rotate(-90 97.9531 1702.52)" fill="black"/>
<rect x="54.5547" y="1656.22" width="11.5782" height="10.8496" transform="rotate(-90 54.5547 1656.22)" fill="black"/>
<rect x="54.5547" y="1702.52" width="11.5782" height="10.8496" transform="rotate(-90 54.5547 1702.52)" fill="black"/>
<rect x="11.1562" y="1656.22" width="11.5782" height="10.8496" transform="rotate(-90 11.1562 1656.22)" fill="black"/>
<rect x="11.1562" y="1702.52" width="11.5782" height="10.8496" transform="rotate(-90 11.1562 1702.52)" fill="black"/>
<rect x="32.8516" y="1818.31" width="11.5782" height="10.8496" transform="rotate(-90 32.8516 1818.31)" fill="black"/>
<rect x="32.8516" y="1771.99" width="11.5782" height="10.8496" transform="rotate(-90 32.8516 1771.99)" fill="black"/>
<rect x="32.8516" y="1748.85" width="11.5782" height="10.8496" transform="rotate(-90 32.8516 1748.85)" fill="black"/>
<rect x="32.8516" y="1795.15" width="11.5782" height="10.8496" transform="rotate(-90 32.8516 1795.15)" fill="black"/>
<rect x="76.25" y="1818.31" width="11.5782" height="10.8496" transform="rotate(-90 76.25 1818.31)" fill="black"/>
<rect x="76.25" y="1771.99" width="11.5782" height="10.8496" transform="rotate(-90 76.25 1771.99)" fill="black"/>
<rect x="76.25" y="1748.85" width="11.5782" height="10.8496" transform="rotate(-90 76.25 1748.85)" fill="black"/>
<rect x="119.648" y="1818.31" width="11.5782" height="10.8496" transform="rotate(-90 119.648 1818.31)" fill="black"/>
<rect x="119.648" y="1771.99" width="11.5782" height="10.8496" transform="rotate(-90 119.648 1771.99)" fill="black"/>
<rect x="119.648" y="1748.85" width="11.5782" height="10.8496" transform="rotate(-90 119.648 1748.85)" fill="black"/>
<rect x="119.648" y="1795.15" width="11.5782" height="10.8496" transform="rotate(-90 119.648 1795.15)" fill="black"/>
<rect x="97.9531" y="1748.85" width="11.5782" height="10.8496" transform="rotate(-90 97.9531 1748.85)" fill="black"/>
<rect x="97.9531" y="1795.15" width="11.5782" height="10.8496" transform="rotate(-90 97.9531 1795.15)" fill="black"/>
<rect x="54.5547" y="1748.85" width="11.5782" height="10.8496" transform="rotate(-90 54.5547 1748.85)" fill="black"/>
<rect x="54.5547" y="1795.15" width="11.5782" height="10.8496" transform="rotate(-90 54.5547 1795.15)" fill="black"/>
<rect x="11.1562" y="1748.85" width="11.5782" height="10.8496" transform="rotate(-90 11.1562 1748.85)" fill="black"/>
<rect x="11.1562" y="1795.15" width="11.5782" height="10.8496" transform="rotate(-90 11.1562 1795.15)" fill="black"/>
<rect x="32.8516" y="1633.06" width="11.5782" height="10.8496" transform="rotate(-90 32.8516 1633.06)" fill="black"/>
<rect x="32.8516" y="1586.74" width="11.5782" height="10.8496" transform="rotate(-90 32.8516 1586.74)" fill="black"/>
<rect x="32.8516" y="1563.6" width="11.5782" height="10.8496" transform="rotate(-90 32.8516 1563.6)" fill="black"/>
<rect x="32.8516" y="1609.9" width="11.5782" height="10.8496" transform="rotate(-90 32.8516 1609.9)" fill="black"/>
<rect x="76.25" y="1633.06" width="11.5782" height="10.8496" transform="rotate(-90 76.25 1633.06)" fill="black"/>
<rect x="76.25" y="1586.74" width="11.5782" height="10.8496" transform="rotate(-90 76.25 1586.74)" fill="black"/>
<rect x="76.25" y="1563.6" width="11.5782" height="10.8496" transform="rotate(-90 76.25 1563.6)" fill="black"/>
<rect x="119.648" y="1633.06" width="11.5782" height="10.8496" transform="rotate(-90 119.648 1633.06)" fill="black"/>
<rect x="119.648" y="1586.74" width="11.5782" height="10.8496" transform="rotate(-90 119.648 1586.74)" fill="black"/>
<rect x="119.648" y="1563.6" width="11.5782" height="10.8496" transform="rotate(-90 119.648 1563.6)" fill="black"/>
<rect x="119.648" y="1609.9" width="11.5782" height="10.8496" transform="rotate(-90 119.648 1609.9)" fill="black"/>
<rect x="97.9531" y="1563.6" width="11.5782" height="10.8496" transform="rotate(-90 97.9531 1563.6)" fill="black"/>
<rect x="97.9531" y="1609.9" width="11.5782" height="10.8496" transform="rotate(-90 97.9531 1609.9)" fill="black"/>
<rect x="54.5547" y="1563.6" width="11.5782" height="10.8496" transform="rotate(-90 54.5547 1563.6)" fill="black"/>
<rect x="54.5547" y="1609.9" width="11.5782" height="10.8496" transform="rotate(-90 54.5547 1609.9)" fill="black"/>
<rect x="11.1562" y="1563.6" width="11.5782" height="10.8496" transform="rotate(-90 11.1562 1563.6)" fill="black"/>
<rect x="11.1562" y="1609.9" width="11.5782" height="10.8496" transform="rotate(-90 11.1562 1609.9)" fill="black"/>
<rect x="32.8516" y="2651.93" width="11.5782" height="10.8496" transform="rotate(-90 32.8516 2651.93)" fill="black"/>
<rect x="32.8516" y="2605.61" width="11.5782" height="10.8496" transform="rotate(-90 32.8516 2605.61)" fill="black"/>
<rect x="32.8516" y="2582.47" width="11.5782" height="10.8496" transform="rotate(-90 32.8516 2582.47)" fill="black"/>
<rect x="32.8516" y="2628.77" width="11.5782" height="10.8496" transform="rotate(-90 32.8516 2628.77)" fill="black"/>
<rect x="76.25" y="2651.93" width="11.5782" height="10.8496" transform="rotate(-90 76.25 2651.93)" fill="black"/>
<rect x="76.25" y="2605.61" width="11.5782" height="10.8496" transform="rotate(-90 76.25 2605.61)" fill="black"/>
<rect x="76.25" y="2582.47" width="11.5782" height="10.8496" transform="rotate(-90 76.25 2582.47)" fill="black"/>
<rect x="119.648" y="2651.93" width="11.5782" height="10.8496" transform="rotate(-90 119.648 2651.93)" fill="black"/>
<rect x="119.648" y="2605.61" width="11.5782" height="10.8496" transform="rotate(-90 119.648 2605.61)" fill="black"/>
<rect x="119.648" y="2582.47" width="11.5782" height="10.8496" transform="rotate(-90 119.648 2582.47)" fill="black"/>
<rect x="119.648" y="2628.77" width="11.5782" height="10.8496" transform="rotate(-90 119.648 2628.77)" fill="black"/>
<rect x="97.9531" y="2582.47" width="11.5782" height="10.8496" transform="rotate(-90 97.9531 2582.47)" fill="black"/>
<rect x="97.9531" y="2628.77" width="11.5782" height="10.8496" transform="rotate(-90 97.9531 2628.77)" fill="black"/>
<rect x="54.5547" y="2582.47" width="11.5782" height="10.8496" transform="rotate(-90 54.5547 2582.47)" fill="black"/>
<rect x="54.5547" y="2628.77" width="11.5782" height="10.8496" transform="rotate(-90 54.5547 2628.77)" fill="black"/>
<rect x="11.1562" y="2582.47" width="11.5782" height="10.8496" transform="rotate(-90 11.1562 2582.47)" fill="black"/>
<rect x="11.1562" y="2628.77" width="11.5782" height="10.8496" transform="rotate(-90 11.1562 2628.77)" fill="black"/>
<rect x="32.8516" y="2466.68" width="11.5782" height="10.8496" transform="rotate(-90 32.8516 2466.68)" fill="black"/>
<rect x="32.8516" y="2420.36" width="11.5782" height="10.8496" transform="rotate(-90 32.8516 2420.36)" fill="black"/>
<rect x="32.8516" y="2397.22" width="11.5782" height="10.8496" transform="rotate(-90 32.8516 2397.22)" fill="black"/>
<rect x="32.8516" y="2443.52" width="11.5782" height="10.8496" transform="rotate(-90 32.8516 2443.52)" fill="black"/>
<rect x="76.25" y="2466.68" width="11.5782" height="10.8496" transform="rotate(-90 76.25 2466.68)" fill="black"/>
<rect x="76.25" y="2420.36" width="11.5782" height="10.8496" transform="rotate(-90 76.25 2420.36)" fill="black"/>
<rect x="76.25" y="2397.22" width="11.5782" height="10.8496" transform="rotate(-90 76.25 2397.22)" fill="black"/>
<rect x="119.648" y="2466.68" width="11.5782" height="10.8496" transform="rotate(-90 119.648 2466.68)" fill="black"/>
<rect x="119.648" y="2420.36" width="11.5782" height="10.8496" transform="rotate(-90 119.648 2420.36)" fill="black"/>
<rect x="119.648" y="2397.22" width="11.5782" height="10.8496" transform="rotate(-90 119.648 2397.22)" fill="black"/>
<rect x="119.648" y="2443.52" width="11.5782" height="10.8496" transform="rotate(-90 119.648 2443.52)" fill="black"/>
<rect x="97.9531" y="2397.22" width="11.5782" height="10.8496" transform="rotate(-90 97.9531 2397.22)" fill="black"/>
<rect x="97.9531" y="2443.52" width="11.5782" height="10.8496" transform="rotate(-90 97.9531 2443.52)" fill="black"/>
<rect x="54.5547" y="2397.22" width="11.5782" height="10.8496" transform="rotate(-90 54.5547 2397.22)" fill="black"/>
<rect x="54.5547" y="2443.52" width="11.5782" height="10.8496" transform="rotate(-90 54.5547 2443.52)" fill="black"/>
<rect x="11.1562" y="2397.22" width="11.5782" height="10.8496" transform="rotate(-90 11.1562 2397.22)" fill="black"/>
<rect x="11.1562" y="2443.52" width="11.5782" height="10.8496" transform="rotate(-90 11.1562 2443.52)" fill="black"/>
<rect x="32.8516" y="2559.31" width="11.5782" height="10.8496" transform="rotate(-90 32.8516 2559.31)" fill="black"/>
<rect x="32.8516" y="2512.99" width="11.5782" height="10.8496" transform="rotate(-90 32.8516 2512.99)" fill="black"/>
<rect x="32.8516" y="2489.85" width="11.5782" height="10.8496" transform="rotate(-90 32.8516 2489.85)" fill="black"/>
<rect x="32.8516" y="2536.15" width="11.5782" height="10.8496" transform="rotate(-90 32.8516 2536.15)" fill="black"/>
<rect x="76.25" y="2559.31" width="11.5782" height="10.8496" transform="rotate(-90 76.25 2559.31)" fill="black"/>
<rect x="76.25" y="2512.99" width="11.5782" height="10.8496" transform="rotate(-90 76.25 2512.99)" fill="black"/>
<rect x="76.25" y="2489.85" width="11.5782" height="10.8496" transform="rotate(-90 76.25 2489.85)" fill="black"/>
<rect x="119.648" y="2559.31" width="11.5782" height="10.8496" transform="rotate(-90 119.648 2559.31)" fill="black"/>
<rect x="119.648" y="2512.99" width="11.5782" height="10.8496" transform="rotate(-90 119.648 2512.99)" fill="black"/>
<rect x="119.648" y="2489.85" width="11.5782" height="10.8496" transform="rotate(-90 119.648 2489.85)" fill="black"/>
<rect x="119.648" y="2536.15" width="11.5782" height="10.8496" transform="rotate(-90 119.648 2536.15)" fill="black"/>
<rect x="97.9531" y="2489.85" width="11.5782" height="10.8496" transform="rotate(-90 97.9531 2489.85)" fill="black"/>
<rect x="97.9531" y="2536.15" width="11.5782" height="10.8496" transform="rotate(-90 97.9531 2536.15)" fill="black"/>
<rect x="54.5547" y="2489.85" width="11.5782" height="10.8496" transform="rotate(-90 54.5547 2489.85)" fill="black"/>
<rect x="54.5547" y="2536.15" width="11.5782" height="10.8496" transform="rotate(-90 54.5547 2536.15)" fill="black"/>
<rect x="11.1562" y="2489.85" width="11.5782" height="10.8496" transform="rotate(-90 11.1562 2489.85)" fill="black"/>
<rect x="11.1562" y="2536.15" width="11.5782" height="10.8496" transform="rotate(-90 11.1562 2536.15)" fill="black"/>
<rect x="32.8516" y="2374.06" width="11.5782" height="10.8496" transform="rotate(-90 32.8516 2374.06)" fill="black"/>
<rect x="32.8516" y="2327.74" width="11.5782" height="10.8496" transform="rotate(-90 32.8516 2327.74)" fill="black"/>
<rect x="32.8516" y="2304.6" width="11.5782" height="10.8496" transform="rotate(-90 32.8516 2304.6)" fill="black"/>
<rect x="32.8516" y="2350.9" width="11.5782" height="10.8496" transform="rotate(-90 32.8516 2350.9)" fill="black"/>
<rect x="76.25" y="2374.06" width="11.5782" height="10.8496" transform="rotate(-90 76.25 2374.06)" fill="black"/>
<rect x="76.25" y="2327.74" width="11.5782" height="10.8496" transform="rotate(-90 76.25 2327.74)" fill="black"/>
<rect x="76.25" y="2304.6" width="11.5782" height="10.8496" transform="rotate(-90 76.25 2304.6)" fill="black"/>
<rect x="119.648" y="2374.06" width="11.5782" height="10.8496" transform="rotate(-90 119.648 2374.06)" fill="black"/>
<rect x="119.648" y="2327.74" width="11.5782" height="10.8496" transform="rotate(-90 119.648 2327.74)" fill="black"/>
<rect x="119.648" y="2304.6" width="11.5782" height="10.8496" transform="rotate(-90 119.648 2304.6)" fill="black"/>
<rect x="119.648" y="2350.9" width="11.5782" height="10.8496" transform="rotate(-90 119.648 2350.9)" fill="black"/>
<rect x="97.9531" y="2304.6" width="11.5782" height="10.8496" transform="rotate(-90 97.9531 2304.6)" fill="black"/>
<rect x="97.9531" y="2350.9" width="11.5782" height="10.8496" transform="rotate(-90 97.9531 2350.9)" fill="black"/>
<rect x="54.5547" y="2304.6" width="11.5782" height="10.8496" transform="rotate(-90 54.5547 2304.6)" fill="black"/>
<rect x="54.5547" y="2350.9" width="11.5782" height="10.8496" transform="rotate(-90 54.5547 2350.9)" fill="black"/>
<rect x="11.1562" y="2304.6" width="11.5782" height="10.8496" transform="rotate(-90 11.1562 2304.6)" fill="black"/>
<rect x="11.1562" y="2350.9" width="11.5782" height="10.8496" transform="rotate(-90 11.1562 2350.9)" fill="black"/>
<rect x="32.8516" y="3022.43" width="11.5782" height="10.8496" transform="rotate(-90 32.8516 3022.43)" fill="black"/>
<rect x="32.8516" y="2976.11" width="11.5782" height="10.8496" transform="rotate(-90 32.8516 2976.11)" fill="black"/>
<rect x="32.8516" y="2952.96" width="11.5782" height="10.8496" transform="rotate(-90 32.8516 2952.96)" fill="black"/>
<rect x="32.8516" y="2999.27" width="11.5782" height="10.8496" transform="rotate(-90 32.8516 2999.27)" fill="black"/>
<rect x="76.25" y="3022.43" width="11.5782" height="10.8496" transform="rotate(-90 76.25 3022.43)" fill="black"/>
<rect x="76.25" y="2976.11" width="11.5782" height="10.8496" transform="rotate(-90 76.25 2976.11)" fill="black"/>
<rect x="76.25" y="2952.96" width="11.5782" height="10.8496" transform="rotate(-90 76.25 2952.96)" fill="black"/>
<rect x="119.648" y="3022.43" width="11.5782" height="10.8496" transform="rotate(-90 119.648 3022.43)" fill="black"/>
<rect x="119.648" y="2976.11" width="11.5782" height="10.8496" transform="rotate(-90 119.648 2976.11)" fill="black"/>
<rect x="119.648" y="2952.96" width="11.5782" height="10.8496" transform="rotate(-90 119.648 2952.96)" fill="black"/>
<rect x="119.648" y="2999.27" width="11.5782" height="10.8496" transform="rotate(-90 119.648 2999.27)" fill="black"/>
<rect x="97.9531" y="2952.96" width="11.5782" height="10.8496" transform="rotate(-90 97.9531 2952.96)" fill="black"/>
<rect x="97.9531" y="2999.27" width="11.5782" height="10.8496" transform="rotate(-90 97.9531 2999.27)" fill="black"/>
<rect x="54.5547" y="2952.96" width="11.5782" height="10.8496" transform="rotate(-90 54.5547 2952.96)" fill="black"/>
<rect x="54.5547" y="2999.27" width="11.5782" height="10.8496" transform="rotate(-90 54.5547 2999.27)" fill="black"/>
<rect x="11.1562" y="2952.96" width="11.5782" height="10.8496" transform="rotate(-90 11.1562 2952.96)" fill="black"/>
<rect x="11.1562" y="2999.27" width="11.5782" height="10.8496" transform="rotate(-90 11.1562 2999.27)" fill="black"/>
<rect x="32.8516" y="2837.18" width="11.5782" height="10.8496" transform="rotate(-90 32.8516 2837.18)" fill="black"/>
<rect x="32.8516" y="2790.86" width="11.5782" height="10.8496" transform="rotate(-90 32.8516 2790.86)" fill="black"/>
<rect x="32.8516" y="2767.72" width="11.5782" height="10.8496" transform="rotate(-90 32.8516 2767.72)" fill="black"/>
<rect x="32.8516" y="2814.02" width="11.5782" height="10.8496" transform="rotate(-90 32.8516 2814.02)" fill="black"/>
<rect x="76.25" y="2837.18" width="11.5782" height="10.8496" transform="rotate(-90 76.25 2837.18)" fill="black"/>
<rect x="76.25" y="2790.86" width="11.5782" height="10.8496" transform="rotate(-90 76.25 2790.86)" fill="black"/>
<rect x="76.25" y="2767.72" width="11.5782" height="10.8496" transform="rotate(-90 76.25 2767.72)" fill="black"/>
<rect x="119.648" y="2837.18" width="11.5782" height="10.8496" transform="rotate(-90 119.648 2837.18)" fill="black"/>
<rect x="119.648" y="2790.86" width="11.5782" height="10.8496" transform="rotate(-90 119.648 2790.86)" fill="black"/>
<rect x="119.648" y="2767.72" width="11.5782" height="10.8496" transform="rotate(-90 119.648 2767.72)" fill="black"/>
<rect x="119.648" y="2814.02" width="11.5782" height="10.8496" transform="rotate(-90 119.648 2814.02)" fill="black"/>
<rect x="97.9531" y="2767.72" width="11.5782" height="10.8496" transform="rotate(-90 97.9531 2767.72)" fill="black"/>
<rect x="97.9531" y="2814.02" width="11.5782" height="10.8496" transform="rotate(-90 97.9531 2814.02)" fill="black"/>
<rect x="54.5547" y="2767.72" width="11.5782" height="10.8496" transform="rotate(-90 54.5547 2767.72)" fill="black"/>
<rect x="54.5547" y="2814.02" width="11.5782" height="10.8496" transform="rotate(-90 54.5547 2814.02)" fill="black"/>
<rect x="11.1562" y="2767.72" width="11.5782" height="10.8496" transform="rotate(-90 11.1562 2767.72)" fill="black"/>
<rect x="11.1562" y="2814.02" width="11.5782" height="10.8496" transform="rotate(-90 11.1562 2814.02)" fill="black"/>
<rect x="32.8516" y="2929.8" width="11.5782" height="10.8496" transform="rotate(-90 32.8516 2929.8)" fill="black"/>
<rect x="32.8516" y="2883.48" width="11.5782" height="10.8496" transform="rotate(-90 32.8516 2883.48)" fill="black"/>
<rect x="32.8516" y="2860.34" width="11.5782" height="10.8496" transform="rotate(-90 32.8516 2860.34)" fill="black"/>
<rect x="32.8516" y="2906.64" width="11.5782" height="10.8496" transform="rotate(-90 32.8516 2906.64)" fill="black"/>
<rect x="76.25" y="2929.8" width="11.5782" height="10.8496" transform="rotate(-90 76.25 2929.8)" fill="black"/>
<rect x="76.25" y="2883.48" width="11.5782" height="10.8496" transform="rotate(-90 76.25 2883.48)" fill="black"/>
<rect x="76.25" y="2860.34" width="11.5782" height="10.8496" transform="rotate(-90 76.25 2860.34)" fill="black"/>
<rect x="119.648" y="2929.8" width="11.5782" height="10.8496" transform="rotate(-90 119.648 2929.8)" fill="black"/>
<rect x="119.648" y="2883.48" width="11.5782" height="10.8496" transform="rotate(-90 119.648 2883.48)" fill="black"/>
<rect x="119.648" y="2860.34" width="11.5782" height="10.8496" transform="rotate(-90 119.648 2860.34)" fill="black"/>
<rect x="119.648" y="2906.64" width="11.5782" height="10.8496" transform="rotate(-90 119.648 2906.64)" fill="black"/>
<rect x="97.9531" y="2860.34" width="11.5782" height="10.8496" transform="rotate(-90 97.9531 2860.34)" fill="black"/>
<rect x="97.9531" y="2906.64" width="11.5782" height="10.8496" transform="rotate(-90 97.9531 2906.64)" fill="black"/>
<rect x="54.5547" y="2860.34" width="11.5782" height="10.8496" transform="rotate(-90 54.5547 2860.34)" fill="black"/>
<rect x="54.5547" y="2906.64" width="11.5782" height="10.8496" transform="rotate(-90 54.5547 2906.64)" fill="black"/>
<rect x="11.1562" y="2860.34" width="11.5782" height="10.8496" transform="rotate(-90 11.1562 2860.34)" fill="black"/>
<rect x="11.1562" y="2906.64" width="11.5782" height="10.8496" transform="rotate(-90 11.1562 2906.64)" fill="black"/>
<rect x="32.8516" y="2744.55" width="11.5782" height="10.8496" transform="rotate(-90 32.8516 2744.55)" fill="black"/>
<rect x="32.8516" y="2698.23" width="11.5782" height="10.8496" transform="rotate(-90 32.8516 2698.23)" fill="black"/>
<rect x="32.8516" y="2675.09" width="11.5782" height="10.8496" transform="rotate(-90 32.8516 2675.09)" fill="black"/>
<rect x="32.8516" y="2721.39" width="11.5782" height="10.8496" transform="rotate(-90 32.8516 2721.39)" fill="black"/>
<rect x="76.25" y="2744.55" width="11.5782" height="10.8496" transform="rotate(-90 76.25 2744.55)" fill="black"/>
<rect x="76.25" y="2698.23" width="11.5782" height="10.8496" transform="rotate(-90 76.25 2698.23)" fill="black"/>
<rect x="76.25" y="2675.09" width="11.5782" height="10.8496" transform="rotate(-90 76.25 2675.09)" fill="black"/>
<rect x="119.648" y="2744.55" width="11.5782" height="10.8496" transform="rotate(-90 119.648 2744.55)" fill="black"/>
<rect x="119.648" y="2698.23" width="11.5782" height="10.8496" transform="rotate(-90 119.648 2698.23)" fill="black"/>
<rect x="119.648" y="2675.09" width="11.5782" height="10.8496" transform="rotate(-90 119.648 2675.09)" fill="black"/>
<rect x="119.648" y="2721.39" width="11.5782" height="10.8496" transform="rotate(-90 119.648 2721.39)" fill="black"/>
<rect x="97.9531" y="2675.09" width="11.5782" height="10.8496" transform="rotate(-90 97.9531 2675.09)" fill="black"/>
<rect x="97.9531" y="2721.39" width="11.5782" height="10.8496" transform="rotate(-90 97.9531 2721.39)" fill="black"/>
<rect x="54.5547" y="2675.09" width="11.5782" height="10.8496" transform="rotate(-90 54.5547 2675.09)" fill="black"/>
<rect x="54.5547" y="2721.39" width="11.5782" height="10.8496" transform="rotate(-90 54.5547 2721.39)" fill="black"/>
<rect x="11.1562" y="2675.09" width="11.5782" height="10.8496" transform="rotate(-90 11.1562 2675.09)" fill="black"/>
<rect x="11.1562" y="2721.39" width="11.5782" height="10.8496" transform="rotate(-90 11.1562 2721.39)" fill="black"/>
<rect x="32.8516" y="678.797" width="11.5782" height="10.8496" transform="rotate(-90 32.8516 678.797)" fill="black"/>
<rect x="32.8516" y="632.475" width="11.5782" height="10.8496" transform="rotate(-90 32.8516 632.475)" fill="black"/>
<rect x="32.8516" y="609.334" width="11.5782" height="10.8496" transform="rotate(-90 32.8516 609.334)" fill="black"/>
<rect x="32.8516" y="655.635" width="11.5782" height="10.8496" transform="rotate(-90 32.8516 655.635)" fill="black"/>
<rect x="76.25" y="678.797" width="11.5782" height="10.8496" transform="rotate(-90 76.25 678.797)" fill="black"/>
<rect x="76.25" y="632.475" width="11.5782" height="10.8496" transform="rotate(-90 76.25 632.475)" fill="black"/>
<rect x="76.25" y="609.334" width="11.5782" height="10.8496" transform="rotate(-90 76.25 609.334)" fill="black"/>
<rect x="119.648" y="678.797" width="11.5782" height="10.8496" transform="rotate(-90 119.648 678.797)" fill="black"/>
<rect x="119.648" y="632.475" width="11.5782" height="10.8496" transform="rotate(-90 119.648 632.475)" fill="black"/>
<rect x="119.648" y="609.334" width="11.5782" height="10.8496" transform="rotate(-90 119.648 609.334)" fill="black"/>
<rect x="119.648" y="655.635" width="11.5782" height="10.8496" transform="rotate(-90 119.648 655.635)" fill="black"/>
<rect x="97.9531" y="609.334" width="11.5782" height="10.8496" transform="rotate(-90 97.9531 609.334)" fill="black"/>
<rect x="97.9531" y="655.635" width="11.5782" height="10.8496" transform="rotate(-90 97.9531 655.635)" fill="black"/>
<rect x="54.5547" y="609.334" width="11.5782" height="10.8496" transform="rotate(-90 54.5547 609.334)" fill="black"/>
<rect x="54.5547" y="655.635" width="11.5782" height="10.8496" transform="rotate(-90 54.5547 655.635)" fill="black"/>
<rect x="11.1562" y="609.334" width="11.5782" height="10.8496" transform="rotate(-90 11.1562 609.334)" fill="black"/>
<rect x="11.1562" y="655.635" width="11.5782" height="10.8496" transform="rotate(-90 11.1562 655.635)" fill="black"/>
<rect x="32.8516" y="493.549" width="11.5782" height="10.8496" transform="rotate(-90 32.8516 493.549)" fill="black"/>
<rect x="32.8516" y="447.227" width="11.5782" height="10.8496" transform="rotate(-90 32.8516 447.227)" fill="black"/>
<rect x="32.8516" y="424.086" width="11.5782" height="10.8496" transform="rotate(-90 32.8516 424.086)" fill="black"/>
<rect x="32.8516" y="470.387" width="11.5782" height="10.8496" transform="rotate(-90 32.8516 470.387)" fill="black"/>
<rect x="76.25" y="493.549" width="11.5782" height="10.8496" transform="rotate(-90 76.25 493.549)" fill="black"/>
<rect x="76.25" y="447.227" width="11.5782" height="10.8496" transform="rotate(-90 76.25 447.227)" fill="black"/>
<rect x="76.25" y="424.086" width="11.5782" height="10.8496" transform="rotate(-90 76.25 424.086)" fill="black"/>
<rect x="119.648" y="493.549" width="11.5782" height="10.8496" transform="rotate(-90 119.648 493.549)" fill="black"/>
<rect x="119.648" y="447.227" width="11.5782" height="10.8496" transform="rotate(-90 119.648 447.227)" fill="black"/>
<rect x="119.648" y="424.086" width="11.5782" height="10.8496" transform="rotate(-90 119.648 424.086)" fill="black"/>
<rect x="119.648" y="470.387" width="11.5782" height="10.8496" transform="rotate(-90 119.648 470.387)" fill="black"/>
<rect x="97.9531" y="424.086" width="11.5782" height="10.8496" transform="rotate(-90 97.9531 424.086)" fill="black"/>
<rect x="97.9531" y="470.387" width="11.5782" height="10.8496" transform="rotate(-90 97.9531 470.387)" fill="black"/>
<rect x="54.5547" y="424.086" width="11.5782" height="10.8496" transform="rotate(-90 54.5547 424.086)" fill="black"/>
<rect x="54.5547" y="470.387" width="11.5782" height="10.8496" transform="rotate(-90 54.5547 470.387)" fill="black"/>
<rect x="11.1562" y="424.086" width="11.5782" height="10.8496" transform="rotate(-90 11.1562 424.086)" fill="black"/>
<rect x="11.1562" y="470.387" width="11.5782" height="10.8496" transform="rotate(-90 11.1562 470.387)" fill="black"/>
<rect x="32.8516" y="586.174" width="11.5782" height="10.8496" transform="rotate(-90 32.8516 586.174)" fill="black"/>
<rect x="32.8516" y="539.852" width="11.5782" height="10.8496" transform="rotate(-90 32.8516 539.852)" fill="black"/>
<rect x="32.8516" y="516.711" width="11.5782" height="10.8496" transform="rotate(-90 32.8516 516.711)" fill="black"/>
<rect x="32.8516" y="563.012" width="11.5782" height="10.8496" transform="rotate(-90 32.8516 563.012)" fill="black"/>
<rect x="76.25" y="586.174" width="11.5782" height="10.8496" transform="rotate(-90 76.25 586.174)" fill="black"/>
<rect x="76.25" y="539.852" width="11.5782" height="10.8496" transform="rotate(-90 76.25 539.852)" fill="black"/>
<rect x="76.25" y="516.711" width="11.5782" height="10.8496" transform="rotate(-90 76.25 516.711)" fill="black"/>
<rect x="119.648" y="586.174" width="11.5782" height="10.8496" transform="rotate(-90 119.648 586.174)" fill="black"/>
<rect x="119.648" y="539.852" width="11.5782" height="10.8496" transform="rotate(-90 119.648 539.852)" fill="black"/>
<rect x="119.648" y="516.711" width="11.5782" height="10.8496" transform="rotate(-90 119.648 516.711)" fill="black"/>
<rect x="119.648" y="563.012" width="11.5782" height="10.8496" transform="rotate(-90 119.648 563.012)" fill="black"/>
<rect x="97.9531" y="516.711" width="11.5782" height="10.8496" transform="rotate(-90 97.9531 516.711)" fill="black"/>
<rect x="97.9531" y="563.012" width="11.5782" height="10.8496" transform="rotate(-90 97.9531 563.012)" fill="black"/>
<rect x="54.5547" y="516.711" width="11.5782" height="10.8496" transform="rotate(-90 54.5547 516.711)" fill="black"/>
<rect x="54.5547" y="563.012" width="11.5782" height="10.8496" transform="rotate(-90 54.5547 563.012)" fill="black"/>
<rect x="11.1562" y="516.711" width="11.5782" height="10.8496" transform="rotate(-90 11.1562 516.711)" fill="black"/>
<rect x="11.1562" y="563.012" width="11.5782" height="10.8496" transform="rotate(-90 11.1562 563.012)" fill="black"/>
<rect x="32.8516" y="400.924" width="11.5782" height="10.8496" transform="rotate(-90 32.8516 400.924)" fill="black"/>
<rect x="32.8516" y="354.602" width="11.5782" height="10.8496" transform="rotate(-90 32.8516 354.602)" fill="black"/>
<rect x="32.8516" y="331.461" width="11.5782" height="10.8496" transform="rotate(-90 32.8516 331.461)" fill="black"/>
<rect x="32.8516" y="377.762" width="11.5782" height="10.8496" transform="rotate(-90 32.8516 377.762)" fill="black"/>
<rect x="76.25" y="400.924" width="11.5782" height="10.8496" transform="rotate(-90 76.25 400.924)" fill="black"/>
<rect x="76.25" y="354.602" width="11.5782" height="10.8496" transform="rotate(-90 76.25 354.602)" fill="black"/>
<rect x="76.25" y="331.461" width="11.5782" height="10.8496" transform="rotate(-90 76.25 331.461)" fill="black"/>
<rect x="119.648" y="400.924" width="11.5782" height="10.8496" transform="rotate(-90 119.648 400.924)" fill="black"/>
<rect x="119.648" y="354.602" width="11.5782" height="10.8496" transform="rotate(-90 119.648 354.602)" fill="black"/>
<rect x="119.648" y="331.461" width="11.5782" height="10.8496" transform="rotate(-90 119.648 331.461)" fill="black"/>
<rect x="119.648" y="377.762" width="11.5782" height="10.8496" transform="rotate(-90 119.648 377.762)" fill="black"/>
<rect x="97.9531" y="331.461" width="11.5782" height="10.8496" transform="rotate(-90 97.9531 331.461)" fill="black"/>
<rect x="97.9531" y="377.762" width="11.5782" height="10.8496" transform="rotate(-90 97.9531 377.762)" fill="black"/>
<rect x="54.5547" y="331.461" width="11.5782" height="10.8496" transform="rotate(-90 54.5547 331.461)" fill="black"/>
<rect x="54.5547" y="377.762" width="11.5782" height="10.8496" transform="rotate(-90 54.5547 377.762)" fill="black"/>
<rect x="11.1562" y="331.461" width="11.5782" height="10.8496" transform="rotate(-90 11.1562 331.461)" fill="black"/>
<rect x="11.1562" y="377.762" width="11.5782" height="10.8496" transform="rotate(-90 11.1562 377.762)" fill="black"/>
<rect x="32.8516" y="1415.69" width="11.5782" height="10.8496" transform="rotate(-90 32.8516 1415.69)" fill="black"/>
<rect x="32.8516" y="1369.37" width="11.5782" height="10.8496" transform="rotate(-90 32.8516 1369.37)" fill="black"/>
<rect x="32.8516" y="1346.23" width="11.5782" height="10.8496" transform="rotate(-90 32.8516 1346.23)" fill="black"/>
<rect x="32.8516" y="1392.53" width="11.5782" height="10.8496" transform="rotate(-90 32.8516 1392.53)" fill="black"/>
<rect x="76.25" y="1415.69" width="11.5782" height="10.8496" transform="rotate(-90 76.25 1415.69)" fill="black"/>
<rect x="76.25" y="1369.37" width="11.5782" height="10.8496" transform="rotate(-90 76.25 1369.37)" fill="black"/>
<rect x="76.25" y="1346.23" width="11.5782" height="10.8496" transform="rotate(-90 76.25 1346.23)" fill="black"/>
<rect x="119.648" y="1415.69" width="11.5782" height="10.8496" transform="rotate(-90 119.648 1415.69)" fill="black"/>
<rect x="119.648" y="1369.37" width="11.5782" height="10.8496" transform="rotate(-90 119.648 1369.37)" fill="black"/>
<rect x="119.648" y="1346.23" width="11.5782" height="10.8496" transform="rotate(-90 119.648 1346.23)" fill="black"/>
<rect x="119.648" y="1392.53" width="11.5782" height="10.8496" transform="rotate(-90 119.648 1392.53)" fill="black"/>
<rect x="97.9531" y="1346.23" width="11.5782" height="10.8496" transform="rotate(-90 97.9531 1346.23)" fill="black"/>
<rect x="97.9531" y="1392.53" width="11.5782" height="10.8496" transform="rotate(-90 97.9531 1392.53)" fill="black"/>
<rect x="54.5547" y="1346.23" width="11.5782" height="10.8496" transform="rotate(-90 54.5547 1346.23)" fill="black"/>
<rect x="54.5547" y="1392.53" width="11.5782" height="10.8496" transform="rotate(-90 54.5547 1392.53)" fill="black"/>
<rect x="11.1562" y="1346.23" width="11.5782" height="10.8496" transform="rotate(-90 11.1562 1346.23)" fill="black"/>
<rect x="11.1562" y="1392.53" width="11.5782" height="10.8496" transform="rotate(-90 11.1562 1392.53)" fill="black"/>
<rect x="32.8516" y="1230.45" width="11.5782" height="10.8496" transform="rotate(-90 32.8516 1230.45)" fill="black"/>
<rect x="32.8516" y="1184.12" width="11.5782" height="10.8496" transform="rotate(-90 32.8516 1184.12)" fill="black"/>
<rect x="32.8516" y="1160.98" width="11.5782" height="10.8496" transform="rotate(-90 32.8516 1160.98)" fill="black"/>
<rect x="32.8516" y="1207.28" width="11.5782" height="10.8496" transform="rotate(-90 32.8516 1207.28)" fill="black"/>
<rect x="76.25" y="1230.45" width="11.5782" height="10.8496" transform="rotate(-90 76.25 1230.45)" fill="black"/>
<rect x="76.25" y="1184.12" width="11.5782" height="10.8496" transform="rotate(-90 76.25 1184.12)" fill="black"/>
<rect x="76.25" y="1160.98" width="11.5782" height="10.8496" transform="rotate(-90 76.25 1160.98)" fill="black"/>
<rect x="119.648" y="1230.45" width="11.5782" height="10.8496" transform="rotate(-90 119.648 1230.45)" fill="black"/>
<rect x="119.648" y="1184.12" width="11.5782" height="10.8496" transform="rotate(-90 119.648 1184.12)" fill="black"/>
<rect x="119.648" y="1160.98" width="11.5782" height="10.8496" transform="rotate(-90 119.648 1160.98)" fill="black"/>
<rect x="119.648" y="1207.28" width="11.5782" height="10.8496" transform="rotate(-90 119.648 1207.28)" fill="black"/>
<rect x="97.9531" y="1160.98" width="11.5782" height="10.8496" transform="rotate(-90 97.9531 1160.98)" fill="black"/>
<rect x="97.9531" y="1207.28" width="11.5782" height="10.8496" transform="rotate(-90 97.9531 1207.28)" fill="black"/>
<rect x="54.5547" y="1160.98" width="11.5782" height="10.8496" transform="rotate(-90 54.5547 1160.98)" fill="black"/>
<rect x="54.5547" y="1207.28" width="11.5782" height="10.8496" transform="rotate(-90 54.5547 1207.28)" fill="black"/>
<rect x="11.1562" y="1160.98" width="11.5782" height="10.8496" transform="rotate(-90 11.1562 1160.98)" fill="black"/>
<rect x="11.1562" y="1207.28" width="11.5782" height="10.8496" transform="rotate(-90 11.1562 1207.28)" fill="black"/>
<rect x="32.8516" y="1323.07" width="11.5782" height="10.8496" transform="rotate(-90 32.8516 1323.07)" fill="black"/>
<rect x="32.8516" y="1276.75" width="11.5782" height="10.8496" transform="rotate(-90 32.8516 1276.75)" fill="black"/>
<rect x="32.8516" y="1253.61" width="11.5782" height="10.8496" transform="rotate(-90 32.8516 1253.61)" fill="black"/>
<rect x="32.8516" y="1299.91" width="11.5782" height="10.8496" transform="rotate(-90 32.8516 1299.91)" fill="black"/>
<rect x="76.25" y="1323.07" width="11.5782" height="10.8496" transform="rotate(-90 76.25 1323.07)" fill="black"/>
<rect x="76.25" y="1276.75" width="11.5782" height="10.8496" transform="rotate(-90 76.25 1276.75)" fill="black"/>
<rect x="76.25" y="1253.61" width="11.5782" height="10.8496" transform="rotate(-90 76.25 1253.61)" fill="black"/>
<rect x="119.648" y="1323.07" width="11.5782" height="10.8496" transform="rotate(-90 119.648 1323.07)" fill="black"/>
<rect x="119.648" y="1276.75" width="11.5782" height="10.8496" transform="rotate(-90 119.648 1276.75)" fill="black"/>
<rect x="119.648" y="1253.61" width="11.5782" height="10.8496" transform="rotate(-90 119.648 1253.61)" fill="black"/>
<rect x="119.648" y="1299.91" width="11.5782" height="10.8496" transform="rotate(-90 119.648 1299.91)" fill="black"/>
<rect x="97.9531" y="1253.61" width="11.5782" height="10.8496" transform="rotate(-90 97.9531 1253.61)" fill="black"/>
<rect x="97.9531" y="1299.91" width="11.5782" height="10.8496" transform="rotate(-90 97.9531 1299.91)" fill="black"/>
<rect x="54.5547" y="1253.61" width="11.5782" height="10.8496" transform="rotate(-90 54.5547 1253.61)" fill="black"/>
<rect x="54.5547" y="1299.91" width="11.5782" height="10.8496" transform="rotate(-90 54.5547 1299.91)" fill="black"/>
<rect x="11.1562" y="1253.61" width="11.5782" height="10.8496" transform="rotate(-90 11.1562 1253.61)" fill="black"/>
<rect x="11.1562" y="1299.91" width="11.5782" height="10.8496" transform="rotate(-90 11.1562 1299.91)" fill="black"/>
<rect x="32.8516" y="1137.82" width="11.5782" height="10.8496" transform="rotate(-90 32.8516 1137.82)" fill="black"/>
<rect x="32.8516" y="1091.5" width="11.5782" height="10.8496" transform="rotate(-90 32.8516 1091.5)" fill="black"/>
<rect x="32.8516" y="1068.36" width="11.5782" height="10.8496" transform="rotate(-90 32.8516 1068.36)" fill="black"/>
<rect x="32.8516" y="1114.66" width="11.5782" height="10.8496" transform="rotate(-90 32.8516 1114.66)" fill="black"/>
<rect x="76.25" y="1137.82" width="11.5782" height="10.8496" transform="rotate(-90 76.25 1137.82)" fill="black"/>
<rect x="76.25" y="1091.5" width="11.5782" height="10.8496" transform="rotate(-90 76.25 1091.5)" fill="black"/>
<rect x="76.25" y="1068.36" width="11.5782" height="10.8496" transform="rotate(-90 76.25 1068.36)" fill="black"/>
<rect x="119.648" y="1137.82" width="11.5782" height="10.8496" transform="rotate(-90 119.648 1137.82)" fill="black"/>
<rect x="119.648" y="1091.5" width="11.5782" height="10.8496" transform="rotate(-90 119.648 1091.5)" fill="black"/>
<rect x="119.648" y="1068.36" width="11.5782" height="10.8496" transform="rotate(-90 119.648 1068.36)" fill="black"/>
<rect x="119.648" y="1114.66" width="11.5782" height="10.8496" transform="rotate(-90 119.648 1114.66)" fill="black"/>
<rect x="97.9531" y="1068.36" width="11.5782" height="10.8496" transform="rotate(-90 97.9531 1068.36)" fill="black"/>
<rect x="97.9531" y="1114.66" width="11.5782" height="10.8496" transform="rotate(-90 97.9531 1114.66)" fill="black"/>
<rect x="54.5547" y="1068.36" width="11.5782" height="10.8496" transform="rotate(-90 54.5547 1068.36)" fill="black"/>
<rect x="54.5547" y="1114.66" width="11.5782" height="10.8496" transform="rotate(-90 54.5547 1114.66)" fill="black"/>
<rect x="11.1562" y="1068.36" width="11.5782" height="10.8496" transform="rotate(-90 11.1562 1068.36)" fill="black"/>
<rect x="11.1562" y="1114.66" width="11.5782" height="10.8496" transform="rotate(-90 11.1562 1114.66)" fill="black"/>
<rect x="32.8516" y="2281.43" width="11.5782" height="10.8496" transform="rotate(-90 32.8516 2281.43)" fill="black"/>
<rect x="32.8516" y="2235.11" width="11.5782" height="10.8496" transform="rotate(-90 32.8516 2235.11)" fill="black"/>
<rect x="32.8516" y="2211.96" width="11.5782" height="10.8496" transform="rotate(-90 32.8516 2211.96)" fill="black"/>
<rect x="32.8516" y="2258.27" width="11.5782" height="10.8496" transform="rotate(-90 32.8516 2258.27)" fill="black"/>
<rect x="76.25" y="2281.43" width="11.5782" height="10.8496" transform="rotate(-90 76.25 2281.43)" fill="black"/>
<rect x="76.25" y="2235.11" width="11.5782" height="10.8496" transform="rotate(-90 76.25 2235.11)" fill="black"/>
<rect x="76.25" y="2211.96" width="11.5782" height="10.8496" transform="rotate(-90 76.25 2211.96)" fill="black"/>
<rect x="119.648" y="2281.43" width="11.5782" height="10.8496" transform="rotate(-90 119.648 2281.43)" fill="black"/>
<rect x="119.648" y="2235.11" width="11.5782" height="10.8496" transform="rotate(-90 119.648 2235.11)" fill="black"/>
<rect x="119.648" y="2211.96" width="11.5782" height="10.8496" transform="rotate(-90 119.648 2211.96)" fill="black"/>
<rect x="119.648" y="2258.27" width="11.5782" height="10.8496" transform="rotate(-90 119.648 2258.27)" fill="black"/>
<rect x="97.9531" y="2211.96" width="11.5782" height="10.8496" transform="rotate(-90 97.9531 2211.96)" fill="black"/>
<rect x="97.9531" y="2258.27" width="11.5782" height="10.8496" transform="rotate(-90 97.9531 2258.27)" fill="black"/>
<rect x="54.5547" y="2211.96" width="11.5782" height="10.8496" transform="rotate(-90 54.5547 2211.96)" fill="black"/>
<rect x="54.5547" y="2258.27" width="11.5782" height="10.8496" transform="rotate(-90 54.5547 2258.27)" fill="black"/>
<rect x="11.1562" y="2211.96" width="11.5782" height="10.8496" transform="rotate(-90 11.1562 2211.96)" fill="black"/>
<rect x="11.1562" y="2258.27" width="11.5782" height="10.8496" transform="rotate(-90 11.1562 2258.27)" fill="black"/>
<rect x="32.8516" y="2096.18" width="11.5782" height="10.8496" transform="rotate(-90 32.8516 2096.18)" fill="black"/>
<rect x="32.8516" y="2049.86" width="11.5782" height="10.8496" transform="rotate(-90 32.8516 2049.86)" fill="black"/>
<rect x="32.8516" y="2026.72" width="11.5782" height="10.8496" transform="rotate(-90 32.8516 2026.72)" fill="black"/>
<rect x="32.8516" y="2073.02" width="11.5782" height="10.8496" transform="rotate(-90 32.8516 2073.02)" fill="black"/>
<rect x="76.25" y="2096.18" width="11.5782" height="10.8496" transform="rotate(-90 76.25 2096.18)" fill="black"/>
<rect x="76.25" y="2049.86" width="11.5782" height="10.8496" transform="rotate(-90 76.25 2049.86)" fill="black"/>
<rect x="76.25" y="2026.72" width="11.5782" height="10.8496" transform="rotate(-90 76.25 2026.72)" fill="black"/>
<rect x="119.648" y="2096.18" width="11.5782" height="10.8496" transform="rotate(-90 119.648 2096.18)" fill="black"/>
<rect x="119.648" y="2049.86" width="11.5782" height="10.8496" transform="rotate(-90 119.648 2049.86)" fill="black"/>
<rect x="119.648" y="2026.72" width="11.5782" height="10.8496" transform="rotate(-90 119.648 2026.72)" fill="black"/>
<rect x="119.648" y="2073.02" width="11.5782" height="10.8496" transform="rotate(-90 119.648 2073.02)" fill="black"/>
<rect x="97.9531" y="2026.72" width="11.5782" height="10.8496" transform="rotate(-90 97.9531 2026.72)" fill="black"/>
<rect x="97.9531" y="2073.02" width="11.5782" height="10.8496" transform="rotate(-90 97.9531 2073.02)" fill="black"/>
<rect x="54.5547" y="2026.72" width="11.5782" height="10.8496" transform="rotate(-90 54.5547 2026.72)" fill="black"/>
<rect x="54.5547" y="2073.02" width="11.5782" height="10.8496" transform="rotate(-90 54.5547 2073.02)" fill="black"/>
<rect x="11.1562" y="2026.72" width="11.5782" height="10.8496" transform="rotate(-90 11.1562 2026.72)" fill="black"/>
<rect x="11.1562" y="2073.02" width="11.5782" height="10.8496" transform="rotate(-90 11.1562 2073.02)" fill="black"/>
<rect x="32.8516" y="2188.8" width="11.5782" height="10.8496" transform="rotate(-90 32.8516 2188.8)" fill="black"/>
<rect x="32.8516" y="2142.48" width="11.5782" height="10.8496" transform="rotate(-90 32.8516 2142.48)" fill="black"/>
<rect x="32.8516" y="2119.34" width="11.5782" height="10.8496" transform="rotate(-90 32.8516 2119.34)" fill="black"/>
<rect x="32.8516" y="2165.64" width="11.5782" height="10.8496" transform="rotate(-90 32.8516 2165.64)" fill="black"/>
<rect x="76.25" y="2188.8" width="11.5782" height="10.8496" transform="rotate(-90 76.25 2188.8)" fill="black"/>
<rect x="76.25" y="2142.48" width="11.5782" height="10.8496" transform="rotate(-90 76.25 2142.48)" fill="black"/>
<rect x="76.25" y="2119.34" width="11.5782" height="10.8496" transform="rotate(-90 76.25 2119.34)" fill="black"/>
<rect x="119.648" y="2188.8" width="11.5782" height="10.8496" transform="rotate(-90 119.648 2188.8)" fill="black"/>
<rect x="119.648" y="2142.48" width="11.5782" height="10.8496" transform="rotate(-90 119.648 2142.48)" fill="black"/>
<rect x="119.648" y="2119.34" width="11.5782" height="10.8496" transform="rotate(-90 119.648 2119.34)" fill="black"/>
<rect x="119.648" y="2165.64" width="11.5782" height="10.8496" transform="rotate(-90 119.648 2165.64)" fill="black"/>
<rect x="97.9531" y="2119.34" width="11.5782" height="10.8496" transform="rotate(-90 97.9531 2119.34)" fill="black"/>
<rect x="97.9531" y="2165.64" width="11.5782" height="10.8496" transform="rotate(-90 97.9531 2165.64)" fill="black"/>
<rect x="54.5547" y="2119.34" width="11.5782" height="10.8496" transform="rotate(-90 54.5547 2119.34)" fill="black"/>
<rect x="54.5547" y="2165.64" width="11.5782" height="10.8496" transform="rotate(-90 54.5547 2165.64)" fill="black"/>
<rect x="11.1562" y="2119.34" width="11.5782" height="10.8496" transform="rotate(-90 11.1562 2119.34)" fill="black"/>
<rect x="11.1562" y="2165.64" width="11.5782" height="10.8496" transform="rotate(-90 11.1562 2165.64)" fill="black"/>
<rect x="32.8516" y="2003.55" width="11.5782" height="10.8496" transform="rotate(-90 32.8516 2003.55)" fill="black"/>
<rect x="32.8516" y="1957.23" width="11.5782" height="10.8496" transform="rotate(-90 32.8516 1957.23)" fill="black"/>
<rect x="32.8516" y="1934.09" width="11.5782" height="10.8496" transform="rotate(-90 32.8516 1934.09)" fill="black"/>
<rect x="32.8516" y="1980.39" width="11.5782" height="10.8496" transform="rotate(-90 32.8516 1980.39)" fill="black"/>
<rect x="76.25" y="2003.55" width="11.5782" height="10.8496" transform="rotate(-90 76.25 2003.55)" fill="black"/>
<rect x="76.25" y="1957.23" width="11.5782" height="10.8496" transform="rotate(-90 76.25 1957.23)" fill="black"/>
<rect x="76.25" y="1934.09" width="11.5782" height="10.8496" transform="rotate(-90 76.25 1934.09)" fill="black"/>
<rect x="119.648" y="2003.55" width="11.5782" height="10.8496" transform="rotate(-90 119.648 2003.55)" fill="black"/>
<rect x="119.648" y="1957.23" width="11.5782" height="10.8496" transform="rotate(-90 119.648 1957.23)" fill="black"/>
<rect x="119.648" y="1934.09" width="11.5782" height="10.8496" transform="rotate(-90 119.648 1934.09)" fill="black"/>
<rect x="119.648" y="1980.39" width="11.5782" height="10.8496" transform="rotate(-90 119.648 1980.39)" fill="black"/>
<rect x="97.9531" y="1934.09" width="11.5782" height="10.8496" transform="rotate(-90 97.9531 1934.09)" fill="black"/>
<rect x="97.9531" y="1980.39" width="11.5782" height="10.8496" transform="rotate(-90 97.9531 1980.39)" fill="black"/>
<rect x="54.5547" y="1934.09" width="11.5782" height="10.8496" transform="rotate(-90 54.5547 1934.09)" fill="black"/>
<rect x="54.5547" y="1980.39" width="11.5782" height="10.8496" transform="rotate(-90 54.5547 1980.39)" fill="black"/>
<rect x="11.1562" y="1934.09" width="11.5782" height="10.8496" transform="rotate(-90 11.1562 1934.09)" fill="black"/>
<rect x="11.1562" y="1980.39" width="11.5782" height="10.8496" transform="rotate(-90 11.1562 1980.39)" fill="black"/>
<rect x="5.74511" y="2697.42" width="1674.58" height="130.195" transform="rotate(-90 5.74511 2697.42)" fill="#17FF3D" stroke="black" stroke-width="10.8496"/>
<rect x="5.75293" y="3470.08" width="216.992" height="130.195" transform="rotate(-90 5.75293 3470.08)" fill="white" stroke="black" stroke-width="10.8496"/>
<path fill-rule="evenodd" clip-rule="evenodd" d="M20.5078 3377.86V3388.71H30.5946V3399.56H40.5965V3410.41H50.6833V3421.26H60.77V3432.11H70.8446V3421.26H80.9072V3410.41H90.9697V3399.56H101.117V3388.71H111.179V3377.86L101.117 3377.86H90.9697L80.9072 3377.86V3301.91H50.6833L50.6833 3377.86L40.5965 3377.86H30.5946L20.5078 3377.86Z" fill="black"/>
<rect x="5.75293" y="222.933" width="216.992" height="130.195" transform="rotate(-90 5.75293 222.933)" fill="white" stroke="black" stroke-width="10.8496"/>
<path fill-rule="evenodd" clip-rule="evenodd" d="M20.5078 98.1582V87.3086H30.5946V76.459H40.5965V65.6094H50.6833V54.7598H60.77V43.9102H70.8446V54.7598H80.9072V65.6094H90.9697V76.459H101.117V87.3086H111.179V98.1582L101.117 98.1582H90.9697L80.9072 98.1582V174.105H50.6833L50.6833 98.1582L40.5965 98.1582H30.5946L20.5078 98.1582Z" fill="black"/>
<rect x="5.75293" y="5.93652" width="130.531" height="3462.61" stroke="black" stroke-width="10.8496"/>
</svg>
