<svg width="855" height="510" viewBox="0 0 855 510" fill="none" xmlns="http://www.w3.org/2000/svg">
<rect x="1.70719" y="1.70719" width="851.586" height="505.586" fill="black"/>
<rect width="765.033" height="54.7483" transform="translate(86.9666 3)" fill="#454545"/>
<rect width="83.967" height="54.7483" transform="translate(3 3)" fill="white"/>
<rect x="4.29281" y="4.29281" width="81.3814" height="52.1627" stroke="black" stroke-width="2.58562"/>
<path fill-rule="evenodd" clip-rule="evenodd" d="M16.9944 13.2656H72.9724V20.1092H16.9944V13.2656ZM16.9944 26.9513H72.9724V33.7948H16.9944V26.9513ZM72.9724 40.6369H16.9944V47.4804H72.9724V40.6369Z" fill="black"/>
<rect width="849" height="44.483" transform="translate(3 461.518)" fill="white"/>
<rect x="57.2981" y="471.785" width="2.58562" height="3.42177" fill="black"/>
<rect x="67.6406" y="471.785" width="2.58562" height="3.42177" fill="black"/>
<rect x="72.8118" y="471.785" width="2.58562" height="3.42177" fill="black"/>
<rect x="62.4695" y="471.785" width="2.58562" height="3.42177" fill="black"/>
<rect x="57.2981" y="485.471" width="2.58562" height="3.42177" fill="black"/>
<rect x="67.6406" y="485.471" width="2.58562" height="3.42177" fill="black"/>
<rect x="72.8118" y="485.471" width="2.58562" height="3.42177" fill="black"/>
<rect x="57.2981" y="499.16" width="2.58562" height="3.42177" fill="black"/>
<rect x="67.6406" y="499.16" width="2.58562" height="3.42177" fill="black"/>
<rect x="72.8118" y="499.16" width="2.58562" height="3.42177" fill="black"/>
<rect x="62.4695" y="499.16" width="2.58562" height="3.42177" fill="black"/>
<rect x="72.8118" y="492.318" width="2.58562" height="3.42177" fill="black"/>
<rect x="62.4695" y="492.318" width="2.58562" height="3.42177" fill="black"/>
<rect x="72.8118" y="478.627" width="2.58562" height="3.42177" fill="black"/>
<rect x="62.4695" y="478.627" width="2.58562" height="3.42177" fill="black"/>
<rect x="72.8118" y="464.941" width="2.58562" height="3.42177" fill="black"/>
<rect x="62.4695" y="464.941" width="2.58562" height="3.42177" fill="black"/>
<rect x="98.6682" y="471.785" width="2.58562" height="3.42177" fill="black"/>
<rect x="109.011" y="471.785" width="2.58562" height="3.42177" fill="black"/>
<rect x="114.182" y="471.785" width="2.58562" height="3.42177" fill="black"/>
<rect x="103.839" y="471.785" width="2.58562" height="3.42177" fill="black"/>
<rect x="98.6682" y="485.471" width="2.58562" height="3.42177" fill="black"/>
<rect x="109.011" y="485.471" width="2.58562" height="3.42177" fill="black"/>
<rect x="114.182" y="485.471" width="2.58562" height="3.42177" fill="black"/>
<rect x="98.6682" y="499.16" width="2.58562" height="3.42177" fill="black"/>
<rect x="109.011" y="499.16" width="2.58562" height="3.42177" fill="black"/>
<rect x="114.182" y="499.16" width="2.58562" height="3.42177" fill="black"/>
<rect x="103.839" y="499.16" width="2.58562" height="3.42177" fill="black"/>
<rect x="114.182" y="492.318" width="2.58562" height="3.42177" fill="black"/>
<rect x="103.839" y="492.318" width="2.58562" height="3.42177" fill="black"/>
<rect x="114.182" y="478.627" width="2.58562" height="3.42177" fill="black"/>
<rect x="103.839" y="478.627" width="2.58562" height="3.42177" fill="black"/>
<rect x="114.182" y="464.941" width="2.58562" height="3.42177" fill="black"/>
<rect x="103.839" y="464.941" width="2.58562" height="3.42177" fill="black"/>
<rect x="77.9832" y="471.785" width="2.58562" height="3.42177" fill="black"/>
<rect x="88.3257" y="471.785" width="2.58562" height="3.42177" fill="black"/>
<rect x="93.4968" y="471.785" width="2.58562" height="3.42177" fill="black"/>
<rect x="83.1543" y="471.785" width="2.58562" height="3.42177" fill="black"/>
<rect x="77.9832" y="485.471" width="2.58562" height="3.42177" fill="black"/>
<rect x="88.3257" y="485.471" width="2.58562" height="3.42177" fill="black"/>
<rect x="93.4968" y="485.471" width="2.58562" height="3.42177" fill="black"/>
<rect x="77.9832" y="499.16" width="2.58562" height="3.42177" fill="black"/>
<rect x="88.3257" y="499.16" width="2.58562" height="3.42177" fill="black"/>
<rect x="93.4968" y="499.16" width="2.58562" height="3.42177" fill="black"/>
<rect x="83.1543" y="499.16" width="2.58562" height="3.42177" fill="black"/>
<rect x="93.4968" y="492.318" width="2.58562" height="3.42177" fill="black"/>
<rect x="83.1543" y="492.318" width="2.58562" height="3.42177" fill="black"/>
<rect x="93.4968" y="478.627" width="2.58562" height="3.42177" fill="black"/>
<rect x="83.1543" y="478.627" width="2.58562" height="3.42177" fill="black"/>
<rect x="93.4968" y="464.941" width="2.58562" height="3.42177" fill="black"/>
<rect x="83.1543" y="464.941" width="2.58562" height="3.42177" fill="black"/>
<rect x="119.353" y="471.785" width="2.58562" height="3.42177" fill="black"/>
<rect x="129.696" y="471.785" width="2.58562" height="3.42177" fill="black"/>
<rect x="134.867" y="471.785" width="2.58562" height="3.42177" fill="black"/>
<rect x="124.524" y="471.785" width="2.58562" height="3.42177" fill="black"/>
<rect x="119.353" y="485.471" width="2.58562" height="3.42177" fill="black"/>
<rect x="129.696" y="485.471" width="2.58562" height="3.42177" fill="black"/>
<rect x="134.867" y="485.471" width="2.58562" height="3.42177" fill="black"/>
<rect x="119.353" y="499.16" width="2.58562" height="3.42177" fill="black"/>
<rect x="129.696" y="499.16" width="2.58562" height="3.42177" fill="black"/>
<rect x="134.867" y="499.16" width="2.58562" height="3.42177" fill="black"/>
<rect x="124.524" y="499.16" width="2.58562" height="3.42177" fill="black"/>
<rect x="134.867" y="492.318" width="2.58562" height="3.42177" fill="black"/>
<rect x="124.524" y="492.318" width="2.58562" height="3.42177" fill="black"/>
<rect x="134.867" y="478.627" width="2.58562" height="3.42177" fill="black"/>
<rect x="124.524" y="478.627" width="2.58562" height="3.42177" fill="black"/>
<rect x="134.867" y="464.941" width="2.58562" height="3.42177" fill="black"/>
<rect x="124.524" y="464.941" width="2.58562" height="3.42177" fill="black"/>
<rect x="714.962" y="471.785" width="2.58562" height="3.42177" fill="black"/>
<rect x="725.305" y="471.785" width="2.58562" height="3.42177" fill="black"/>
<rect x="730.476" y="471.785" width="2.58562" height="3.42177" fill="black"/>
<rect x="720.134" y="471.785" width="2.58562" height="3.42177" fill="black"/>
<rect x="714.962" y="485.471" width="2.58562" height="3.42177" fill="black"/>
<rect x="725.305" y="485.471" width="2.58562" height="3.42177" fill="black"/>
<rect x="730.476" y="485.471" width="2.58562" height="3.42177" fill="black"/>
<rect x="714.962" y="499.16" width="2.58562" height="3.42177" fill="black"/>
<rect x="725.305" y="499.16" width="2.58562" height="3.42177" fill="black"/>
<rect x="730.476" y="499.16" width="2.58562" height="3.42177" fill="black"/>
<rect x="720.134" y="499.16" width="2.58562" height="3.42177" fill="black"/>
<rect x="730.476" y="492.318" width="2.58562" height="3.42177" fill="black"/>
<rect x="720.134" y="492.318" width="2.58562" height="3.42177" fill="black"/>
<rect x="730.476" y="478.627" width="2.58562" height="3.42177" fill="black"/>
<rect x="720.134" y="478.627" width="2.58562" height="3.42177" fill="black"/>
<rect x="730.476" y="464.941" width="2.58562" height="3.42177" fill="black"/>
<rect x="720.134" y="464.941" width="2.58562" height="3.42177" fill="black"/>
<rect x="756.332" y="471.785" width="2.58562" height="3.42177" fill="black"/>
<rect x="766.675" y="471.785" width="2.58562" height="3.42177" fill="black"/>
<rect x="771.846" y="471.785" width="2.58562" height="3.42177" fill="black"/>
<rect x="761.503" y="471.785" width="2.58562" height="3.42177" fill="black"/>
<rect x="756.332" y="485.471" width="2.58562" height="3.42177" fill="black"/>
<rect x="766.675" y="485.471" width="2.58562" height="3.42177" fill="black"/>
<rect x="771.846" y="485.471" width="2.58562" height="3.42177" fill="black"/>
<rect x="756.332" y="499.16" width="2.58562" height="3.42177" fill="black"/>
<rect x="766.675" y="499.16" width="2.58562" height="3.42177" fill="black"/>
<rect x="771.846" y="499.16" width="2.58562" height="3.42177" fill="black"/>
<rect x="761.503" y="499.16" width="2.58562" height="3.42177" fill="black"/>
<rect x="771.846" y="492.318" width="2.58562" height="3.42177" fill="black"/>
<rect x="761.503" y="492.318" width="2.58562" height="3.42177" fill="black"/>
<rect x="771.846" y="478.627" width="2.58562" height="3.42177" fill="black"/>
<rect x="761.503" y="478.627" width="2.58562" height="3.42177" fill="black"/>
<rect x="771.846" y="464.941" width="2.58562" height="3.42177" fill="black"/>
<rect x="761.503" y="464.941" width="2.58562" height="3.42177" fill="black"/>
<rect x="735.647" y="471.785" width="2.58562" height="3.42177" fill="black"/>
<rect x="745.99" y="471.785" width="2.58562" height="3.42177" fill="black"/>
<rect x="751.161" y="471.785" width="2.58562" height="3.42177" fill="black"/>
<rect x="740.818" y="471.785" width="2.58562" height="3.42177" fill="black"/>
<rect x="735.647" y="485.471" width="2.58562" height="3.42177" fill="black"/>
<rect x="745.99" y="485.471" width="2.58562" height="3.42177" fill="black"/>
<rect x="751.161" y="485.471" width="2.58562" height="3.42177" fill="black"/>
<rect x="735.647" y="499.16" width="2.58562" height="3.42177" fill="black"/>
<rect x="745.99" y="499.16" width="2.58562" height="3.42177" fill="black"/>
<rect x="751.161" y="499.16" width="2.58562" height="3.42177" fill="black"/>
<rect x="740.818" y="499.16" width="2.58562" height="3.42177" fill="black"/>
<rect x="751.161" y="492.318" width="2.58562" height="3.42177" fill="black"/>
<rect x="740.818" y="492.318" width="2.58562" height="3.42177" fill="black"/>
<rect x="751.161" y="478.627" width="2.58562" height="3.42177" fill="black"/>
<rect x="740.818" y="478.627" width="2.58562" height="3.42177" fill="black"/>
<rect x="751.161" y="464.941" width="2.58562" height="3.42177" fill="black"/>
<rect x="740.818" y="464.941" width="2.58562" height="3.42177" fill="black"/>
<rect x="777.017" y="471.785" width="2.58562" height="3.42177" fill="black"/>
<rect x="787.36" y="471.785" width="2.58562" height="3.42177" fill="black"/>
<rect x="792.531" y="471.785" width="2.58562" height="3.42177" fill="black"/>
<rect x="782.188" y="471.785" width="2.58562" height="3.42177" fill="black"/>
<rect x="777.017" y="485.471" width="2.58562" height="3.42177" fill="black"/>
<rect x="787.36" y="485.471" width="2.58562" height="3.42177" fill="black"/>
<rect x="792.531" y="485.471" width="2.58562" height="3.42177" fill="black"/>
<rect x="777.017" y="499.16" width="2.58562" height="3.42177" fill="black"/>
<rect x="787.36" y="499.16" width="2.58562" height="3.42177" fill="black"/>
<rect x="792.531" y="499.16" width="2.58562" height="3.42177" fill="black"/>
<rect x="782.188" y="499.16" width="2.58562" height="3.42177" fill="black"/>
<rect x="792.531" y="492.318" width="2.58562" height="3.42177" fill="black"/>
<rect x="782.188" y="492.318" width="2.58562" height="3.42177" fill="black"/>
<rect x="792.531" y="478.627" width="2.58562" height="3.42177" fill="black"/>
<rect x="782.188" y="478.627" width="2.58562" height="3.42177" fill="black"/>
<rect x="792.531" y="464.941" width="2.58562" height="3.42177" fill="black"/>
<rect x="782.188" y="464.941" width="2.58562" height="3.42177" fill="black"/>
<rect x="4.29281" y="462.81" width="846.414" height="41.8974" stroke="black" stroke-width="2.58562"/>
<rect x="136.16" y="462.81" width="580.095" height="41.8974" fill="white" stroke="black" stroke-width="2.58562"/>
<rect x="4.29281" y="462.81" width="51.7125" height="41.8974" fill="white" stroke="black" stroke-width="2.58562"/>
<path fill-rule="evenodd" clip-rule="evenodd" d="M26.2707 468.359H23.685V471.783H21.0994V475.202H18.5138V478.626H15.9282V482.045H13.3425V485.467H15.9282V488.891H18.5138V492.311H21.0994V495.736H23.685V499.155H26.2707V495.736V492.311V488.891H44.37V478.626H26.2707V475.202V471.783V468.359Z" fill="black"/>
<rect x="798.995" y="462.81" width="51.7125" height="41.8974" fill="white" stroke="black" stroke-width="2.58562"/>
<path fill-rule="evenodd" clip-rule="evenodd" d="M828.73 468.359H831.315V471.783H833.901V475.202H836.487V478.626H839.072V482.045H841.658V485.467H839.072V488.891H836.487V492.311H833.901V495.736H831.315V499.155H828.73V495.736V492.311V488.891H810.63V478.626H828.73V475.202V471.783V468.359Z" fill="black"/>
<rect x="1.70719" y="1.70719" width="851.586" height="505.586" stroke="white" stroke-width="2.58562"/>
</svg>
